<svg width="193" height="171" viewBox="0 0 193 171" fill="none" xmlns="http://www.w3.org/2000/svg">
<path d="M107.54 48.246C111.053 52.5918 116.797 54.4584 122.194 53.0074C130.88 50.6721 139.507 56.9402 139.97 65.9226C140.257 71.5031 143.808 76.39 149.027 78.3878C157.426 81.6042 160.721 91.7461 155.816 99.2851C152.769 103.969 152.769 110.009 155.816 114.693C160.721 122.232 157.426 132.374 149.027 135.59C143.808 137.588 140.257 142.475 139.97 148.056C139.507 157.038 130.88 163.306 122.194 160.971C116.797 159.52 111.053 161.386 107.54 165.732C101.886 172.727 91.2221 172.727 85.5677 165.732C82.0549 161.386 76.3097 159.52 70.9133 160.971C62.2278 163.306 53.6006 157.038 53.1376 148.056C52.8501 142.475 49.2996 137.588 44.0811 135.59C35.6817 132.374 32.3862 122.232 37.2911 114.693C40.3389 110.009 40.3389 103.969 37.2911 99.2851C32.3862 91.7461 35.6817 81.6042 44.0811 78.3878C49.2996 76.39 52.8501 71.5031 53.1376 65.9226C53.6006 56.9402 62.2278 50.6721 70.9133 53.0074C76.3097 54.4584 82.0549 52.5918 85.5677 48.246C91.2221 41.2513 101.886 41.2513 107.54 48.246Z" fill="#FAB613"/>
<path d="M69.6094 103.011L88.7778 122.179L122.956 88.0013" fill="#FAB613"/>
<path d="M69.6094 103.011L88.7778 122.179L122.956 88.0013" stroke="white" stroke-width="5.92593" stroke-linecap="round"/>
<path d="M158.44 28.4766C159.235 26.5565 161.437 25.6447 163.357 26.4401C165.277 27.2354 166.188 29.4365 165.393 31.3566C164.598 33.2767 162.397 34.1884 160.477 33.3931C158.557 32.5978 157.645 30.3966 158.44 28.4766Z" fill="#FAB613"/>
<path d="M25.4401 31.4766C26.2354 29.5565 28.4366 28.6447 30.3566 29.4401C32.2767 30.2354 33.1885 32.4365 32.3931 34.3566C31.5978 36.2767 29.3967 37.1884 27.4766 36.3931C25.5565 35.5978 24.6448 33.3966 25.4401 31.4766Z" fill="#FAB613"/>
<path d="M87.4401 3.47656C88.2354 1.55647 90.4366 0.64473 92.3566 1.44006C94.2767 2.23538 95.1885 4.43652 94.3931 6.3566C93.5978 8.27669 91.3967 9.18843 89.4766 8.39311C87.5565 7.59778 86.6448 5.39664 87.4401 3.47656Z" fill="#FAB613"/>
<path d="M184.44 78.4766C185.235 76.5565 187.437 75.6447 189.357 76.4401C191.277 77.2354 192.188 79.4365 191.393 81.3566C190.598 83.2767 188.397 84.1884 186.477 83.3931C184.557 82.5978 183.645 80.3966 184.44 78.4766Z" fill="#FAB613"/>
<path d="M1.4401 88.4766C2.23543 86.5565 4.43656 85.6447 6.35665 86.4401C8.27673 87.2354 9.18847 89.4365 8.39315 91.3566C7.59782 93.2767 5.39669 94.1884 3.4766 93.3931C1.55652 92.5978 0.644776 90.3966 1.4401 88.4766Z" fill="#FAB613"/>
</svg>
