<svg width="14" height="14" viewBox="0 0 14 14" fill="none" xmlns="http://www.w3.org/2000/svg">
<path d="M4.30488 12.2558C4.37261 12.3237 4.45307 12.3776 4.54166 12.4144C4.63025 12.4511 4.72522 12.47 4.82113 12.47C4.91704 12.47 5.01201 12.4511 5.10059 12.4144C5.18918 12.3776 5.26964 12.3237 5.33738 12.2558L10.1849 7.40831C10.239 7.35435 10.2819 7.29024 10.3111 7.21968C10.3404 7.14911 10.3555 7.07346 10.3555 6.99706C10.3555 6.92066 10.3404 6.84502 10.3111 6.77445C10.2819 6.70388 10.239 6.63978 10.1849 6.58581L5.33737 1.73831C5.05154 1.45248 4.59071 1.45248 4.30487 1.73831C4.01904 2.02414 4.01904 2.48498 4.30487 2.77081L8.52821 6.99998L4.29904 11.2291C4.01904 11.5091 4.01904 11.9758 4.30488 12.2558Z" fill="#5C2682"/>
</svg>
