<svg width="8" height="12" viewBox="0 0 8 12" fill="none" xmlns="http://www.w3.org/2000/svg">
<path d="M1.73922 11.7599L7.69922 5.9999L1.73922 0.239898C1.57677 0.08342 1.35882 -0.0021177 1.13331 0.00210186C0.907796 0.00632142 0.693196 0.0999526 0.536718 0.262398C0.380241 0.424843 0.294703 0.642795 0.298923 0.868308C0.303142 1.09382 0.396773 1.30842 0.559218 1.4649L5.25422 5.9999L0.559218 10.5399C0.396773 10.6964 0.303142 10.911 0.298922 11.1365C0.294703 11.362 0.38024 11.58 0.536718 11.7424C0.693196 11.9048 0.907795 11.9985 1.13331 12.0027C1.35882 12.0069 1.57677 11.9214 1.73922 11.7649L1.73922 11.7599Z" fill="#5C2682"/>
</svg>
