<svg width="25" height="25" viewBox="0 0 25 25" fill="none" xmlns="http://www.w3.org/2000/svg">
<g clip-path="url(#clip0_1879_6001)">
<path d="M24.5622 12.6776C25.0153 13.2616 24.9606 13.9687 24.4293 14.246L8.33364 22.6737C7.62661 23.0409 6.69692 22.7382 6.27505 21.9999L0.284813 11.537C-0.0647963 10.9257 0.206688 10.2089 0.87661 9.94131L16.402 3.75576C16.9215 3.55068 17.654 3.78506 18.0407 4.28311L24.5622 12.6776Z" fill="#FCC21B"/>
<path d="M20.8711 6.99609L1.64648 15.5098L-0.00390625 12.5879L19.0488 4.66992L20.8711 6.99609Z" fill="#2F2F2F"/>
<path d="M23.2928 12.6211C23.5155 12.914 23.4843 13.2656 23.2147 13.4004L21.0487 14.5058C20.7694 14.6484 20.3573 14.5156 20.1346 14.2109L18.8632 12.4668C18.6503 12.1718 18.703 11.8242 18.9803 11.6914L21.1346 10.666C21.4003 10.539 21.7909 10.666 22.0096 10.9472L23.2928 12.6211Z" fill="white"/>
</g>
<defs>
<clipPath id="clip0_1879_6001">
<rect width="25" height="25" fill="white"/>
</clipPath>
</defs>
</svg>
