<svg width="22" height="22" viewBox="0 0 22 22" fill="none" xmlns="http://www.w3.org/2000/svg">
<g clip-path="url(#clip0_1879_6047)">
<path d="M9.9502 7.22909V21.7804C9.9502 21.9 10.0344 22.0004 10.1331 22.0004H21.9003C21.9983 22.0004 22.0825 21.9 22.0825 21.7804V7.22909C22.0848 7.17456 22.0672 7.12104 22.033 7.07853L22.0282 7.07474C22.0282 7.07096 22.0251 7.07028 22.0251 7.07028C22.0102 7.05117 21.9912 7.03567 21.9694 7.0249C21.9477 7.01413 21.9239 7.00837 21.8996 7.00806H10.1324C10.0341 7.00806 9.9502 7.10946 9.9502 7.22909Z" fill="#A2C3CB"/>
<path d="M0 7.22912V21.7804C0 21.9 0.0842188 22.0004 0.182875 22.0004H11.9491C12.0481 22.0004 12.1323 21.9 12.1323 21.7804V7.22912C12.1344 7.1745 12.1166 7.12097 12.0821 7.07856L12.0777 7.07478C12.0777 7.07099 12.0739 7.07031 12.0708 7.06825C12.0565 7.04942 12.0379 7.03421 12.0167 7.02382C11.9954 7.01343 11.9721 7.00816 11.9484 7.00843H0.181844C0.0842187 7.00843 0 7.1095 0 7.22912Z" fill="#A2C3CB"/>
<path d="M0.739266 10.67H4.70683C4.73983 10.67 4.77042 10.6566 4.77042 10.6432V8.95949C4.77042 8.94471 4.74017 8.93371 4.70683 8.93371H0.739266C0.72419 8.93298 0.709145 8.93568 0.695266 8.94162V8.94299C0.686328 8.94815 0.679109 8.95262 0.679109 8.95915V10.6428C0.679109 10.6566 0.703859 10.67 0.739266 10.67ZM0.739953 13.5025H4.81408C4.8457 13.5025 4.87905 13.4894 4.87905 13.476V11.7941C4.87905 11.7793 4.8457 11.7676 4.81408 11.7676H0.739609C0.723872 11.7668 0.708186 11.7699 0.693891 11.7765V11.7779C0.685984 11.7824 0.677734 11.7865 0.677734 11.7941V13.476C0.677734 13.4894 0.703859 13.5025 0.739953 13.5025ZM0.758516 15.9466H5.98317C6.02442 15.9466 6.06567 15.9338 6.06567 15.9204V14.2367C6.06567 14.222 6.02442 14.212 5.98317 14.212H0.758516C0.738564 14.2116 0.718655 14.214 0.699391 14.2192V14.2209C0.692884 14.225 0.685971 14.2283 0.678766 14.2309V15.9208C0.678766 15.9331 0.712797 15.9466 0.758516 15.9466ZM0.749578 18.7794H5.33383C5.36992 18.7794 5.40602 18.766 5.40602 18.7533V17.071C5.40602 17.0562 5.36992 17.0441 5.33383 17.0441H0.749578C0.728953 17.0441 0.708328 17.0445 0.697328 17.0531V17.0545L0.678766 17.0634V18.7533C0.678766 18.766 0.708328 18.7794 0.749578 18.7794ZM17.7872 10.8907H21.39C21.4189 10.8907 21.4471 10.8773 21.4471 10.8639V9.18121C21.4471 9.16643 21.4189 9.15543 21.39 9.15543H17.7872C17.773 9.15497 17.7589 9.1578 17.746 9.16368V9.16505L17.7325 9.17468V10.8639C17.7325 10.8773 17.7552 10.8907 17.7872 10.8907ZM17.0258 13.7246H21.3766C21.4114 13.7246 21.4457 13.7111 21.4457 13.6984V12.0144C21.4457 11.9996 21.4107 11.9893 21.3766 11.9893H17.0258C17.0092 11.9888 16.9927 11.9913 16.977 11.9965V11.9979C16.968 12.0041 16.9581 12.0079 16.9581 12.0079V13.6977C16.9588 13.7111 16.9873 13.7246 17.0258 13.7246ZM15.6474 16.1666H21.3567C21.4017 16.1666 21.4475 16.1531 21.4475 16.1397V14.4574C21.4475 14.4426 21.4017 14.4313 21.3567 14.4313H15.6474C15.6255 14.4307 15.6037 14.4336 15.5827 14.4399V14.4413C15.5707 14.4461 15.56 14.4499 15.56 14.4574V16.1397C15.5594 16.1531 15.5955 16.1666 15.6474 16.1666ZM16.5789 18.9991H21.3725C21.4107 18.9991 21.4499 18.9863 21.4499 18.9729V17.2892C21.4499 17.2745 21.4114 17.2645 21.3725 17.2645H16.5789C16.5606 17.2642 16.5423 17.2666 16.5246 17.2717V17.2734C16.5153 17.2796 16.505 17.2834 16.505 17.2896V18.9733C16.505 18.9863 16.536 18.9991 16.5789 18.9991Z" fill="#5697A2"/>
<path d="M4.04883 1.12511V21.681C4.04883 21.8505 4.14473 21.9921 4.25852 21.9921H17.7744C17.8879 21.9921 17.9831 21.8505 17.9831 21.681V1.12443C17.9831 1.0323 17.9614 0.961488 17.9274 0.911988L17.9215 0.906144C17.9215 0.906144 17.9178 0.900301 17.9143 0.897207C17.882 0.847019 17.8342 0.812988 17.7737 0.812988H4.25817C4.14473 0.812988 4.04883 0.954613 4.04883 1.12443" fill="#C6DCDF"/>
<path d="M9.1388 21.9997H12.9709C13.0005 21.9997 13.0287 21.9804 13.0287 21.957V19.2043C13.0287 19.1809 13.0005 19.1613 12.9709 19.1613H9.13915C9.12472 19.1611 9.11065 19.1658 9.09927 19.1747L9.09859 19.1761H9.09721C9.0893 19.1833 9.08105 19.1943 9.08105 19.2043V21.957C9.08105 21.9804 9.1089 21.9997 9.1388 21.9997Z" fill="#9A535F"/>
<path d="M9.61746 20.6353H10.2833C10.2833 20.6353 10.2936 20.6288 10.2936 20.6233V19.8701C10.2936 19.8643 10.2885 19.8588 10.2885 19.8588H9.6178C9.6178 19.8588 9.61196 19.8601 9.6099 19.8632C9.60921 19.8663 9.60749 19.8677 9.60749 19.8677V20.6233C9.6068 20.6291 9.61127 20.6353 9.61746 20.6353Z" fill="#86A7AC"/>
<path d="M4.95 10.0547H16.9592C17.0552 10.0547 17.1511 10.0371 17.1511 10.0206V7.91482C17.1511 7.89626 17.0558 7.88251 16.9592 7.88251H4.95034C4.90462 7.88251 4.84619 7.88629 4.81766 7.89282V7.89523C4.79325 7.90107 4.76953 7.90691 4.76953 7.91516V10.021C4.76953 10.0371 4.84619 10.0547 4.95 10.0547ZM5.05931 13.1519H16.9603C17.0545 13.1519 17.1497 13.1357 17.1497 13.1195V11.013C17.1497 10.9938 17.0552 10.9807 16.9603 10.9807H5.05794C5.0105 10.9807 4.95378 10.9835 4.92594 10.991V10.9924C4.90222 10.9983 4.8785 11.0044 4.8785 11.013V13.1195C4.8785 13.1357 4.95447 13.1519 5.05828 13.1519H5.05931ZM5.05931 16.6983H16.9603C17.0545 16.6983 17.1497 16.6818 17.1497 16.6657V14.5595C17.1497 14.5399 17.0552 14.5265 16.9603 14.5265H5.05794C5.0105 14.5265 4.95378 14.5265 4.92594 14.5368V14.5385C4.90222 14.5447 4.8785 14.5502 4.8785 14.5595V16.6657C4.8785 16.6818 4.95447 16.6983 5.05828 16.6983" fill="#6CB5C6"/>
<path d="M11.8013 20.6353H12.4682C12.4682 20.6353 12.4775 20.6288 12.4775 20.6233V19.8701C12.4775 19.8643 12.472 19.8588 12.472 19.8588H11.8013L11.7941 19.8632C11.7927 19.8663 11.791 19.8677 11.791 19.8677V20.6233C11.791 20.6291 11.7962 20.6353 11.8013 20.6353Z" fill="#86A7AC"/>
<path d="M13.1274 6.70242C13.1274 5.44635 12.2429 5.08542 11.2845 4.88329L10.7768 4.78085C10.0278 4.63304 9.96864 4.41614 9.96864 4.12395C9.96864 3.74617 10.3096 3.52032 10.8799 3.52032C11.5568 3.52032 11.7304 3.85892 11.8025 4.11467L11.8098 4.13598C11.895 4.35873 12.092 4.49176 12.3395 4.49176C12.4031 4.49176 12.4584 4.48145 12.5028 4.47251C12.7675 4.42095 12.9517 4.20885 12.9517 3.96032C12.9517 3.8981 12.94 3.83623 12.9166 3.7771C12.7805 3.34157 12.4031 2.65476 11.345 2.49835V1.75173C11.345 1.12817 10.3701 1.12817 10.3701 1.75173V2.50317C9.2368 2.68089 8.8188 3.45226 8.8188 4.12429C8.8188 5.3477 9.66992 5.68939 10.5028 5.86023L11.0528 5.97745C11.8342 6.13523 11.9713 6.33907 11.9713 6.7086C11.9713 7.15892 11.5908 7.42945 10.95 7.42945C10.1199 7.42945 9.95077 7.05545 9.83733 6.63539C9.77098 6.40198 9.5613 6.25314 9.30211 6.25314C9.24539 6.25314 9.19967 6.26035 9.1457 6.26998L9.13023 6.27204C8.86142 6.33632 8.68164 6.5467 8.68164 6.7966C8.68164 6.84542 8.69023 6.8846 8.69711 6.9176L8.70502 6.95542C8.82533 7.36207 9.09105 8.25067 10.4193 8.45039V9.23173C10.4193 9.54351 10.6634 9.70748 10.9057 9.70748C11.148 9.70748 11.3949 9.54351 11.3949 9.23173V8.46345C12.446 8.32629 13.1274 7.65392 13.1274 6.70207" fill="#04A69C"/>
</g>
<defs>
<clipPath id="clip0_1879_6047">
<rect width="22" height="22" fill="white"/>
</clipPath>
</defs>
</svg>
