<svg width="22" height="22" viewBox="0 0 22 22" fill="none" xmlns="http://www.w3.org/2000/svg">
<g clip-path="url(#clip0_1328_8195)">
<path d="M9.95068 7.22884V21.7801C9.95068 21.8998 10.0349 22.0001 10.1336 22.0001H21.9008C21.9988 22.0001 22.083 21.8998 22.083 21.7801V7.22884C22.0853 7.17431 22.0677 7.1208 22.0335 7.07828L22.0287 7.0745C22.0287 7.07072 22.0256 7.07003 22.0256 7.07003C22.0107 7.05093 21.9916 7.03542 21.9699 7.02465C21.9482 7.01389 21.9244 7.00813 21.9001 7.00781H10.1329C10.0346 7.00781 9.95068 7.10922 9.95068 7.22884Z" fill="#A2C3CB"/>
<path d="M0 7.229V21.7803C0 21.8999 0.0842188 22.0003 0.182875 22.0003H11.9491C12.0481 22.0003 12.1323 21.8999 12.1323 21.7803V7.229C12.1344 7.17438 12.1166 7.12085 12.0821 7.07844L12.0777 7.07465C12.0777 7.07087 12.0739 7.07019 12.0708 7.06812C12.0565 7.0493 12.0379 7.03408 12.0167 7.0237C11.9954 7.01331 11.9721 7.00804 11.9484 7.00831H0.181844C0.0842187 7.00831 0 7.10937 0 7.229Z" fill="#A2C3CB"/>
<path d="M0.739266 10.67H4.70683C4.73983 10.67 4.77042 10.6566 4.77042 10.6432V8.95949C4.77042 8.94471 4.74017 8.93371 4.70683 8.93371H0.739266C0.72419 8.93298 0.709145 8.93568 0.695266 8.94162V8.94299C0.686328 8.94815 0.679109 8.95262 0.679109 8.95915V10.6428C0.679109 10.6566 0.703859 10.67 0.739266 10.67ZM0.739953 13.5025H4.81408C4.8457 13.5025 4.87905 13.4894 4.87905 13.476V11.7941C4.87905 11.7793 4.8457 11.7676 4.81408 11.7676H0.739609C0.723872 11.7668 0.708186 11.7699 0.693891 11.7765V11.7779C0.685984 11.7824 0.677734 11.7865 0.677734 11.7941V13.476C0.677734 13.4894 0.703859 13.5025 0.739953 13.5025ZM0.758516 15.9466H5.98317C6.02442 15.9466 6.06567 15.9338 6.06567 15.9204V14.2367C6.06567 14.222 6.02442 14.212 5.98317 14.212H0.758516C0.738564 14.2116 0.718655 14.214 0.699391 14.2192V14.2209C0.692884 14.225 0.685971 14.2283 0.678766 14.2309V15.9208C0.678766 15.9331 0.712797 15.9466 0.758516 15.9466ZM0.749578 18.7794H5.33383C5.36992 18.7794 5.40602 18.766 5.40602 18.7533V17.071C5.40602 17.0562 5.36992 17.0441 5.33383 17.0441H0.749578C0.728953 17.0441 0.708328 17.0445 0.697328 17.0531V17.0545L0.678766 17.0634V18.7533C0.678766 18.766 0.708328 18.7794 0.749578 18.7794ZM17.7872 10.8907H21.39C21.4189 10.8907 21.4471 10.8773 21.4471 10.8639V9.18121C21.4471 9.16643 21.4189 9.15543 21.39 9.15543H17.7872C17.773 9.15497 17.7589 9.1578 17.746 9.16368V9.16505L17.7325 9.17468V10.8639C17.7325 10.8773 17.7552 10.8907 17.7872 10.8907ZM17.0258 13.7246H21.3766C21.4114 13.7246 21.4457 13.7111 21.4457 13.6984V12.0144C21.4457 11.9996 21.4107 11.9893 21.3766 11.9893H17.0258C17.0092 11.9888 16.9927 11.9913 16.977 11.9965V11.9979C16.968 12.0041 16.9581 12.0079 16.9581 12.0079V13.6977C16.9588 13.7111 16.9873 13.7246 17.0258 13.7246ZM15.6474 16.1666H21.3567C21.4017 16.1666 21.4475 16.1531 21.4475 16.1397V14.4574C21.4475 14.4426 21.4017 14.4313 21.3567 14.4313H15.6474C15.6255 14.4307 15.6037 14.4336 15.5827 14.4399V14.4413C15.5707 14.4461 15.56 14.4499 15.56 14.4574V16.1397C15.5594 16.1531 15.5955 16.1666 15.6474 16.1666ZM16.5789 18.9991H21.3725C21.4107 18.9991 21.4499 18.9863 21.4499 18.9729V17.2892C21.4499 17.2745 21.4114 17.2645 21.3725 17.2645H16.5789C16.5606 17.2642 16.5423 17.2666 16.5246 17.2717V17.2734C16.5153 17.2796 16.505 17.2834 16.505 17.2896V18.9733C16.505 18.9863 16.536 18.9991 16.5789 18.9991Z" fill="#5697A2"/>
<path d="M4.04834 1.12511V21.681C4.04834 21.8505 4.14425 21.9921 4.25803 21.9921H17.7739C17.8874 21.9921 17.9826 21.8505 17.9826 21.681V1.12443C17.9826 1.0323 17.9609 0.961488 17.9269 0.911988L17.9211 0.906144C17.9211 0.906144 17.9173 0.900301 17.9138 0.897207C17.8815 0.847019 17.8337 0.812988 17.7732 0.812988H4.25768C4.14425 0.812988 4.04834 0.954613 4.04834 1.12443" fill="#C6DCDF"/>
<path d="M9.13929 21.9995H12.9714C13.001 21.9995 13.0292 21.9802 13.0292 21.9569V19.2041C13.0292 19.1807 13.001 19.1611 12.9714 19.1611H9.13964C9.1252 19.1609 9.11113 19.1657 9.09976 19.1745L9.09907 19.1759H9.0977C9.08979 19.1831 9.08154 19.1941 9.08154 19.2041V21.9569C9.08154 21.9802 9.10939 21.9995 9.13929 21.9995Z" fill="#9A535F"/>
<path d="M9.61795 20.6354H10.2838C10.2838 20.6354 10.2941 20.6289 10.2941 20.6234V19.8702C10.2941 19.8644 10.2889 19.8589 10.2889 19.8589H9.61829C9.61829 19.8589 9.61245 19.8603 9.61039 19.8634C9.6097 19.8664 9.60798 19.8678 9.60798 19.8678V20.6234C9.60729 20.6292 9.61176 20.6354 9.61795 20.6354Z" fill="#86A7AC"/>
<path d="M4.95 10.0545H16.9592C17.0552 10.0545 17.1511 10.0369 17.1511 10.0204V7.91464C17.1511 7.89607 17.0558 7.88232 16.9592 7.88232H4.95034C4.90462 7.88232 4.84619 7.88611 4.81766 7.89264V7.89504C4.79325 7.90089 4.76953 7.90673 4.76953 7.91498V10.0208C4.76953 10.0369 4.84619 10.0545 4.95 10.0545ZM5.05931 13.1517H16.9603C17.0545 13.1517 17.1497 13.1355 17.1497 13.1194V11.0129C17.1497 10.9936 17.0552 10.9805 16.9603 10.9805H5.05794C5.0105 10.9805 4.95378 10.9833 4.92594 10.9909V10.9922C4.90222 10.9981 4.8785 11.0043 4.8785 11.0129V13.1194C4.8785 13.1355 4.95447 13.1517 5.05828 13.1517H5.05931ZM5.05931 16.6981H16.9603C17.0545 16.6981 17.1497 16.6816 17.1497 16.6655V14.5593C17.1497 14.5397 17.0552 14.5263 16.9603 14.5263H5.05794C5.0105 14.5263 4.95378 14.5263 4.92594 14.5366V14.5384C4.90222 14.5445 4.8785 14.55 4.8785 14.5593V16.6655C4.8785 16.6816 4.95447 16.6981 5.05828 16.6981" fill="#6CB5C6"/>
<path d="M11.8008 20.6354H12.4677C12.4677 20.6354 12.477 20.6289 12.477 20.6234V19.8702C12.477 19.8644 12.4715 19.8589 12.4715 19.8589H11.8008L11.7936 19.8634C11.7922 19.8664 11.7905 19.8678 11.7905 19.8678V20.6234C11.7905 20.6292 11.7957 20.6354 11.8008 20.6354Z" fill="#86A7AC"/>
<path d="M13.1278 6.70254C13.1278 5.44648 12.2434 5.08554 11.285 4.88341L10.7773 4.78098C10.0283 4.63316 9.96913 4.41626 9.96913 4.12407C9.96913 3.74629 10.3101 3.52045 10.8804 3.52045C11.5573 3.52045 11.7308 3.85904 11.803 4.11479L11.8103 4.1361C11.8955 4.35885 12.0925 4.49188 12.34 4.49188C12.4036 4.49188 12.4589 4.48157 12.5033 4.47263C12.7679 4.42107 12.9522 4.20898 12.9522 3.96045C12.9522 3.89823 12.9405 3.83635 12.9171 3.77723C12.781 3.3417 12.4036 2.65488 11.3455 2.49848V1.75185C11.3455 1.12829 10.3706 1.12829 10.3706 1.75185V2.50329C9.23729 2.68101 8.81929 3.45238 8.81929 4.12441C8.81929 5.34782 9.67041 5.68951 10.5033 5.86035L11.0533 5.97757C11.8347 6.13535 11.9718 6.3392 11.9718 6.70873C11.9718 7.15904 11.5913 7.42957 10.9505 7.42957C10.1204 7.42957 9.95125 7.05557 9.83782 6.63551C9.77147 6.4021 9.56179 6.25326 9.3026 6.25326C9.24588 6.25326 9.20016 6.26048 9.14619 6.2701L9.13072 6.27216C8.86191 6.33645 8.68213 6.54682 8.68213 6.79673C8.68213 6.84554 8.69072 6.88473 8.6976 6.91773L8.7055 6.95554C8.82582 7.3622 9.09154 8.25079 10.4198 8.45051V9.23185C10.4198 9.54363 10.6638 9.7076 10.9062 9.7076C11.1485 9.7076 11.3953 9.54363 11.3953 9.23185V8.46357C12.4465 8.32641 13.1278 7.65404 13.1278 6.7022" fill="#04A69C"/>
</g>
<defs>
<clipPath id="clip0_1328_8195">
<rect width="22" height="22" fill="white"/>
</clipPath>
</defs>
</svg>
