<svg width="16" height="16" viewBox="0 0 16 16" fill="none" xmlns="http://www.w3.org/2000/svg">
<path d="M12.1858 6.66084C10.1338 2.24454 9.06641 0.566943 5.71391 0.637143C4.51961 0.661443 4.80581 -0.228657 3.89501 0.108843C2.98601 0.446343 3.76631 0.940443 2.83571 1.70454C0.223906 3.84924 0.464206 5.83284 1.67561 10.5605C2.18591 12.5522 0.445306 12.6494 1.13381 14.579C1.63691 15.9866 5.34491 16.5761 9.25631 15.1253C13.1686 13.6736 15.6337 10.7927 15.1306 9.38514C14.4421 7.45464 13.0507 8.52024 12.1858 6.66084ZM8.83241 13.9355C5.33861 15.2315 2.46761 14.4701 2.34611 14.1308C2.13731 13.5458 3.47381 11.5964 7.46801 10.1141C11.4622 8.63184 13.6915 9.18174 13.9246 9.83424C14.0623 10.2203 12.3271 12.6386 8.83241 13.9355ZM7.70921 10.7909C5.88311 11.4686 4.61411 12.2435 3.79151 12.941C4.37021 13.4666 5.45381 13.5944 6.53291 13.1939C7.90721 12.6854 8.75231 11.5145 8.41841 10.5803L8.40401 10.5479C8.17811 10.6217 7.94681 10.7018 7.70921 10.7909Z" fill="#5C2682"/>
</svg>
