<svg width="33" height="29" viewBox="0 0 33 29" fill="none" xmlns="http://www.w3.org/2000/svg">
<path d="M29.9062 4.90234H24.7266L23.4926 1.44414C23.4073 1.20751 23.2511 1.00296 23.0452 0.858446C22.8394 0.713932 22.5939 0.636497 22.3424 0.636719H10.6576C10.1435 0.636719 9.68262 0.96045 9.51123 1.44414L8.27344 4.90234H3.09375C1.41035 4.90234 0.046875 6.26582 0.046875 7.94922V25.3164C0.046875 26.9998 1.41035 28.3633 3.09375 28.3633H29.9062C31.5896 28.3633 32.9531 26.9998 32.9531 25.3164V7.94922C32.9531 6.26582 31.5896 4.90234 29.9062 4.90234ZM16.5 22.2695C13.1332 22.2695 10.4062 19.5426 10.4062 16.1758C10.4062 12.809 13.1332 10.082 16.5 10.082C19.8668 10.082 22.5938 12.809 22.5938 16.1758C22.5938 19.5426 19.8668 22.2695 16.5 22.2695ZM12.8438 16.1758C12.8438 17.1455 13.229 18.0755 13.9146 18.7611C14.6003 19.4468 15.5303 19.832 16.5 19.832C17.4697 19.832 18.3997 19.4468 19.0854 18.7611C19.771 18.0755 20.1562 17.1455 20.1562 16.1758C20.1562 15.2061 19.771 14.2761 19.0854 13.5904C18.3997 12.9047 17.4697 12.5195 16.5 12.5195C15.5303 12.5195 14.6003 12.9047 13.9146 13.5904C13.229 14.2761 12.8438 15.2061 12.8438 16.1758Z" fill="#C4A7D8"/>
</svg>
