<svg width="25" height="25" viewBox="0 0 25 25" fill="none" xmlns="http://www.w3.org/2000/svg">
<g clip-path="url(#clip0_1328_8149)">
<path d="M24.5626 12.6777C25.0158 13.2617 24.9611 13.9687 24.4298 14.2461L8.33413 22.6738C7.6271 23.041 6.69741 22.7382 6.27554 22L0.285301 11.5371C-0.0643081 10.9257 0.207176 10.2089 0.877098 9.94137L16.4025 3.75582C16.922 3.55075 17.6544 3.78512 18.0412 4.28317L24.5626 12.6777Z" fill="#FCC21B"/>
<path d="M20.8711 6.99609L1.64648 15.5098L-0.00390625 12.5879L19.0488 4.66992L20.8711 6.99609Z" fill="#2F2F2F"/>
<path d="M23.2928 12.6211C23.5155 12.914 23.4843 13.2656 23.2147 13.4004L21.0487 14.5058C20.7694 14.6484 20.3573 14.5156 20.1346 14.2109L18.8632 12.4668C18.6503 12.1718 18.703 11.8242 18.9803 11.6914L21.1346 10.666C21.4003 10.539 21.7909 10.666 22.0096 10.9472L23.2928 12.6211Z" fill="white"/>
</g>
<defs>
<clipPath id="clip0_1328_8149">
<rect width="25" height="25" fill="white"/>
</clipPath>
</defs>
</svg>
