<svg width="25" height="25" viewBox="0 0 25 25" fill="none" xmlns="http://www.w3.org/2000/svg">
<g clip-path="url(#clip0_1328_8162)">
<path d="M23.8281 8.16406C21.4062 5.97656 18.9844 3.75 16.5625 1.5625C13.0078 6.95312 6.99219 11.7578 1.28906 15.2344C1.13281 15.9766 0.976562 16.6797 0.78125 17.3828C3.28125 19.6484 5.78125 21.9531 8.28125 24.2188C14.1797 20.9766 20.4297 16.3672 24.2188 11.1328C24.1016 10.1562 23.9453 9.17969 23.8281 8.16406Z" fill="#699635"/>
<path d="M8.75 21.3281C6.28906 19.0625 3.82812 16.7969 1.36719 14.5703C7.5 11.0938 12.6562 6.36719 16.4453 0.78125C18.9062 3.04688 21.3672 5.27344 23.8281 7.53906C20.0391 13.125 14.8828 17.8516 8.75 21.3281Z" fill="#83BF4F"/>
<path d="M8.125 19.8437C6.48437 18.3594 4.84375 16.8359 3.20312 15.3516C3.32031 15.2734 3.39844 15.2344 3.51563 15.1562C3.82813 14.9609 3.90625 14.6094 3.63281 14.3359L3.39844 14.1016C8.35938 11.0547 12.6562 7.14844 16.0156 2.61719L16.25 2.85156C16.5234 3.08594 16.9141 3.04687 17.1484 2.77344C17.2266 2.69531 17.2656 2.57812 17.3438 2.5C18.9844 3.98437 20.625 5.50781 22.2656 6.99219C22.1875 7.07031 22.1484 7.1875 22.0703 7.26562C21.8359 7.57812 21.875 8.00781 22.1484 8.28125L22.3828 8.51562C19.0234 13.0078 14.7266 16.9141 9.76562 19.9609L9.53125 19.7266C9.25781 19.4922 8.78906 19.4531 8.4375 19.6484C8.32031 19.7266 8.24219 19.7656 8.125 19.8437ZM4.25781 15.3906C5.58594 16.6016 6.91406 17.8125 8.28125 19.0625C8.78906 18.9062 9.375 18.9453 9.84375 19.1797C14.375 16.2891 18.3203 12.6953 21.4844 8.51562C21.2109 8.08594 21.1719 7.53906 21.3672 7.07031C20.0391 5.85938 18.7109 4.64844 17.3438 3.39844C16.9922 3.71094 16.4844 3.75 16.0547 3.51562C12.8906 7.73437 8.94531 11.3281 4.41406 14.2188C4.64844 14.6094 4.60937 15.0781 4.25781 15.3906Z" fill="#699635"/>
<path d="M7.8125 14.5703C8.24219 14.4141 8.71094 14.4531 9.02344 14.7266C8.82813 14.8828 8.59375 15.0391 8.39844 15.1953C8.32031 15.1172 8.125 15.1172 8.04688 15.1953C7.92969 15.2734 7.89063 15.3906 8.00781 15.4687C8.08594 15.5469 8.28125 15.5469 8.39844 15.4687C8.86719 15.1562 9.53125 15.1172 9.88281 15.4687C10.1563 15.7422 10.1953 16.1328 9.92188 16.4453C10 16.5234 10.0781 16.5625 10.1563 16.6406C9.96094 16.7578 9.76563 16.9141 9.57031 17.0312C9.49219 16.9531 9.41406 16.875 9.33594 16.8359C8.90625 16.9531 8.4375 16.9141 8.16406 16.6406C8.39844 16.4844 8.59375 16.3672 8.82813 16.2109C8.90625 16.2891 9.10156 16.2891 9.21875 16.2109C9.33594 16.1328 9.33594 16.0156 9.25781 15.9375C9.17969 15.8594 9.02344 15.8594 8.90625 15.9375C8.63281 16.1328 8.28125 16.2109 7.96875 16.1719C7.73438 16.1328 7.53906 16.0547 7.38281 15.9375C7.10938 15.6641 7.10937 15.3125 7.34375 15C7.26563 14.9609 7.22656 14.8828 7.14844 14.8047C7.34375 14.6875 7.53906 14.5312 7.73438 14.4141C7.69531 14.4531 7.77344 14.4922 7.8125 14.5703Z" fill="#699635"/>
<path d="M16.875 6.21094C17.2266 5.97656 17.6563 5.97656 17.9297 6.25L17.4609 6.83594C17.3828 6.75781 17.2266 6.75781 17.1484 6.875C17.0703 6.99219 17.0703 7.14844 17.1484 7.22656C17.2266 7.30469 17.3828 7.30469 17.4609 7.1875C17.8125 6.75781 18.3984 6.67969 18.75 6.99219C19.0234 7.26562 19.1016 7.69531 18.9453 8.08594C19.0234 8.16406 19.1016 8.20312 19.1797 8.28125C19.0234 8.47656 18.9063 8.63281 18.75 8.82812C18.6719 8.75 18.5938 8.67187 18.5156 8.63281C18.1641 8.82812 17.7734 8.82812 17.5 8.55469C17.6562 8.35937 17.8516 8.16406 18.0078 7.96875C18.0859 8.04687 18.2422 8.04687 18.3203 7.92969C18.3984 7.8125 18.3984 7.65625 18.3203 7.57812C18.2422 7.5 18.0859 7.5 18.0078 7.61719C17.8125 7.85156 17.5 8.00781 17.2266 8.00781C17.0312 8.00781 16.8359 7.92969 16.6797 7.8125C16.4063 7.53906 16.3281 7.14844 16.4844 6.75781C16.4063 6.71875 16.3672 6.64062 16.2891 6.5625C16.4453 6.40625 16.6016 6.21094 16.7187 6.01562C16.7187 6.09375 16.7969 6.13281 16.875 6.21094Z" fill="#699635"/>
<path d="M15.7031 13.867C14.4531 14.9998 12.3437 14.9608 11.1328 13.867C9.92186 12.7342 9.99999 10.9764 11.25 9.84358C12.5 8.71077 14.4531 8.59358 15.664 9.72639C16.914 10.8201 16.9531 12.7342 15.7031 13.867Z" fill="#699635"/>
<path d="M8.51562 9.57031L15.8984 16.3281C16.7578 15.625 17.5391 14.8828 18.3203 14.1016L10.9766 7.34375C10.1953 8.08594 9.375 8.82813 8.51562 9.57031Z" fill="#FFDD7D"/>
<path d="M15.9375 19.2969C16.7578 18.6719 17.5781 18.0078 18.3594 17.3438V14.0625C17.5781 14.8437 16.7578 15.5859 15.9375 16.2891V19.2969Z" fill="#DBB471"/>
</g>
<defs>
<clipPath id="clip0_1328_8162">
<rect width="25" height="25" fill="white"/>
</clipPath>
</defs>
</svg>
