<svg width="12" height="14" viewBox="0 0 12 14" fill="none" xmlns="http://www.w3.org/2000/svg">
<path d="M1.4946 2.58946V9.79675C1.49449 10.5099 1.76563 11.1963 2.25301 11.7169C2.7404 12.2374 3.40754 12.5531 4.11911 12.5999L4.30336 12.6055H9.26252C9.14637 12.934 8.93123 13.2185 8.64673 13.4197C8.36222 13.6209 8.02234 13.729 7.67388 13.729H3.74161C2.84769 13.729 1.99039 13.3739 1.3583 12.7418C0.726201 12.1097 0.371094 11.2524 0.371094 10.3585V4.17922C0.370911 3.83057 0.478869 3.49044 0.68009 3.20571C0.88131 2.92098 1.16589 2.70568 1.4946 2.58946ZM9.92089 0.246948C10.3679 0.246948 10.7965 0.424502 11.1126 0.740549C11.4286 1.0566 11.6062 1.48525 11.6062 1.93221V9.79675C11.6062 10.2437 11.4286 10.6724 11.1126 10.9884C10.7965 11.3045 10.3679 11.482 9.92089 11.482H4.30336C3.85641 11.482 3.42775 11.3045 3.11171 10.9884C2.79566 10.6724 2.61811 10.2437 2.61811 9.79675V1.93221C2.61811 1.48525 2.79566 1.0566 3.11171 0.740549C3.42775 0.424502 3.85641 0.246948 4.30336 0.246948H9.92089ZM9.92089 1.37045H4.30336C4.15438 1.37045 4.01149 1.42964 3.90615 1.53499C3.8008 1.64034 3.74161 1.78322 3.74161 1.93221V9.79675C3.74161 9.94573 3.8008 10.0886 3.90615 10.194C4.01149 10.2993 4.15438 10.3585 4.30336 10.3585H9.92089C10.0699 10.3585 10.2128 10.2993 10.3181 10.194C10.4235 10.0886 10.4826 9.94573 10.4826 9.79675V1.93221C10.4826 1.78322 10.4235 1.64034 10.3181 1.53499C10.2128 1.42964 10.0699 1.37045 9.92089 1.37045Z" fill="white"/>
</svg>
