<svg width="375" height="262" viewBox="0 0 375 262" fill="none" xmlns="http://www.w3.org/2000/svg">
<g filter="url(#filter0_d_1328_7967)">
<path d="M359.377 42.5475V218.818C359.377 230.16 350.171 239.366 338.829 239.366H36.5475C25.2057 239.366 16 230.16 16 218.818V42.5475C16 31.2057 25.2057 22 36.5475 22H338.84C342.898 22 346.692 23.18 349.866 25.2245C355.583 28.8559 359.377 35.2643 359.377 42.5475Z" fill="url(#paint0_linear_1328_7967)"/>
<path d="M359.377 42.5475V176.391C327.081 188.638 290.675 184.508 281.835 168.955C275.356 157.552 288.569 148.662 284.897 127.626C283.148 117.658 278.56 110.375 272.019 103.498C263.261 94.2519 250.984 85.7582 237.445 72.5143C228.737 64.0003 207.397 43.1273 195.76 22H338.829C342.888 22 346.682 23.18 349.866 25.2347C355.593 28.8559 359.377 35.2541 359.377 42.5475Z" fill="url(#paint1_linear_1328_7967)"/>
<path d="M359.377 88.9422V218.819C359.377 230.16 350.181 239.356 338.84 239.356H36.5476C25.2058 239.356 16.0103 230.16 16.0103 218.819V119.092C21.9304 113.233 28.8575 107.75 36.9239 103.132C61.5199 89.0236 85.2919 89.9696 131.829 92.421C187.897 95.3709 191.844 104.973 231.321 106.194C247.566 106.703 260.79 105.502 272.02 103.498C309.87 96.6526 324.863 80.3672 355.308 87.8233C356.661 88.1589 358.014 88.5251 359.377 88.9422Z" fill="url(#paint2_linear_1328_7967)"/>
<path d="M121.779 22C116.184 76.6136 71.3968 119.621 16 122.439V42.5475C16 31.2057 25.2057 22 36.5475 22H121.779Z" fill="url(#paint3_linear_1328_7967)"/>
<path opacity="0.33" d="M270.891 239.356H126.458L188.853 176.96C194.255 171.569 203.084 171.569 208.485 176.96L270.891 239.356Z" fill="url(#paint4_linear_1328_7967)"/>
<path opacity="0.27" d="M359.377 216.408V218.809C359.377 230.15 350.171 239.356 338.829 239.356H36.5475C25.2057 239.356 16 230.15 16 218.809V137.982C21.6963 134.95 28.2776 132.641 35.6523 131.828C52.7413 129.966 66.1481 137.086 81.8943 145.702C112.095 162.232 116.845 175.303 133.924 186.166C166.78 207.07 193.776 187.092 249.539 188.476C291.55 189.533 336.164 202.35 359.377 216.408Z" fill="url(#paint5_linear_1328_7967)"/>
<path opacity="0.53" d="M359.377 42.5475V218.818C359.377 230.16 350.171 239.366 338.829 239.366H36.5475C25.2057 239.366 16 230.16 16 218.818V42.5475C16 31.2057 25.2057 22 36.5475 22H338.84C342.898 22 346.692 23.18 349.866 25.2245C355.583 28.8559 359.377 35.2643 359.377 42.5475Z" fill="url(#paint6_linear_1328_7967)"/>
<path d="M52.1205 57.8262H45.3459V62.7902H51.8357V64.7127H45.3459V71.2024H43.3115V55.8936H52.1205V57.8262Z" fill="white"/>
<path d="M55.3553 58.2841C54.9891 58.2841 54.684 58.162 54.4398 57.9077C54.1957 57.6636 54.0635 57.3584 54.0635 57.0126C54.0635 56.6667 54.1855 56.3615 54.4398 56.1072C54.684 55.8529 54.9891 55.7207 55.3553 55.7207C55.7012 55.7207 56.0063 55.8529 56.2505 56.1072C56.4946 56.3615 56.6268 56.6667 56.6268 57.0126C56.6268 57.3584 56.5048 57.6636 56.2505 57.9077C56.0063 58.1518 55.7113 58.2841 55.3553 58.2841ZM54.3992 71.2025V60.2676H56.3013V71.2025H54.3992Z" fill="white"/>
<path d="M64.6524 59.9829C65.9341 59.9829 66.9614 60.3898 67.7345 61.1934C68.5076 62.0071 68.8941 63.0955 68.8941 64.4789V71.1925H66.992V64.5908C66.992 63.7059 66.7478 63.0142 66.2697 62.5259C65.7917 62.0377 65.1203 61.7935 64.276 61.7935C63.33 61.7935 62.5671 62.0885 61.9772 62.6785C61.3872 63.2685 61.1024 64.1738 61.1024 65.4046V71.1925H59.2002V60.2677H61.1024V61.8444C61.8754 60.6034 63.0656 59.9829 64.6524 59.9829Z" fill="white"/>
<path d="M80.5819 60.2673H82.484V71.2022H80.5819V69.3204C79.6359 70.7648 78.2525 71.4871 76.452 71.4871C74.9262 71.4871 73.614 70.9276 72.5358 69.8188C71.4576 68.6999 70.9185 67.347 70.9185 65.7399C70.9185 64.1327 71.4576 62.7798 72.5358 61.6609C73.614 60.542 74.9161 59.9927 76.452 59.9927C78.2627 59.9927 79.6359 60.7149 80.5819 62.1593V60.2673ZM76.6962 69.6459C77.8049 69.6459 78.7306 69.2696 79.4731 68.5168C80.2157 67.7641 80.592 66.8384 80.592 65.7297C80.592 64.6209 80.2157 63.6953 79.4731 62.9426C78.7306 62.1898 77.8049 61.8135 76.6962 61.8135C75.5976 61.8135 74.6821 62.1898 73.9395 62.9426C73.197 63.6953 72.8206 64.6209 72.8206 65.7297C72.8206 66.8384 73.197 67.7641 73.9395 68.5168C74.6821 69.2696 75.5976 69.6459 76.6962 69.6459Z" fill="white"/>
<path d="M90.5099 71.4871C88.862 71.4871 87.4888 70.9378 86.4004 69.8392C85.3018 68.7406 84.7627 67.3776 84.7627 65.7399C84.7627 64.1022 85.312 62.7391 86.4004 61.6405C87.4888 60.542 88.862 59.9927 90.5099 59.9927C91.5881 59.9927 92.5545 60.247 93.4191 60.7657C94.2837 61.2845 94.9245 61.9762 95.3416 62.851L93.7446 63.7665C93.4699 63.1867 93.0427 62.7188 92.4629 62.3628C91.8831 62.0067 91.2321 61.8338 90.5099 61.8338C89.4113 61.8338 88.506 62.2102 87.7634 62.9527C87.0209 63.6953 86.6649 64.6209 86.6649 65.7297C86.6649 66.8181 87.0311 67.7438 87.7634 68.4863C88.4958 69.2289 89.4113 69.6052 90.5099 69.6052C91.2423 69.6052 91.8933 69.4323 92.4731 69.0865C93.0529 68.7406 93.5005 68.2829 93.8056 67.7031L95.423 68.6389C94.9551 69.5035 94.2837 70.185 93.4089 70.7038C92.5443 71.2226 91.5678 71.4871 90.5099 71.4871Z" fill="white"/>
<path d="M98.2709 58.2841C97.9047 58.2841 97.5995 58.162 97.3554 57.9077C97.1112 57.6636 96.979 57.3584 96.979 57.0126C96.979 56.6667 97.1011 56.3615 97.3554 56.1072C97.5995 55.8529 97.9047 55.7207 98.2709 55.7207C98.6167 55.7207 98.9219 55.8529 99.166 56.1072C99.4101 56.3615 99.5424 56.6667 99.5424 57.0126C99.5424 57.3584 99.4203 57.6636 99.166 57.9077C98.9117 58.1518 98.6167 58.2841 98.2709 58.2841ZM97.3045 71.2025V60.2676H99.2067V71.2025H97.3045Z" fill="white"/>
<path d="M50.8082 113.935V115.664L48.3466 115.552L49.7808 117.526L48.2347 118.451L47.014 116.234L45.7934 118.451L44.2778 117.526L45.6815 115.552L43.2402 115.664V113.935L45.6815 114.067L44.2778 112.063L45.7934 111.138L47.014 113.355L48.2347 111.138L49.7808 112.063L48.3466 114.067L50.8082 113.935Z" fill="white"/>
<path d="M63.503 113.935V115.664L61.0414 115.552L62.4757 117.526L60.9295 118.451L59.7089 116.234L58.4882 118.451L56.9726 117.526L58.3763 115.552L55.9351 115.664V113.935L58.3763 114.067L56.9726 112.063L58.4882 111.138L59.7089 113.355L60.9295 111.138L62.4757 112.063L61.0414 114.067L63.503 113.935Z" fill="white"/>
<path d="M76.2076 113.935V115.664L73.746 115.552L75.1803 117.526L73.6341 118.451L72.4135 116.234L71.1928 118.451L69.6772 117.526L71.0809 115.552L68.6396 115.664V113.935L71.0809 114.067L69.6772 112.063L71.1928 111.138L72.4135 113.355L73.6341 111.138L75.1803 112.063L73.746 114.067L76.2076 113.935Z" fill="white"/>
<path d="M88.9127 113.935V115.664L86.4511 115.552L87.8853 117.526L86.3392 118.451L85.1186 116.234L83.8979 118.451L82.3823 117.526L83.786 115.552L81.3447 115.664V113.935L83.786 114.067L82.3823 112.063L83.8979 111.138L85.1186 113.355L86.3392 111.138L87.8853 112.063L86.4511 114.067L88.9127 113.935Z" fill="white"/>
<path d="M110.416 113.935V115.664L107.954 115.552L109.389 117.526L107.843 118.451L106.622 116.234L105.401 118.451L103.886 117.526L105.289 115.552L102.848 115.664V113.935L105.289 114.067L103.886 112.063L105.401 111.138L106.622 113.355L107.843 111.138L109.389 112.063L107.954 114.067L110.416 113.935Z" fill="white"/>
<path d="M123.121 113.935V115.664L120.66 115.552L122.094 117.526L120.548 118.451L119.327 116.234L118.106 118.451L116.591 117.526L117.995 115.552L115.553 115.664V113.935L117.995 114.067L116.591 112.063L118.106 111.138L119.327 113.355L120.548 111.138L122.094 112.063L120.66 114.067L123.121 113.935Z" fill="white"/>
<path d="M135.826 113.935V115.664L133.364 115.552L134.798 117.526L133.252 118.451L132.032 116.234L130.811 118.451L129.295 117.526L130.699 115.552L128.258 115.664V113.935L130.699 114.067L129.295 112.063L130.811 111.138L132.032 113.355L133.252 111.138L134.798 112.063L133.364 114.067L135.826 113.935Z" fill="white"/>
<path d="M148.521 113.935V115.664L146.059 115.552L147.493 117.526L145.947 118.451L144.726 116.234L143.506 118.451L141.99 117.526L143.394 115.552L140.953 115.664V113.935L143.394 114.067L141.99 112.063L143.506 111.138L144.726 113.355L145.947 111.138L147.493 112.063L146.059 114.067L148.521 113.935Z" fill="white"/>
<path d="M170.034 113.935V115.664L167.573 115.552L169.007 117.526L167.461 118.451L166.24 116.234L165.019 118.451L163.504 117.526L164.908 115.552L162.466 115.664V113.935L164.908 114.067L163.504 112.063L165.019 111.138L166.24 113.355L167.461 111.138L169.007 112.063L167.573 114.067L170.034 113.935Z" fill="white"/>
<path d="M182.729 113.935V115.664L180.267 115.552L181.702 117.526L180.156 118.451L178.935 116.234L177.714 118.451L176.199 117.526L177.602 115.552L175.161 115.664V113.935L177.602 114.067L176.199 112.063L177.714 111.138L178.935 113.355L180.156 111.138L181.702 112.063L180.267 114.067L182.729 113.935Z" fill="white"/>
<path d="M195.434 113.935V115.664L192.973 115.552L194.407 117.526L192.861 118.451L191.64 116.234L190.419 118.451L188.904 117.526L190.307 115.552L187.866 115.664V113.935L190.307 114.067L188.904 112.063L190.419 111.138L191.64 113.355L192.861 111.138L194.407 112.063L192.973 114.067L195.434 113.935Z" fill="white"/>
<path d="M208.139 113.935V115.664L205.677 115.552L207.111 117.526L205.565 118.451L204.345 116.234L203.124 118.451L201.608 117.526L203.012 115.552L200.571 115.664V113.935L203.012 114.067L201.608 112.063L203.124 111.138L204.345 113.355L205.565 111.138L207.111 112.063L205.677 114.067L208.139 113.935Z" fill="white"/>
<path d="M221.495 130.454V128.4L228.188 121.574C229.978 119.784 230.873 118.248 230.873 116.966C230.873 115.898 230.548 115.074 229.897 114.474C229.246 113.874 228.452 113.579 227.516 113.579C225.726 113.579 224.424 114.423 223.621 116.122L221.505 114.881C222.095 113.65 222.929 112.725 223.987 112.094C225.045 111.463 226.214 111.148 227.496 111.148C229.083 111.148 230.466 111.677 231.636 112.714C232.806 113.762 233.396 115.166 233.396 116.936C233.396 118.848 232.267 120.933 230.009 123.192L225.177 128.013H233.752V130.454H221.495Z" fill="white"/>
<path d="M245.104 119.265C246.548 119.54 247.738 120.16 248.654 121.137C249.579 122.113 250.037 123.354 250.037 124.849C250.037 126.691 249.407 128.145 248.145 129.213C246.884 130.281 245.348 130.81 243.537 130.81C242.093 130.81 240.811 130.485 239.692 129.824C238.573 129.162 237.78 128.216 237.312 126.965L239.428 125.714C239.987 127.464 241.36 128.338 243.547 128.338C244.717 128.338 245.673 128.033 246.416 127.413C247.159 126.802 247.525 125.938 247.525 124.839C247.525 123.741 247.159 122.876 246.416 122.256C245.673 121.635 244.717 121.32 243.547 121.32H242.896L241.889 119.774L246.274 113.843H237.851V111.483H249.223L249.213 113.711L245.104 119.265Z" fill="white"/>
<path d="M268.754 124.493V126.853H266.455V130.454H263.932V126.853H254.259V124.493L261.054 111.494H263.759L256.965 124.493H263.922V119.133H266.445V124.493H268.754Z" fill="white"/>
<path d="M278.661 118.889C280.451 118.889 281.967 119.418 283.198 120.476C284.439 121.533 285.059 122.988 285.059 124.85C285.059 126.691 284.429 128.145 283.167 129.213C281.906 130.281 280.37 130.81 278.559 130.81C277.115 130.81 275.823 130.464 274.684 129.773C273.545 129.081 272.751 128.074 272.304 126.752L274.44 125.531C274.694 126.457 275.182 127.148 275.905 127.626C276.627 128.105 277.512 128.349 278.559 128.349C279.75 128.349 280.716 128.044 281.459 127.423C282.201 126.803 282.567 125.948 282.567 124.85C282.567 123.751 282.201 122.886 281.459 122.266C280.716 121.645 279.77 121.33 278.61 121.33H273.25L273.931 111.494H284.327V113.854H276.23L275.894 118.889H278.661Z" fill="white"/>
<path d="M44.8476 182.25C43.7389 182.25 42.8234 181.884 42.1012 181.152C41.379 180.419 41.0229 179.524 41.0229 178.456C41.0229 177.388 41.379 176.493 42.1012 175.761C42.8234 175.028 43.7389 174.662 44.8476 174.662C45.519 174.662 46.1293 174.825 46.6888 175.14C47.2482 175.466 47.6856 175.893 48.001 176.432L47.1567 176.92C46.9431 176.513 46.6379 176.198 46.2208 175.954C45.8038 175.71 45.3461 175.598 44.8476 175.598C44.0033 175.598 43.3218 175.873 42.7827 176.412C42.2538 176.951 41.9791 177.632 41.9791 178.446C41.9791 179.25 42.2436 179.931 42.7827 180.47C43.3117 181.009 44.0033 181.284 44.8476 181.284C45.3461 181.284 45.8038 181.162 46.2208 180.928C46.6379 180.684 46.9431 180.369 47.1567 179.972L48.001 180.45C47.6958 180.989 47.2584 181.427 46.6989 181.752C46.1395 182.078 45.519 182.25 44.8476 182.25Z" fill="white"/>
<path d="M53.311 176.89H54.2163V182.118H53.311V181.223C52.8532 181.915 52.2022 182.261 51.3376 182.261C50.6052 182.261 49.9847 181.996 49.4659 181.457C48.9472 180.928 48.6929 180.277 48.6929 179.504C48.6929 178.741 48.9472 178.09 49.4659 177.551C49.9847 177.022 50.6052 176.748 51.3376 176.748C52.2022 176.748 52.8634 177.093 53.311 177.785V176.89ZM51.4495 181.366C51.9784 181.366 52.426 181.183 52.7719 180.827C53.1279 180.471 53.3008 180.023 53.3008 179.494C53.3008 178.965 53.1279 178.517 52.7719 178.161C52.4158 177.805 51.9784 177.622 51.4495 177.622C50.9307 177.622 50.4831 177.805 50.1373 178.161C49.7813 178.517 49.6084 178.965 49.6084 179.494C49.6084 180.023 49.7813 180.471 50.1373 180.827C50.4933 181.193 50.9307 181.366 51.4495 181.366Z" fill="white"/>
<path d="M56.5049 177.765C56.7999 177.114 57.3492 176.788 58.1324 176.788V177.734C57.6849 177.714 57.3085 177.836 56.983 178.09C56.6677 178.344 56.5049 178.761 56.5049 179.331V182.098H55.5996V176.869H56.5049V177.765Z" fill="white"/>
<path d="M63.0659 174.794H63.9712V182.108H63.0659V181.213C62.6081 181.905 61.9571 182.251 61.0925 182.251C60.3601 182.251 59.7396 181.986 59.2208 181.447C58.702 180.918 58.4478 180.267 58.4478 179.494C58.4478 178.731 58.702 178.08 59.2208 177.541C59.7396 177.012 60.3601 176.737 61.0925 176.737C61.9571 176.737 62.6183 177.083 63.0659 177.775V174.794ZM61.2145 181.366C61.7435 181.366 62.1911 181.182 62.5369 180.826C62.8929 180.47 63.0659 180.023 63.0659 179.494C63.0659 178.965 62.8929 178.517 62.5369 178.161C62.1809 177.805 61.7435 177.622 61.2145 177.622C60.6958 177.622 60.2482 177.805 59.9024 178.161C59.5463 178.517 59.3734 178.965 59.3734 179.494C59.3734 180.023 59.5463 180.47 59.9024 180.826C60.2482 181.193 60.6856 181.366 61.2145 181.366Z" fill="white"/>
<path d="M72.5866 174.794H73.553V182.108H72.5866V178.812H69.0366V182.108H68.0601V174.794H69.0366V177.897H72.5866V174.794Z" fill="white"/>
<path d="M79.4323 181.447C78.8932 181.976 78.2422 182.24 77.4793 182.24C76.7164 182.24 76.0654 181.976 75.5262 181.447C74.9973 180.918 74.7227 180.267 74.7227 179.494C74.7227 178.721 74.9871 178.07 75.5262 177.541C76.0552 177.012 76.7062 176.748 77.4793 176.748C78.2523 176.748 78.8932 177.012 79.4323 177.541C79.9714 178.07 80.2359 178.721 80.2359 179.494C80.2359 180.267 79.9714 180.918 79.4323 181.447ZM77.4793 181.355C77.998 181.355 78.4456 181.183 78.7915 180.827C79.1475 180.471 79.3204 180.033 79.3204 179.504C79.3204 178.975 79.1475 178.528 78.7915 178.182C78.4354 177.826 77.998 177.653 77.4793 177.653C76.9605 177.653 76.5333 177.826 76.1773 178.182C75.8212 178.538 75.6483 178.985 75.6483 179.504C75.6483 180.033 75.8212 180.481 76.1773 180.827C76.5333 181.183 76.9605 181.355 77.4793 181.355Z" fill="white"/>
<path d="M81.3145 182.108V174.479H82.2198V182.108H81.3145Z" fill="white"/>
<path d="M87.9365 174.794H88.8418V182.108H87.9365V181.213C87.4787 181.905 86.8277 182.251 85.9631 182.251C85.2307 182.251 84.6102 181.986 84.0914 181.447C83.5727 180.918 83.3184 180.267 83.3184 179.494C83.3184 178.731 83.5727 178.08 84.0914 177.541C84.6102 177.012 85.2307 176.737 85.9631 176.737C86.8277 176.737 87.4889 177.083 87.9365 177.775V174.794ZM86.075 181.366C86.6039 181.366 87.0515 181.182 87.3973 180.826C87.7534 180.47 87.9263 180.023 87.9263 179.494C87.9263 178.965 87.7534 178.517 87.3973 178.161C87.0413 177.805 86.6039 177.622 86.075 177.622C85.5562 177.622 85.1086 177.805 84.7628 178.161C84.4068 178.517 84.2338 178.965 84.2338 179.494C84.2338 180.023 84.4068 180.47 84.7628 180.826C85.1188 181.193 85.5562 181.366 86.075 181.366Z" fill="white"/>
<path d="M90.8661 179.911C90.9576 180.379 91.1712 180.745 91.5069 180.999C91.8426 181.254 92.2596 181.386 92.7581 181.386C93.4498 181.386 93.9482 181.132 94.2635 180.623L95.0366 181.06C94.528 181.844 93.7651 182.24 92.7377 182.24C91.9036 182.24 91.2323 181.986 90.7135 181.457C90.1947 180.938 89.9404 180.277 89.9404 179.484C89.9404 178.701 90.1947 178.039 90.7033 177.521C91.2119 177.002 91.8731 176.737 92.6767 176.737C93.4396 176.737 94.0703 177.012 94.5484 177.551C95.0366 178.09 95.2706 178.741 95.2706 179.504C95.2706 179.636 95.2604 179.769 95.2401 179.911H90.8661ZM92.6767 177.602C92.1884 177.602 91.7816 177.744 91.4662 178.019C91.1509 178.294 90.9475 178.66 90.8763 179.118H94.3653C94.2839 178.619 94.0906 178.243 93.7753 177.988C93.4498 177.734 93.0938 177.602 92.6767 177.602Z" fill="white"/>
<path d="M97.2232 177.765C97.5182 177.114 98.0675 176.788 98.8507 176.788V177.734C98.4031 177.714 98.0268 177.836 97.7013 178.09C97.3859 178.344 97.2232 178.761 97.2232 179.331V182.098H96.3179V176.869H97.2232V177.765Z" fill="white"/>
<path d="M104.954 176.748C105.565 176.748 106.063 176.941 106.429 177.327C106.795 177.714 106.978 178.243 106.978 178.904V182.108H106.073V178.955C106.073 178.528 105.961 178.202 105.727 177.968C105.493 177.734 105.178 177.622 104.781 177.622C104.324 177.622 103.957 177.765 103.683 178.05C103.408 178.334 103.266 178.762 103.266 179.352V182.118H102.36V176.89H103.266V177.643C103.632 177.043 104.201 176.748 104.954 176.748Z" fill="white"/>
<path d="M112.573 176.89H113.478V182.118H112.573V181.223C112.115 181.915 111.464 182.261 110.6 182.261C109.867 182.261 109.247 181.996 108.728 181.457C108.209 180.928 107.955 180.277 107.955 179.504C107.955 178.741 108.209 178.09 108.728 177.551C109.247 177.022 109.867 176.748 110.6 176.748C111.464 176.748 112.126 177.093 112.573 177.785V176.89ZM110.712 181.366C111.241 181.366 111.688 181.183 112.034 180.827C112.39 180.471 112.563 180.023 112.563 179.494C112.563 178.965 112.39 178.517 112.034 178.161C111.678 177.805 111.241 177.622 110.712 177.622C110.193 177.622 109.745 177.805 109.4 178.161C109.043 178.517 108.871 178.965 108.871 179.494C108.871 180.023 109.043 180.471 109.4 180.827C109.756 181.193 110.193 181.366 110.712 181.366Z" fill="white"/>
<path d="M120.507 176.748C121.097 176.748 121.565 176.941 121.931 177.317C122.298 177.694 122.471 178.212 122.471 178.863V182.108H121.565V178.894C121.565 178.487 121.464 178.172 121.25 177.958C121.036 177.734 120.762 177.622 120.416 177.622C120.029 177.622 119.714 177.755 119.48 178.009C119.246 178.263 119.134 178.67 119.134 179.209V182.118H118.229V178.904C118.229 178.497 118.127 178.182 117.934 177.968C117.73 177.744 117.466 177.633 117.12 177.633C116.734 177.633 116.418 177.765 116.164 178.029C115.91 178.294 115.777 178.69 115.777 179.219V182.129H114.872V176.9H115.777V177.602C116.133 177.043 116.652 176.768 117.334 176.768C118.036 176.768 118.544 177.063 118.87 177.653C119.226 177.043 119.775 176.748 120.507 176.748Z" fill="white"/>
<path d="M124.372 179.911C124.464 180.379 124.678 180.745 125.013 180.999C125.349 181.254 125.766 181.386 126.264 181.386C126.956 181.386 127.455 181.132 127.77 180.623L128.543 181.06C128.034 181.844 127.271 182.24 126.244 182.24C125.41 182.24 124.739 181.986 124.22 181.457C123.701 180.938 123.447 180.277 123.447 179.484C123.447 178.701 123.701 178.039 124.21 177.521C124.718 177.002 125.379 176.737 126.183 176.737C126.946 176.737 127.577 177.012 128.055 177.551C128.543 178.09 128.777 178.741 128.777 179.504C128.777 179.636 128.767 179.769 128.746 179.911H124.372ZM126.183 177.602C125.695 177.602 125.288 177.744 124.973 178.019C124.657 178.294 124.454 178.66 124.383 179.118H127.861C127.78 178.619 127.587 178.243 127.271 177.988C126.966 177.734 126.6 177.602 126.183 177.602Z" fill="white"/>
<path d="M48.1432 192.616H50.3506V203.805H48.6722L43.8812 196.959V203.805H41.6738V192.616H43.3522L48.1432 199.431V192.616Z" fill="white"/>
<path d="M59.1391 202.808C58.3152 203.622 57.3183 204.029 56.1384 204.029C54.9584 204.029 53.9514 203.622 53.1376 202.808C52.3239 201.994 51.917 200.997 51.917 199.807C51.917 198.627 52.3239 197.631 53.1376 196.807C53.9514 195.993 54.9483 195.586 56.1384 195.586C57.3183 195.586 58.3254 195.993 59.1391 196.807C59.9631 197.62 60.3699 198.617 60.3699 199.807C60.3699 200.997 59.9529 201.994 59.1391 202.808ZM54.5821 201.394C54.9889 201.811 55.5077 202.015 56.1282 202.015C56.7487 202.015 57.2675 201.811 57.6744 201.394C58.0914 200.977 58.2949 200.448 58.2949 199.807C58.2949 199.166 58.0914 198.638 57.6744 198.231C57.2573 197.814 56.7385 197.61 56.1282 197.61C55.5179 197.61 54.9991 197.814 54.5821 198.231C54.1752 198.648 53.9717 199.177 53.9717 199.807C53.9717 200.448 54.1752 200.977 54.5821 201.394Z" fill="white"/>
<path d="M70.6539 195.596C71.5694 195.596 72.3018 195.891 72.8511 196.491C73.4004 197.091 73.675 197.885 73.675 198.892V203.815H71.6101V199.034C71.6101 198.556 71.488 198.18 71.2541 197.915C71.0201 197.651 70.6845 197.519 70.2674 197.519C69.7995 197.519 69.4333 197.671 69.1688 197.987C68.9044 198.302 68.7823 198.739 68.7823 199.329V203.825H66.7275V199.045C66.7275 198.566 66.6055 198.19 66.3715 197.926C66.1376 197.661 65.8019 197.529 65.3848 197.529C64.9271 197.529 64.5609 197.681 64.2863 197.997C64.0116 198.302 63.8794 198.75 63.8794 199.339V203.836H61.8145V195.84H63.8794V196.685C64.3575 195.973 65.1 195.617 66.0969 195.617C67.0734 195.617 67.8058 196.003 68.2737 196.766C68.8128 195.973 69.6062 195.596 70.6539 195.596Z" fill="white"/>
<path d="M81.5073 195.82H83.5722V203.815H81.5073V202.869C80.8868 203.642 80.0222 204.039 78.9033 204.039C77.8352 204.039 76.9197 203.632 76.1568 202.818C75.3939 202.005 75.0176 201.008 75.0176 199.818C75.0176 198.638 75.3939 197.641 76.1568 196.817C76.9197 196.003 77.8352 195.596 78.9033 195.596C80.0222 195.596 80.8868 195.983 81.5073 196.766V195.82ZM77.703 201.435C78.12 201.852 78.649 202.066 79.2898 202.066C79.9307 202.066 80.4596 201.852 80.8767 201.435C81.2937 201.018 81.5073 200.469 81.5073 199.807C81.5073 199.146 81.2937 198.607 80.8767 198.19C80.4596 197.773 79.9307 197.559 79.2898 197.559C78.649 197.559 78.12 197.773 77.703 198.19C77.2859 198.607 77.0825 199.156 77.0825 199.807C77.0825 200.469 77.2961 201.018 77.703 201.435Z" fill="white"/>
<path d="M89.889 195.596C90.7638 195.596 91.486 195.891 92.0557 196.471C92.6253 197.061 92.9101 197.865 92.9101 198.902V203.805H90.8452V199.156C90.8452 198.627 90.7028 198.221 90.418 197.936C90.1331 197.651 89.7466 197.509 89.2685 197.509C88.7396 197.509 88.3124 197.671 87.9869 198.007C87.6715 198.343 87.5088 198.831 87.5088 199.492V203.805H85.4438V195.81H87.5088V196.705C88.0072 195.962 88.8006 195.596 89.889 195.596Z" fill="white"/>
<path d="M109.704 192.616V203.805H107.517V196.552L104.364 201.74L104.11 201.75L100.967 196.583V203.815H98.7593V192.626H101.028L104.232 197.905L107.426 192.626H109.704V192.616Z" fill="white"/>
<path d="M117.761 195.82H119.826V203.815H117.761V202.869C117.14 203.642 116.276 204.039 115.157 204.039C114.089 204.039 113.173 203.632 112.41 202.818C111.647 202.005 111.271 201.008 111.271 199.818C111.271 198.638 111.647 197.641 112.41 196.817C113.173 196.003 114.089 195.596 115.157 195.596C116.276 195.596 117.14 195.983 117.761 196.766V195.82ZM113.956 201.435C114.373 201.852 114.902 202.066 115.543 202.066C116.184 202.066 116.713 201.852 117.13 201.435C117.547 201.018 117.761 200.469 117.761 199.807C117.761 199.146 117.547 198.607 117.13 198.19C116.713 197.773 116.184 197.559 115.543 197.559C114.902 197.559 114.373 197.773 113.956 198.19C113.539 198.607 113.336 199.156 113.336 199.807C113.336 200.469 113.539 201.018 113.956 201.435Z" fill="white"/>
<path d="M126.132 195.596C127.007 195.596 127.729 195.891 128.299 196.471C128.868 197.061 129.153 197.865 129.153 198.902V203.805H127.088V199.156C127.088 198.627 126.946 198.221 126.661 197.936C126.376 197.651 125.99 197.509 125.512 197.509C124.983 197.509 124.556 197.671 124.23 198.007C123.915 198.343 123.752 198.831 123.752 199.492V203.805H121.687V195.81H123.752V196.705C124.261 195.962 125.054 195.596 126.132 195.596Z" fill="white"/>
<path d="M133.334 201.872H136.884V203.805H130.577V202.432L133.944 197.742H130.73V195.81H136.721V197.183L133.334 201.872Z" fill="white"/>
<path d="M144.727 202.808C143.903 203.622 142.906 204.029 141.726 204.029C140.546 204.029 139.539 203.622 138.725 202.808C137.911 201.994 137.504 200.997 137.504 199.807C137.504 198.627 137.911 197.631 138.725 196.807C139.539 195.993 140.536 195.586 141.726 195.586C142.906 195.586 143.913 195.993 144.727 196.807C145.55 197.62 145.957 198.617 145.957 199.807C145.957 200.997 145.54 201.994 144.727 202.808ZM140.18 201.394C140.587 201.811 141.105 202.015 141.726 202.015C142.346 202.015 142.865 201.811 143.272 201.394C143.689 200.977 143.892 200.448 143.892 199.807C143.892 199.166 143.689 198.638 143.272 198.231C142.855 197.814 142.336 197.61 141.726 197.61C141.115 197.61 140.597 197.814 140.18 198.231C139.773 198.648 139.569 199.177 139.569 199.807C139.559 200.448 139.763 200.977 140.18 201.394Z" fill="white"/>
<path d="M154.217 202.808C153.393 203.622 152.396 204.029 151.217 204.029C150.037 204.029 149.03 203.622 148.216 202.808C147.402 201.994 146.995 200.997 146.995 199.807C146.995 198.627 147.402 197.631 148.216 196.807C149.03 195.993 150.026 195.586 151.217 195.586C152.396 195.586 153.403 195.993 154.217 196.807C155.041 197.62 155.448 198.617 155.448 199.807C155.448 200.997 155.041 201.994 154.217 202.808ZM149.67 201.394C150.077 201.811 150.596 202.015 151.217 202.015C151.837 202.015 152.356 201.811 152.763 201.394C153.18 200.977 153.383 200.448 153.383 199.807C153.383 199.166 153.18 198.638 152.763 198.231C152.346 197.814 151.827 197.61 151.217 197.61C150.606 197.61 150.087 197.814 149.67 198.231C149.263 198.648 149.06 199.177 149.06 199.807C149.06 200.448 149.263 200.977 149.67 201.394Z" fill="white"/>
<path d="M158.967 197.193C159.16 196.685 159.476 196.298 159.913 196.044C160.351 195.789 160.849 195.657 161.388 195.657V197.956C160.757 197.885 160.198 198.007 159.7 198.343C159.201 198.678 158.957 199.217 158.957 199.991V203.815H156.892V195.82H158.957V197.193H158.967Z" fill="white"/>
<path d="M266.893 181.193H270.29V182.108H265.926V174.794H270.239V175.71H266.893V177.958H269.975V178.863H266.893V181.193Z" fill="white"/>
<path d="M275.895 182.108H274.827L273.362 180.135L271.897 182.108H270.829L272.833 179.422L270.951 176.89H272.029L273.372 178.7L274.725 176.89H275.793L273.911 179.422L275.895 182.108Z" fill="white"/>
<path d="M279.628 176.748C280.361 176.748 280.981 177.012 281.5 177.551C282.019 178.08 282.273 178.731 282.273 179.504C282.273 180.267 282.019 180.918 281.5 181.457C280.981 181.986 280.361 182.261 279.628 182.261C278.764 182.261 278.102 181.915 277.655 181.223V184.214H276.75V176.9H277.655V177.795C278.102 177.093 278.764 176.748 279.628 176.748ZM279.516 181.366C280.035 181.366 280.472 181.183 280.829 180.827C281.185 180.471 281.357 180.023 281.357 179.494C281.357 178.965 281.185 178.517 280.829 178.161C280.472 177.805 280.035 177.622 279.516 177.622C278.987 177.622 278.54 177.805 278.194 178.161C277.838 178.517 277.665 178.965 277.665 179.494C277.665 180.023 277.838 180.471 278.194 180.827C278.54 181.193 278.987 181.366 279.516 181.366Z" fill="white"/>
<path d="M283.819 175.934C283.646 175.934 283.493 175.872 283.381 175.761C283.27 175.649 283.208 175.496 283.208 175.333C283.208 175.171 283.27 175.018 283.381 174.896C283.493 174.774 283.646 174.713 283.819 174.713C283.982 174.713 284.124 174.774 284.246 174.896C284.368 175.018 284.419 175.16 284.419 175.333C284.419 175.506 284.358 175.649 284.246 175.761C284.134 175.872 283.982 175.934 283.819 175.934ZM283.361 182.108V176.88H284.266V182.108H283.361Z" fill="white"/>
<path d="M286.565 177.765C286.86 177.114 287.41 176.788 288.193 176.788V177.734C287.745 177.714 287.369 177.836 287.044 178.09C286.728 178.344 286.565 178.761 286.565 179.331V182.098H285.66V176.869H286.565V177.765Z" fill="white"/>
<path d="M292.841 176.89H293.818L291.682 182.433C291.458 183.023 291.143 183.481 290.746 183.786C290.349 184.091 289.881 184.234 289.362 184.203V183.359C290.003 183.41 290.471 183.054 290.766 182.291L290.868 182.098L288.589 176.89H289.566L291.305 180.897L292.841 176.89Z" fill="white"/>
<path d="M300.135 174.794C301.132 174.794 301.956 175.15 302.617 175.852C303.278 176.554 303.603 177.429 303.603 178.446C303.603 179.473 303.278 180.338 302.617 181.04C301.956 181.752 301.132 182.098 300.135 182.098H297.287V174.784H300.135V174.794ZM300.135 181.193C300.877 181.193 301.488 180.928 301.966 180.409C302.444 179.891 302.678 179.24 302.678 178.456C302.678 177.673 302.444 177.022 301.966 176.503C301.488 175.984 300.888 175.72 300.135 175.72H298.253V181.193H300.135Z" fill="white"/>
<path d="M309.015 176.89H309.92V182.118H309.015V181.223C308.557 181.915 307.906 182.261 307.042 182.261C306.309 182.261 305.689 181.996 305.17 181.457C304.651 180.928 304.397 180.277 304.397 179.504C304.397 178.741 304.651 178.09 305.17 177.551C305.689 177.022 306.309 176.748 307.042 176.748C307.906 176.748 308.568 177.093 309.015 177.785V176.89ZM307.164 181.366C307.693 181.366 308.14 181.183 308.486 180.827C308.842 180.471 309.015 180.023 309.015 179.494C309.015 178.965 308.842 178.517 308.486 178.161C308.13 177.805 307.693 177.622 307.164 177.622C306.645 177.622 306.197 177.805 305.852 178.161C305.496 178.517 305.323 178.965 305.323 179.494C305.323 180.023 305.496 180.471 305.852 180.827C306.197 181.193 306.635 181.366 307.164 181.366Z" fill="white"/>
<path d="M314.152 177.764H312.758V180.592C312.758 180.846 312.809 181.03 312.911 181.141C313.013 181.253 313.165 181.304 313.379 181.304C313.592 181.304 313.847 181.304 314.152 181.294V182.108C313.359 182.21 312.779 182.149 312.413 181.915C312.046 181.681 311.863 181.243 311.863 180.592V177.764H310.826V176.89H311.863V175.699L312.769 175.425V176.89H314.162V177.764H314.152Z" fill="white"/>
<path d="M315.606 179.911C315.698 180.379 315.911 180.745 316.247 180.999C316.583 181.254 317 181.386 317.498 181.386C318.19 181.386 318.688 181.132 319.004 180.623L319.777 181.06C319.268 181.844 318.505 182.24 317.478 182.24C316.644 182.24 315.973 181.986 315.454 181.457C314.935 180.938 314.681 180.277 314.681 179.484C314.681 178.701 314.935 178.039 315.444 177.521C315.952 177.002 316.613 176.737 317.417 176.737C318.18 176.737 318.811 177.012 319.289 177.551C319.777 178.09 320.011 178.741 320.011 179.504C320.011 179.636 320.001 179.769 319.98 179.911H315.606ZM317.407 177.602C316.919 177.602 316.512 177.744 316.196 178.019C315.881 178.294 315.678 178.66 315.606 179.118H319.095C319.014 178.619 318.821 178.243 318.505 177.988C318.19 177.734 317.824 177.602 317.407 177.602Z" fill="white"/>
<path d="M273.352 202.431C272.599 203.489 271.531 204.018 270.168 204.018C268.805 204.018 267.747 203.489 266.984 202.431C266.231 201.374 265.845 199.97 265.845 198.21C265.845 196.45 266.221 195.047 266.984 193.989C267.737 192.931 268.805 192.402 270.168 192.402C271.531 192.402 272.589 192.931 273.352 193.989C274.104 195.047 274.491 196.45 274.491 198.21C274.491 199.97 274.115 201.374 273.352 202.431ZM268.083 201.424C268.571 202.177 269.273 202.564 270.178 202.564C271.083 202.564 271.785 202.187 272.284 201.424C272.782 200.672 273.026 199.593 273.026 198.21C273.026 196.827 272.782 195.748 272.284 194.986C271.785 194.223 271.083 193.846 270.178 193.846C269.273 193.846 268.571 194.223 268.083 194.986C267.594 195.738 267.35 196.817 267.35 198.21C267.35 199.593 267.594 200.672 268.083 201.424Z" fill="white"/>
<path d="M275.58 203.805V202.594L279.526 198.566C280.584 197.508 281.113 196.603 281.113 195.85C281.113 195.22 280.92 194.731 280.533 194.375C280.147 194.019 279.679 193.846 279.13 193.846C278.072 193.846 277.309 194.345 276.831 195.352L275.58 194.619C275.936 193.897 276.424 193.348 277.044 192.972C277.665 192.595 278.357 192.412 279.119 192.412C280.055 192.412 280.869 192.717 281.561 193.338C282.252 193.958 282.598 194.782 282.598 195.83C282.598 196.959 281.937 198.19 280.605 199.522L277.746 202.36H282.802V203.795H275.58V203.805Z" fill="white"/>
<path d="M284.866 205.381L284.032 205.402L290.43 191.039L291.265 191.019L284.866 205.381Z" fill="white"/>
<path d="M296.91 197.203C297.765 197.366 298.467 197.732 299.006 198.312C299.555 198.891 299.819 199.614 299.819 200.499C299.819 201.587 299.443 202.441 298.701 203.072C297.958 203.703 297.053 204.018 295.985 204.018C295.13 204.018 294.377 203.825 293.716 203.438C293.055 203.052 292.587 202.492 292.312 201.75L293.564 201.017C293.889 202.055 294.703 202.564 295.995 202.564C296.686 202.564 297.256 202.38 297.693 202.024C298.131 201.668 298.344 201.16 298.344 200.509C298.344 199.858 298.131 199.349 297.693 198.983C297.256 198.617 296.686 198.434 295.995 198.434H295.608L295.018 197.518L297.612 194.019H292.638V192.625H299.352L299.341 193.928L296.91 197.203Z" fill="white"/>
<path d="M308.628 202.431C307.875 203.489 306.807 204.018 305.444 204.018C304.081 204.018 303.023 203.489 302.26 202.431C301.508 201.374 301.121 199.97 301.121 198.21C301.121 196.45 301.497 195.047 302.26 193.989C303.013 192.931 304.081 192.402 305.444 192.402C306.807 192.402 307.865 192.931 308.628 193.989C309.381 195.047 309.767 196.45 309.767 198.21C309.767 199.97 309.391 201.374 308.628 202.431ZM303.359 201.424C303.847 202.177 304.549 202.564 305.454 202.564C306.36 202.564 307.062 202.187 307.56 201.424C308.058 200.672 308.303 199.593 308.303 198.21C308.303 196.827 308.058 195.748 307.56 194.986C307.062 194.223 306.36 193.846 305.454 193.846C304.549 193.846 303.847 194.223 303.359 194.986C302.871 195.738 302.627 196.817 302.627 198.21C302.616 199.593 302.861 200.672 303.359 201.424Z" fill="white"/>
<path d="M331.19 55.4458H327.792C326.734 55.4458 325.951 55.7408 325.483 56.7783L318.953 71.5888H323.571C323.571 71.5888 324.334 69.5951 324.496 69.1679H330.132C330.264 69.7375 330.661 71.5888 330.661 71.5888H334.75L331.19 55.4458ZM325.768 65.8619C326.134 64.9363 327.507 61.3456 327.507 61.3456C327.507 61.3354 327.884 60.3996 328.097 59.8096L328.392 61.2032C328.392 61.2032 329.237 65.0482 329.41 65.8721H325.768V65.8619Z" fill="white"/>
<path d="M313.084 59.9216C313.074 60.6845 314.02 61.1829 315.566 61.9254C318.099 63.085 319.279 64.4685 319.258 66.3198C319.228 69.6664 316.227 71.833 311.588 71.833C309.615 71.8126 307.713 71.4159 306.686 70.9684L307.306 67.3471L307.876 67.6116C309.31 68.2118 310.256 68.4559 312.016 68.4559C313.277 68.4559 314.63 67.9574 314.64 66.8792C314.65 66.1672 314.07 65.6586 312.362 64.8652C310.683 64.0921 308.476 62.8002 308.496 60.481C308.517 57.348 311.588 55.1509 315.932 55.1509C317.641 55.1509 319.014 55.5069 319.879 55.8324L319.279 59.3316L318.882 59.1485C318.068 58.823 317.02 58.5076 315.586 58.528C313.887 58.528 313.084 59.2502 313.084 59.9216Z" fill="white"/>
<path d="M306.686 55.4355L303.929 71.5785H299.535L302.281 55.4355H306.686Z" fill="white"/>
<path d="M290.878 63.7464C289.413 60.0133 285.904 56.9108 280.584 55.619L280.645 55.2935H287.47C288.396 55.324 289.139 55.619 289.393 56.6056L290.878 63.7464Z" fill="white"/>
<path d="M300.511 55.4458L293.573 71.5685H288.925L284.988 58.1109C287.816 59.9215 290.227 62.8002 291.081 64.8041L291.549 66.4723L295.862 55.456H300.511V55.4458Z" fill="white"/>
</g>
<defs>
<filter id="filter0_d_1328_7967" x="-6" y="0" width="387.377" height="261.366" filterUnits="userSpaceOnUse" color-interpolation-filters="sRGB">
<feFlood flood-opacity="0" result="BackgroundImageFix"/>
<feColorMatrix in="SourceAlpha" type="matrix" values="0 0 0 0 0 0 0 0 0 0 0 0 0 0 0 0 0 0 127 0" result="hardAlpha"/>
<feOffset/>
<feGaussianBlur stdDeviation="11"/>
<feComposite in2="hardAlpha" operator="out"/>
<feColorMatrix type="matrix" values="0 0 0 0 0 0 0 0 0 0 0 0 0 0 0 0 0 0 0.18 0"/>
<feBlend mode="normal" in2="BackgroundImageFix" result="effect1_dropShadow_1328_7967"/>
<feBlend mode="normal" in="SourceGraphic" in2="effect1_dropShadow_1328_7967" result="shape"/>
</filter>
<linearGradient id="paint0_linear_1328_7967" x1="53.5269" y1="264.845" x2="321.853" y2="-3.48133" gradientUnits="userSpaceOnUse">
<stop stop-color="#1B1464"/>
<stop offset="1" stop-color="#83EFFF"/>
</linearGradient>
<linearGradient id="paint1_linear_1328_7967" x1="244.378" y1="132.381" x2="351.047" y2="25.7127" gradientUnits="userSpaceOnUse">
<stop stop-color="#83EFFF"/>
<stop offset="1" stop-color="#1B1464"/>
</linearGradient>
<linearGradient id="paint2_linear_1328_7967" x1="74.793" y1="286.107" x2="315.666" y2="45.2336" gradientUnits="userSpaceOnUse">
<stop stop-color="#1B1464"/>
<stop offset="1" stop-color="#83EFFF"/>
</linearGradient>
<linearGradient id="paint3_linear_1328_7967" x1="4.10809" y1="110.543" x2="107.214" y2="7.43744" gradientUnits="userSpaceOnUse">
<stop stop-color="#1B1464"/>
<stop offset="1" stop-color="#83EFFF"/>
</linearGradient>
<linearGradient id="paint4_linear_1328_7967" x1="162.568" y1="275.466" x2="234.781" y2="203.252" gradientUnits="userSpaceOnUse">
<stop stop-color="#02B6FD"/>
<stop offset="1" stop-color="#83EFFF"/>
</linearGradient>
<linearGradient id="paint5_linear_1328_7967" x1="79.5136" y1="290.832" x2="256.658" y2="113.688" gradientUnits="userSpaceOnUse">
<stop stop-color="#1B1464"/>
<stop offset="1" stop-color="#83EFFF"/>
</linearGradient>
<linearGradient id="paint6_linear_1328_7967" x1="53.5269" y1="264.845" x2="321.853" y2="-3.48133" gradientUnits="userSpaceOnUse">
<stop stop-color="#02CAFD"/>
<stop offset="1" stop-color="#83F8A6"/>
</linearGradient>
</defs>
</svg>
