<svg width="37" height="37" viewBox="0 0 37 37" fill="none" xmlns="http://www.w3.org/2000/svg">
<circle cx="18.5" cy="18.5" r="17" stroke="#EDD5FF" stroke-width="3"/>
<path d="M35.3935 16.2488C36.1912 16.1425 36.9301 16.7033 36.9733 17.5069C37.1308 20.4362 36.5897 23.3684 35.3854 26.0585C33.9823 29.1932 31.7343 31.8753 28.8931 33.8047C26.0519 35.7341 22.7298 36.8345 19.2987 36.9828C16.354 37.11 13.4289 36.5316 10.7642 35.305C10.0332 34.9685 9.78442 34.0748 10.1774 33.3725C10.5704 32.6702 11.4562 32.4264 12.1921 32.7521C14.3804 33.7207 16.7689 34.175 19.1728 34.0711C22.0635 33.9462 24.8622 33.0191 27.2558 31.3937C29.6494 29.7683 31.5433 27.5086 32.7254 24.8678C33.7085 22.6717 34.1671 20.284 34.0738 17.8927C34.0424 17.0885 34.5957 16.3551 35.3935 16.2488Z" fill="#5C2682"/>
<path d="M10.5305 22V21.0028L12.8604 18.8455C13.0586 18.6538 13.2248 18.4812 13.359 18.3278C13.4954 18.1744 13.5987 18.0241 13.669 17.8771C13.7393 17.728 13.7745 17.5671 13.7745 17.3945C13.7745 17.2028 13.7308 17.0376 13.6435 16.8991C13.5561 16.7585 13.4368 16.6509 13.2855 16.5763C13.1342 16.4996 12.9627 16.4613 12.771 16.4613C12.5707 16.4613 12.396 16.5018 12.2468 16.5827C12.0977 16.6637 11.9826 16.7798 11.9016 16.9311C11.8207 17.0824 11.7802 17.2624 11.7802 17.4712H10.4666C10.4666 17.043 10.5636 16.6712 10.7575 16.3558C10.9513 16.0405 11.223 15.7965 11.5724 15.6239C11.9219 15.4513 12.3246 15.3651 12.7805 15.3651C13.2493 15.3651 13.6573 15.4482 14.0046 15.6143C14.354 15.7784 14.6257 16.0064 14.8196 16.2983C15.0135 16.5902 15.1104 16.9247 15.1104 17.3018C15.1104 17.549 15.0614 17.793 14.9634 18.0337C14.8675 18.2745 14.696 18.5419 14.4489 18.8359C14.2017 19.1278 13.8533 19.4783 13.4038 19.8874L12.4482 20.8239V20.8686H15.1967V22H10.5305ZM19.2231 15.1477L17.1137 22.9844H15.9408L18.0502 15.1477H19.2231ZM22.4169 22.0895C21.9652 22.0895 21.5625 22.0064 21.2088 21.8402C20.8573 21.674 20.5782 21.445 20.3715 21.1531C20.1648 20.8612 20.0572 20.5266 20.0487 20.1495H21.391C21.4059 20.4031 21.5125 20.6087 21.7106 20.7663C21.9088 20.924 22.1442 21.0028 22.4169 21.0028C22.6343 21.0028 22.826 20.9549 22.9922 20.859C23.1606 20.761 23.2916 20.6257 23.3853 20.4531C23.4812 20.2784 23.5292 20.0781 23.5292 19.8523C23.5292 19.6222 23.4802 19.4197 23.3821 19.245C23.2863 19.0703 23.1531 18.9339 22.9826 18.8359C22.8122 18.7379 22.6172 18.6879 22.3978 18.6857C22.206 18.6857 22.0196 18.7251 21.8385 18.804C21.6595 18.8828 21.5199 18.9904 21.4198 19.1268L20.1893 18.9062L20.4993 15.4545H24.5008V16.5859H21.6403L21.4709 18.2255H21.5093C21.6243 18.0636 21.798 17.9293 22.0302 17.8228C22.2625 17.7163 22.5224 17.663 22.8101 17.663C23.2042 17.663 23.5558 17.7557 23.8647 17.9411C24.1737 18.1264 24.4177 18.381 24.5966 18.7049C24.7756 19.0266 24.864 19.3974 24.8619 19.8171C24.864 20.2582 24.7618 20.6502 24.5551 20.9933C24.3505 21.3342 24.064 21.6026 23.6954 21.7987C23.3289 21.9925 22.9027 22.0895 22.4169 22.0895Z" fill="black"/>
</svg>
