<svg width="118" height="113" viewBox="0 0 118 113" fill="none" xmlns="http://www.w3.org/2000/svg">
<path d="M29.7645 -40.1585V-40.1585C65.7537 -40.3196 99.0444 -21.0992 116.899 10.1489V10.1489V10.1489C134.755 41.397 168.045 60.6174 204.034 60.4563V60.4563" stroke="white" stroke-opacity="0.14" stroke-width="2.46923" stroke-linecap="round" stroke-linejoin="round"/>
<path d="M34.7958 -48.8725V-48.8725C70.7849 -49.0336 104.076 -29.8132 121.931 1.43489V1.43489V1.43489C139.786 32.683 173.077 51.9034 209.066 51.7423V51.7423" stroke="white" stroke-opacity="0.14" stroke-width="2.46923" stroke-linecap="round" stroke-linejoin="round"/>
<path d="M39.827 -57.5856V-57.5856C75.8162 -57.7467 109.107 -38.5263 126.962 -7.27824V-7.27824V-7.27824C144.817 23.9698 178.108 43.1902 214.097 43.0292V43.0292" stroke="white" stroke-opacity="0.14" stroke-width="2.46923" stroke-linecap="round" stroke-linejoin="round"/>
<path d="M24.7352 -31.4454V-31.4454C60.7244 -31.6065 94.0151 -12.3861 111.87 18.862V18.862V18.862C129.725 50.1101 163.016 69.3305 199.005 69.1694V69.1694" stroke="white" stroke-opacity="0.14" stroke-width="2.46923" stroke-linecap="round" stroke-linejoin="round"/>
<path d="M19.704 -22.7313V-22.7313C55.6931 -22.8923 88.9838 -3.67195 106.839 27.5761V27.5761V27.5761C124.694 58.8242 157.985 78.0446 193.974 77.8835V77.8835" stroke="white" stroke-opacity="0.14" stroke-width="2.46923" stroke-linecap="round" stroke-linejoin="round"/>
<path d="M14.6727 -14.0181V-14.0181C50.6619 -14.1792 83.9526 5.04118 101.808 36.2893V36.2893V36.2893C119.663 67.5373 152.953 86.7577 188.943 86.5967V86.5967" stroke="white" stroke-opacity="0.14" stroke-width="2.46923" stroke-linecap="round" stroke-linejoin="round"/>
</svg>
