<svg width="24" height="24" viewBox="0 0 24 24" fill="none" xmlns="http://www.w3.org/2000/svg">
<path d="M15.5984 7.19998C15.5984 8.15476 15.2192 9.07043 14.544 9.74556C13.8689 10.4207 12.9532 10.8 11.9984 10.8C11.0437 10.8 10.128 10.4207 9.45285 9.74556C8.77772 9.07043 8.39844 8.15476 8.39844 7.19998C8.39844 6.2452 8.77772 5.32952 9.45285 4.65439C10.128 3.97926 11.0437 3.59998 11.9984 3.59998C12.9532 3.59998 13.8689 3.97926 14.544 4.65439C15.2192 5.32952 15.5984 6.2452 15.5984 7.19998Z" fill="#DCCEE5"/>
<path d="M21.5988 9.59995C21.5988 10.2365 21.346 10.8469 20.8959 11.297C20.4458 11.7471 19.8353 12 19.1988 12C18.5623 12 17.9519 11.7471 17.5018 11.297C17.0517 10.8469 16.7988 10.2365 16.7988 9.59995C16.7988 8.96343 17.0517 8.35298 17.5018 7.90289C17.9519 7.45281 18.5623 7.19995 19.1988 7.19995C19.8353 7.19995 20.4458 7.45281 20.8959 7.90289C21.346 8.35298 21.5988 8.96343 21.5988 9.59995Z" fill="#DCCEE5"/>
<path d="M16.7992 18C16.7992 16.7269 16.2935 15.506 15.3933 14.6058C14.4932 13.7057 13.2723 13.2 11.9992 13.2C10.7262 13.2 9.50528 13.7057 8.60511 14.6058C7.70493 15.506 7.19922 16.7269 7.19922 18V21.6H16.7992V18Z" fill="#DCCEE5"/>
<path d="M7.19844 9.59995C7.19844 10.2365 6.94558 10.8469 6.49549 11.297C6.04541 11.7471 5.43496 12 4.79844 12C4.16192 12 3.55147 11.7471 3.10138 11.297C2.65129 10.8469 2.39844 10.2365 2.39844 9.59995C2.39844 8.96343 2.65129 8.35298 3.10138 7.90289C3.55147 7.45281 4.16192 7.19995 4.79844 7.19995C5.43496 7.19995 6.04541 7.45281 6.49549 7.90289C6.94558 8.35298 7.19844 8.96343 7.19844 9.59995Z" fill="#DCCEE5"/>
<path d="M19.1988 21.5999V17.9999C19.2006 16.7799 18.8908 15.5796 18.2988 14.5127C18.8308 14.3766 19.3869 14.3637 19.9247 14.4752C20.4624 14.5866 20.9676 14.8194 21.4016 15.1558C21.8357 15.4922 22.1872 15.9233 22.4294 16.4162C22.6715 16.9091 22.7979 17.4508 22.7988 17.9999V21.5999H19.1988Z" fill="#DCCEE5"/>
<path d="M5.69922 14.5128C5.10732 15.5796 4.79754 16.7799 4.79922 18V21.6H1.19922V18C1.19899 17.4504 1.32457 16.9081 1.56636 16.4146C1.80814 15.9211 2.15969 15.4895 2.59408 15.1529C3.02847 14.8162 3.53416 14.5835 4.07239 14.4726C4.61063 14.3616 5.16712 14.3754 5.69922 14.5128Z" fill="#DCCEE5"/>
</svg>
