<svg width="17" height="18" viewBox="0 0 17 18" fill="none" xmlns="http://www.w3.org/2000/svg">
<path d="M5.97422 17.25C5.75541 17.25 5.54557 17.1631 5.39086 17.0084C5.23614 16.8536 5.14922 16.6438 5.14922 16.425C5.14922 16.2062 5.23614 15.9964 5.39086 15.8416C5.54557 15.6869 5.75541 15.6 5.97422 15.6H12.8492C13.4327 15.6 13.9923 15.3682 14.4049 14.9556C14.8174 14.5431 15.0492 13.9835 15.0492 13.4V4.6C15.0492 4.01652 14.8174 3.45694 14.4049 3.04436C13.9923 2.63179 13.4327 2.4 12.8492 2.4H5.97422C5.75541 2.4 5.54557 2.31308 5.39086 2.15836C5.23614 2.00365 5.14922 1.7938 5.14922 1.575C5.14922 1.3562 5.23614 1.14635 5.39086 0.991637C5.54557 0.836919 5.75541 0.75 5.97422 0.75H12.8492C13.8703 0.75 14.8496 1.15562 15.5716 1.87764C16.2936 2.59965 16.6992 3.57892 16.6992 4.6V13.4C16.6992 14.4211 16.2936 15.4003 15.5716 16.1224C14.8496 16.8444 13.8703 17.25 12.8492 17.25H5.97422ZM4.88412 4.8189C4.80453 4.74536 4.71124 4.68821 4.60956 4.65073C4.50789 4.61325 4.39983 4.59617 4.29155 4.60046C4.18327 4.60475 4.0769 4.63033 3.97851 4.67574C3.88012 4.72114 3.79164 4.78549 3.71812 4.8651L0.418118 8.4401C0.277264 8.59253 0.199036 8.79245 0.199036 9C0.199036 9.20755 0.277264 9.40747 0.418118 9.5599L3.71812 13.1349C3.86676 13.2955 4.07311 13.3905 4.29178 13.3989C4.51045 13.4074 4.72352 13.3286 4.88412 13.18C5.04472 13.0314 5.1397 12.825 5.14816 12.6063C5.15661 12.3877 5.07786 12.1746 4.92922 12.014L2.90742 9.8239H11.4742C11.693 9.8239 11.9029 9.73698 12.0576 9.58226C12.2123 9.42755 12.2992 9.2177 12.2992 8.9989C12.2992 8.7801 12.2123 8.57025 12.0576 8.41554C11.9029 8.26082 11.693 8.1739 11.4742 8.1739H2.90852L4.93032 5.9838C5.00386 5.90421 5.06101 5.81092 5.09849 5.70924C5.13597 5.60757 5.15305 5.49951 5.14876 5.39123C5.14447 5.28295 5.11889 5.17658 5.07348 5.07819C5.02808 4.9798 4.96373 4.89132 4.88412 4.8178V4.8189Z" fill="#F9366E"/>
</svg>
