<svg width="5" height="10" viewBox="0 0 5 10" fill="none" xmlns="http://www.w3.org/2000/svg">
<path d="M0.780217 9.66669C0.879814 9.66703 0.97822 9.64505 1.06821 9.60236C1.15819 9.55967 1.23747 9.49737 1.30022 9.42002L4.52022 5.42002C4.61827 5.30073 4.67188 5.1511 4.67188 4.99669C4.67188 4.84227 4.61827 4.69264 4.52022 4.57335L1.18688 0.573354C1.07372 0.43721 0.911117 0.351594 0.734833 0.335341C0.558549 0.319087 0.383028 0.373529 0.246884 0.486688C0.110739 0.599847 0.0251231 0.762454 0.00887012 0.938739C-0.00738287 1.11502 0.0470581 1.29054 0.160217 1.42669L3.14022 5.00002L0.260217 8.57335C0.178695 8.67121 0.126911 8.79037 0.110991 8.91674C0.0950713 9.0431 0.115683 9.17139 0.170386 9.2864C0.22509 9.40142 0.311597 9.49836 0.419671 9.56576C0.527744 9.63315 0.652861 9.66818 0.780217 9.66669Z" fill="#5C2682"/>
</svg>
