<svg width="14" height="13" viewBox="0 0 14 13" fill="none" xmlns="http://www.w3.org/2000/svg">
<path fill-rule="evenodd" clip-rule="evenodd" d="M6.95847 4.32365C6.02253 4.32365 5.26125 5.08631 5.26125 6.0255C5.26125 6.30251 5.33501 6.56626 5.46026 6.80559L7.73715 4.52252C7.49916 4.39762 7.23334 4.32365 6.95847 4.32365ZM12.0978 0.14967C12.2968 -0.04989 12.619 -0.04989 12.818 0.14967C13.017 0.34923 13.017 0.672294 12.818 0.871854L1.81979 11.9C1.72028 11.9998 1.59015 12.05 1.46002 12.05C1.3292 12.05 1.19907 11.9998 1.09956 11.9C0.900542 11.7004 0.900542 11.3774 1.09956 11.1785L4.7153 7.55223C4.40981 7.10566 4.2435 6.57885 4.2435 6.02552C4.2435 4.52394 5.46127 3.30286 6.95878 3.30286C7.50643 3.30286 8.03947 3.47171 8.48273 3.77454L9.89813 2.35599C7.90238 1.05397 5.46892 1.16561 3.56781 2.67487C2.56367 3.46683 1.70149 4.62232 1.06616 6.02622C1.34868 6.65351 1.67713 7.23195 2.04316 7.7483C2.20599 7.97786 2.15241 8.29674 1.92347 8.46002C1.8337 8.52421 1.73071 8.55491 1.62842 8.55491C1.46907 8.55491 1.3125 8.48095 1.21299 8.34C0.76624 7.70992 0.371682 6.9989 0.0411437 6.22648C-0.01383 6.09809 -0.01383 5.95156 0.0418396 5.82317C0.752322 4.17366 1.75298 2.80745 2.93735 1.87314C5.23233 0.052681 8.24683 -0.0373302 10.6309 1.62125L12.0978 0.14967ZM13.8758 5.82239C13.5049 4.96484 13.0623 4.18893 12.5585 3.51838C12.3887 3.293 12.07 3.24765 11.8459 3.4172C11.6204 3.58746 11.5759 3.90703 11.745 4.13241C12.1604 4.68573 12.532 5.32139 12.8514 6.02544C11.546 8.90719 9.35608 10.6202 6.95881 10.6202C6.41603 10.6202 5.87604 10.5316 5.35414 10.3571C5.08623 10.2699 4.79883 10.4123 4.71046 10.6802C4.62139 10.9474 4.76543 11.2363 5.03195 11.3263C5.65754 11.5357 6.30609 11.6417 6.95881 11.6417C9.83067 11.6417 12.4165 9.61751 13.8758 6.22709C13.9314 6.0987 13.9314 5.95147 13.8758 5.82239ZM8.62248 6.32805C8.49862 7.01884 7.95306 7.56728 7.26415 7.69218C6.98719 7.74311 6.80348 8.00896 6.85358 8.28667C6.89812 8.53298 7.11314 8.70533 7.35391 8.70533C7.38453 8.70533 7.41515 8.70253 7.44577 8.69765C8.55081 8.496 9.42691 7.61682 9.62454 6.50877C9.67464 6.23036 9.49023 5.96521 9.21328 5.91567C8.93841 5.86543 8.67189 6.05174 8.62248 6.32805Z" fill="#5C2682"/>
</svg>
