<svg width="16" height="16" viewBox="0 0 16 16" fill="none" xmlns="http://www.w3.org/2000/svg">
<path d="M11.079 1.99336C11.0016 1.91575 10.9097 1.85418 10.8084 1.81217C10.7072 1.77016 10.5986 1.74854 10.489 1.74854C10.3794 1.74854 10.2709 1.77016 10.1696 1.81217C10.0684 1.85418 9.97644 1.91575 9.89903 1.99336L4.35903 7.53336C4.29722 7.59503 4.24819 7.66829 4.21474 7.74894C4.18128 7.82959 4.16406 7.91605 4.16406 8.00336C4.16406 8.09067 4.18128 8.17712 4.21474 8.25777C4.24819 8.33842 4.29722 8.41168 4.35903 8.47336L9.89903 14.0134C10.2257 14.34 10.7524 14.34 11.079 14.0134C11.4057 13.6867 11.4057 13.16 11.079 12.8334L6.25236 8.00002L11.0857 3.16669C11.4057 2.84669 11.4057 2.31336 11.079 1.99336Z" fill="white"/>
</svg>
