<svg width="169" height="179" viewBox="0 0 169 179" fill="none" xmlns="http://www.w3.org/2000/svg">
<rect x="1.03333" y="101.033" width="28.9333" height="28.9333" rx="3.78889" stroke="#EDD5FF" stroke-width="2.06667"/>
<rect x="6.54408" y="106.544" width="17.9111" height="17.9111" rx="2.41111" stroke="#B075DA" stroke-width="2.06667"/>
<rect x="29.0333" y="149.033" width="28.9333" height="28.9333" rx="3.78889" stroke="#EDD5FF" stroke-width="2.06667"/>
<rect x="34.5441" y="154.544" width="17.9111" height="17.9111" rx="2.41111" stroke="#EDD5FF" stroke-width="2.06667"/>
<rect x="52.0333" y="118.033" width="25.9333" height="22.9333" rx="2.41111" stroke="#B075DA" stroke-width="2.06667"/>
<rect x="86.0333" y="93.0333" width="26.9333" height="25.9333" rx="2.41111" stroke="#B075DA" stroke-width="2.06667"/>
<rect x="37" y="68" width="43" height="43" rx="6" stroke="#EDD5FF" stroke-width="2"/>
<rect x="45" y="76" width="27" height="27" rx="4" stroke="#EDD5FF" stroke-width="2"/>
<rect x="51.8276" y="81.8276" width="14.3448" height="14.3448" rx="1.93103" stroke="#EDD5FF" stroke-width="1.65517"/>
<rect x="26.2" y="8.7" width="51.6" height="51.6" rx="7.2" stroke="#EDD5FF" stroke-width="2.4"/>
<rect x="35.7996" y="18.3" width="32.4" height="32.4" rx="4.8" stroke="#EDD5FF" stroke-width="2.4"/>
<g clip-path="url(#clip0_1328_9612)">
<rect x="95.5237" y="8.52373" width="83.9526" height="69.9526" rx="5.47627" stroke="#B075DA" stroke-width="3.04745"/>
</g>
<rect x="86" y="1" width="86" height="86" rx="5" stroke="#EDD5FF" stroke-width="2"/>
<rect x="85.7333" y="126.733" width="31.5333" height="31.5333" rx="4.4" stroke="#EDD5FF" stroke-width="1.46667"/>
<rect x="91.5995" y="132.6" width="19.8" height="19.8" rx="2.93333" stroke="#EDD5FF" stroke-width="1.46667"/>
<rect x="96.6069" y="136.874" width="10.5195" height="10.5195" rx="1.41609" stroke="#EDD5FF" stroke-width="1.21379"/>
<rect x="124.156" y="92.1556" width="49.6889" height="49.6889" rx="6.93333" stroke="#EDD5FF" stroke-width="2.31111"/>
<rect x="133.4" y="101.4" width="31.2" height="31.2" rx="4.62222" stroke="#EDD5FF" stroke-width="2.31111"/>
<rect x="141.289" y="108.134" width="16.5762" height="16.5762" rx="2.23142" stroke="#EDD5FF" stroke-width="1.91264"/>
<defs>
<clipPath id="clip0_1328_9612">
<rect x="85" width="88" height="88" rx="6" fill="white"/>
</clipPath>
</defs>
</svg>
