<svg width="24" height="24" viewBox="0 0 24 24" fill="none" xmlns="http://www.w3.org/2000/svg">
<path d="M10.1698 4.99972C10.3192 4.99922 10.4668 5.03219 10.6018 5.09622C10.7368 5.16025 10.8557 5.25371 10.9498 5.36973L15.7798 11.3697C15.9269 11.5487 16.0073 11.7731 16.0073 12.0047C16.0073 12.2363 15.9269 12.4608 15.7798 12.6397L10.7798 18.6397C10.6101 18.8439 10.3662 18.9724 10.1018 18.9967C9.83733 19.0211 9.57405 18.9395 9.36984 18.7697C9.16562 18.6 9.0372 18.3561 9.01282 18.0916C8.98844 17.8272 9.0701 17.5639 9.23984 17.3597L13.7098 11.9997L9.38984 6.63972C9.26755 6.49294 9.18988 6.3142 9.166 6.12465C9.14212 5.9351 9.17303 5.74268 9.25509 5.57015C9.33715 5.39762 9.4669 5.25221 9.62902 5.15112C9.79113 5.05003 9.9788 4.99749 10.1698 4.99972Z" fill="#5C2682"/>
</svg>
