<svg width="8" height="14" viewBox="0 0 8 14" fill="none" xmlns="http://www.w3.org/2000/svg">
<path d="M7.07903 0.993358C7.00162 0.915753 6.90966 0.854181 6.80842 0.81217C6.70717 0.77016 6.59864 0.748535 6.48903 0.748535C6.37941 0.748535 6.27088 0.77016 6.16964 0.81217C6.06839 0.854181 5.97644 0.915753 5.89903 0.993358L0.359025 6.53336C0.297223 6.59503 0.248191 6.66829 0.214737 6.74894C0.181283 6.82959 0.164062 6.91605 0.164062 7.00336C0.164062 7.09067 0.181283 7.17712 0.214737 7.25777C0.248191 7.33842 0.297223 7.41168 0.359025 7.47336L5.89903 13.0134C6.22569 13.34 6.75236 13.34 7.07903 13.0134C7.40569 12.6867 7.40569 12.16 7.07903 11.8334L2.25236 7.00002L7.08569 2.16669C7.40569 1.84669 7.40569 1.31336 7.07903 0.993358Z" fill="#494949"/>
</svg>
