<svg width="35" height="35" viewBox="0 0 35 35" fill="none" xmlns="http://www.w3.org/2000/svg">
<circle cx="17.5" cy="17.5" r="17.5" fill="#F9F0FE"/>
<path d="M16.9998 24.667C17.7332 24.667 18.3332 24.067 18.3332 23.3337H15.6665C15.6665 24.067 16.2665 24.667 16.9998 24.667ZM20.9998 20.667V17.3337C20.9998 15.287 19.9132 13.5737 17.9998 13.1203V12.667C17.9998 12.1137 17.5532 11.667 16.9998 11.667C16.4465 11.667 15.9998 12.1137 15.9998 12.667V13.1203C14.0932 13.5737 12.9998 15.2803 12.9998 17.3337V20.667L11.6665 22.0003V22.667H22.3332V22.0003L20.9998 20.667ZM19.6665 21.3337H14.3332V17.3337C14.3332 15.6803 15.3398 14.3337 16.9998 14.3337C18.6598 14.3337 19.6665 15.6803 19.6665 17.3337V21.3337Z" fill="#5C2682"/>
</svg>
