<svg width="70" height="68" viewBox="0 0 70 68" fill="none" xmlns="http://www.w3.org/2000/svg">
<path d="M44 37H36V31H44V37ZM34 37H26V27H34V37ZM44 29H36V19H44V29ZM34 25H26V19H34V25Z" fill="#DCCEE5"/>
<path d="M9.53125 53H6.69531V45H9.55469C10.3594 45 11.0521 45.1602 11.6328 45.4805C12.2135 45.7982 12.6602 46.2552 12.9727 46.8516C13.2878 47.4479 13.4453 48.1615 13.4453 48.9922C13.4453 49.8255 13.2878 50.5417 12.9727 51.1406C12.6602 51.7396 12.2109 52.1992 11.625 52.5195C11.0417 52.8398 10.3438 53 9.53125 53ZM8.38672 51.5508H9.46094C9.96094 51.5508 10.3815 51.4622 10.7227 51.2852C11.0664 51.1055 11.3242 50.8281 11.4961 50.4531C11.6706 50.0755 11.7578 49.5885 11.7578 48.9922C11.7578 48.401 11.6706 47.918 11.4961 47.543C11.3242 47.168 11.0677 46.8919 10.7266 46.7148C10.3854 46.5378 9.96484 46.4492 9.46484 46.4492H8.38672V51.5508ZM16.5379 53.1133C16.1551 53.1133 15.814 53.0469 15.5145 52.9141C15.215 52.7786 14.978 52.5794 14.8036 52.3164C14.6317 52.0508 14.5457 51.7201 14.5457 51.3242C14.5457 50.9909 14.6069 50.7109 14.7293 50.4844C14.8517 50.2578 15.0184 50.0755 15.2293 49.9375C15.4403 49.7995 15.6799 49.6953 15.9481 49.625C16.2189 49.5547 16.5028 49.5052 16.7996 49.4766C17.1486 49.4401 17.4299 49.4062 17.6434 49.375C17.8569 49.3411 18.0119 49.2917 18.1082 49.2266C18.2046 49.1615 18.2528 49.0651 18.2528 48.9375V48.9141C18.2528 48.6667 18.1746 48.4753 18.0184 48.3398C17.8648 48.2044 17.646 48.1367 17.3621 48.1367C17.0627 48.1367 16.8244 48.2031 16.6473 48.3359C16.4702 48.4661 16.353 48.6302 16.2957 48.8281L14.7567 48.7031C14.8348 48.3385 14.9885 48.0234 15.2176 47.7578C15.4468 47.4896 15.7424 47.2839 16.1043 47.1406C16.4689 46.9948 16.8908 46.9219 17.37 46.9219C17.7033 46.9219 18.0223 46.9609 18.327 47.0391C18.6343 47.1172 18.9064 47.2383 19.1434 47.4023C19.383 47.5664 19.5718 47.7773 19.7098 48.0352C19.8478 48.2904 19.9168 48.5964 19.9168 48.9531V53H18.3387V52.168H18.2918C18.1955 52.3555 18.0666 52.5208 17.9051 52.6641C17.7437 52.8047 17.5496 52.9154 17.3231 52.9961C17.0965 53.0742 16.8348 53.1133 16.5379 53.1133ZM17.0145 51.9648C17.2593 51.9648 17.4754 51.9167 17.6629 51.8203C17.8504 51.7214 17.9976 51.5885 18.1043 51.4219C18.2111 51.2552 18.2645 51.0664 18.2645 50.8555V50.2188C18.2124 50.2526 18.1408 50.2839 18.0496 50.3125C17.9611 50.3385 17.8608 50.3633 17.7489 50.3867C17.6369 50.4076 17.5249 50.4271 17.4129 50.4453C17.301 50.4609 17.1994 50.4753 17.1082 50.4883C16.9129 50.5169 16.7424 50.5625 16.5965 50.625C16.4507 50.6875 16.3374 50.7721 16.2567 50.8789C16.176 50.9831 16.1356 51.1133 16.1356 51.2695C16.1356 51.4961 16.2176 51.6693 16.3817 51.7891C16.5483 51.9062 16.7593 51.9648 17.0145 51.9648ZM26.36 48.7109L24.8366 48.8047C24.8106 48.6745 24.7546 48.5573 24.6686 48.4531C24.5827 48.3464 24.4694 48.2617 24.3288 48.1992C24.1908 48.1341 24.0254 48.1016 23.8327 48.1016C23.5749 48.1016 23.3574 48.1562 23.1804 48.2656C23.0033 48.3724 22.9147 48.5156 22.9147 48.6953C22.9147 48.8385 22.972 48.9596 23.0866 49.0586C23.2012 49.1576 23.3978 49.237 23.6764 49.2969L24.7624 49.5156C25.3457 49.6354 25.7806 49.8281 26.0671 50.0937C26.3535 50.3594 26.4968 50.7083 26.4968 51.1406C26.4968 51.5339 26.3809 51.8789 26.1491 52.1758C25.9199 52.4727 25.6048 52.7044 25.2038 52.8711C24.8054 53.0352 24.3457 53.1172 23.8249 53.1172C23.0306 53.1172 22.3978 52.9518 21.9264 52.6211C21.4577 52.2878 21.183 51.8346 21.1022 51.2617L22.7389 51.1758C22.7884 51.418 22.9082 51.6029 23.0983 51.7305C23.2884 51.8555 23.5319 51.918 23.8288 51.918C24.1205 51.918 24.3548 51.862 24.5319 51.75C24.7116 51.6354 24.8027 51.4883 24.8054 51.3086C24.8027 51.1576 24.7389 51.0339 24.6139 50.9375C24.4889 50.8385 24.2962 50.763 24.0358 50.7109L22.9968 50.5039C22.4108 50.3867 21.9746 50.1836 21.6882 49.8945C21.4043 49.6055 21.2624 49.237 21.2624 48.7891C21.2624 48.4036 21.3665 48.0716 21.5749 47.793C21.7858 47.5143 22.0814 47.2995 22.4616 47.1484C22.8444 46.9974 23.2923 46.9219 23.8054 46.9219C24.5632 46.9219 25.1595 47.082 25.5944 47.4023C26.0319 47.7227 26.2871 48.1589 26.36 48.7109ZM29.3687 49.5313V53H27.7046V45H29.3218V48.0586H29.3921C29.5275 47.7044 29.7463 47.4271 30.0484 47.2266C30.3504 47.0234 30.7293 46.9219 31.1851 46.9219C31.6017 46.9219 31.965 47.013 32.2749 47.1953C32.5874 47.375 32.8296 47.6341 33.0015 47.9727C33.176 48.3086 33.2619 48.7109 33.2593 49.1797V53H31.5952V49.4766C31.5978 49.1068 31.5041 48.819 31.314 48.6133C31.1265 48.4076 30.8635 48.3047 30.5249 48.3047C30.2984 48.3047 30.0978 48.3529 29.9234 48.4492C29.7515 48.5456 29.6161 48.6862 29.5171 48.8711C29.4208 49.0534 29.3713 49.2734 29.3687 49.5313ZM34.7601 53V45H36.4242V48.0078H36.475C36.5479 47.8464 36.6533 47.6823 36.7914 47.5156C36.932 47.3464 37.1143 47.2057 37.3382 47.0938C37.5648 46.9792 37.8461 46.9219 38.182 46.9219C38.6195 46.9219 39.0231 47.0365 39.3929 47.2656C39.7627 47.4922 40.0583 47.8346 40.2796 48.293C40.501 48.7487 40.6117 49.3203 40.6117 50.0078C40.6117 50.6771 40.5036 51.2422 40.2875 51.7031C40.0739 52.1615 39.7823 52.5091 39.4125 52.7461C39.0453 52.9805 38.6338 53.0977 38.1781 53.0977C37.8552 53.0977 37.5804 53.0443 37.3539 52.9375C37.1299 52.8307 36.9463 52.6966 36.8031 52.5352C36.6599 52.3711 36.5505 52.2057 36.475 52.0391H36.4007V53H34.7601ZM36.389 50C36.389 50.3568 36.4385 50.668 36.5375 50.9336C36.6364 51.1992 36.7796 51.4062 36.9671 51.5547C37.1546 51.7005 37.3825 51.7734 37.6507 51.7734C37.9216 51.7734 38.1507 51.6992 38.3382 51.5508C38.5257 51.3997 38.6677 51.1914 38.764 50.9258C38.863 50.6576 38.9125 50.349 38.9125 50C38.9125 49.6536 38.8643 49.349 38.7679 49.0859C38.6716 48.8229 38.5296 48.6172 38.3421 48.4687C38.1546 48.3203 37.9242 48.2461 37.6507 48.2461C37.3799 48.2461 37.1507 48.3177 36.9632 48.4609C36.7783 48.6042 36.6364 48.8073 36.5375 49.0703C36.4385 49.3333 36.389 49.6432 36.389 50ZM44.593 53.1172C43.9862 53.1172 43.4615 52.9883 43.0187 52.7305C42.5786 52.4701 42.2388 52.1081 41.9992 51.6445C41.7596 51.1784 41.6398 50.638 41.6398 50.0234C41.6398 49.4036 41.7596 48.862 41.9992 48.3984C42.2388 47.9323 42.5786 47.5703 43.0187 47.3125C43.4615 47.0521 43.9862 46.9219 44.593 46.9219C45.1997 46.9219 45.7232 47.0521 46.1633 47.3125C46.606 47.5703 46.9471 47.9323 47.1867 48.3984C47.4263 48.862 47.5461 49.4036 47.5461 50.0234C47.5461 50.638 47.4263 51.1784 47.1867 51.6445C46.9471 52.1081 46.606 52.4701 46.1633 52.7305C45.7232 52.9883 45.1997 53.1172 44.593 53.1172ZM44.6008 51.8281C44.8768 51.8281 45.1073 51.75 45.2922 51.5938C45.4771 51.4349 45.6164 51.2187 45.7102 50.9453C45.8065 50.6719 45.8547 50.3607 45.8547 50.0117C45.8547 49.6628 45.8065 49.3516 45.7102 49.0781C45.6164 48.8047 45.4771 48.5885 45.2922 48.4297C45.1073 48.2708 44.8768 48.1914 44.6008 48.1914C44.3221 48.1914 44.0878 48.2708 43.8977 48.4297C43.7102 48.5885 43.5682 48.8047 43.4719 49.0781C43.3781 49.3516 43.3312 49.6628 43.3312 50.0117C43.3312 50.3607 43.3781 50.6719 43.4719 50.9453C43.5682 51.2187 43.7102 51.4349 43.8977 51.5938C44.0878 51.75 44.3221 51.8281 44.6008 51.8281ZM50.4991 53.1133C50.1162 53.1133 49.7751 53.0469 49.4756 52.9141C49.1761 52.7786 48.9392 52.5794 48.7647 52.3164C48.5928 52.0508 48.5069 51.7201 48.5069 51.3242C48.5069 50.9909 48.5681 50.7109 48.6905 50.4844C48.8129 50.2578 48.9795 50.0755 49.1905 49.9375C49.4014 49.7995 49.641 49.6953 49.9092 49.625C50.1801 49.5547 50.4639 49.5052 50.7608 49.4766C51.1097 49.4401 51.391 49.4062 51.6045 49.375C51.8181 49.3411 51.973 49.2917 52.0694 49.2266C52.1657 49.1615 52.2139 49.0651 52.2139 48.9375V48.9141C52.2139 48.6667 52.1358 48.4753 51.9795 48.3398C51.8259 48.2044 51.6071 48.1367 51.3233 48.1367C51.0238 48.1367 50.7855 48.2031 50.6084 48.3359C50.4314 48.4661 50.3142 48.6302 50.2569 48.8281L48.7178 48.7031C48.7959 48.3385 48.9496 48.0234 49.1787 47.7578C49.4079 47.4896 49.7035 47.2839 50.0655 47.1406C50.4301 46.9948 50.8519 46.9219 51.3311 46.9219C51.6644 46.9219 51.9834 46.9609 52.2881 47.0391C52.5954 47.1172 52.8676 47.2383 53.1045 47.4023C53.3441 47.5664 53.5329 47.7773 53.6709 48.0352C53.809 48.2904 53.878 48.5964 53.878 48.9531V53H52.2998V52.168H52.253C52.1566 52.3555 52.0277 52.5208 51.8662 52.6641C51.7048 52.8047 51.5108 52.9154 51.2842 52.9961C51.0577 53.0742 50.7959 53.1133 50.4991 53.1133ZM50.9756 51.9648C51.2204 51.9648 51.4366 51.9167 51.6241 51.8203C51.8116 51.7214 51.9587 51.5885 52.0655 51.4219C52.1722 51.2552 52.2256 51.0664 52.2256 50.8555V50.2188C52.1735 50.2526 52.1019 50.2839 52.0108 50.3125C51.9222 50.3385 51.822 50.3633 51.71 50.3867C51.598 50.4076 51.486 50.4271 51.3741 50.4453C51.2621 50.4609 51.1605 50.4753 51.0694 50.4883C50.8741 50.5169 50.7035 50.5625 50.5577 50.625C50.4118 50.6875 50.2985 50.7721 50.2178 50.8789C50.1371 50.9831 50.0967 51.1133 50.0967 51.2695C50.0967 51.4961 50.1787 51.6693 50.3428 51.7891C50.5095 51.9062 50.7204 51.9648 50.9756 51.9648ZM55.329 53V47H56.9423V48.0469H57.0048C57.1141 47.6745 57.2977 47.3932 57.5555 47.2031C57.8134 47.0104 58.1102 46.9141 58.4462 46.9141C58.5295 46.9141 58.6193 46.9193 58.7157 46.9297C58.8121 46.9401 58.8967 46.9544 58.9696 46.9727V48.4492C58.8915 48.4258 58.7834 48.4049 58.6454 48.3867C58.5074 48.3685 58.3811 48.3594 58.2665 48.3594C58.0217 48.3594 57.8029 48.4128 57.6102 48.5195C57.4201 48.6237 57.2691 48.7695 57.1571 48.957C57.0477 49.1445 56.993 49.3607 56.993 49.6055V53H55.329ZM61.9216 53.0977C61.4659 53.0977 61.0531 52.9805 60.6833 52.7461C60.3161 52.5091 60.0245 52.1615 59.8083 51.7031C59.5948 51.2422 59.488 50.6771 59.488 50.0078C59.488 49.3203 59.5987 48.7487 59.82 48.293C60.0414 47.8346 60.3357 47.4922 60.7029 47.2656C61.0726 47.0365 61.4776 46.9219 61.9177 46.9219C62.2536 46.9219 62.5336 46.9792 62.7575 47.0938C62.9841 47.2057 63.1664 47.3464 63.3044 47.5156C63.445 47.6823 63.5518 47.8464 63.6247 48.0078H63.6755V45H65.3357V53H63.695V52.0391H63.6247C63.5466 52.2057 63.4359 52.3711 63.2927 52.5352C63.1521 52.6966 62.9685 52.8307 62.7419 52.9375C62.518 53.0443 62.2445 53.0977 61.9216 53.0977ZM62.4489 51.7734C62.7172 51.7734 62.9437 51.7005 63.1286 51.5547C63.3161 51.4062 63.4594 51.1992 63.5583 50.9336C63.6599 50.668 63.7107 50.3568 63.7107 50C63.7107 49.6432 63.6612 49.3333 63.5622 49.0703C63.4633 48.8073 63.32 48.6042 63.1325 48.4609C62.945 48.3177 62.7172 48.2461 62.4489 48.2461C62.1755 48.2461 61.945 48.3203 61.7575 48.4687C61.57 48.6172 61.4281 48.8229 61.3318 49.0859C61.2354 49.349 61.1872 49.6536 61.1872 50C61.1872 50.349 61.2354 50.6576 61.3318 50.9258C61.4307 51.1914 61.5726 51.3997 61.7575 51.5508C61.945 51.6992 62.1755 51.7734 62.4489 51.7734Z" fill="#DCCEE5"/>
</svg>
