<svg width="70" height="68" viewBox="0 0 70 68" fill="none" xmlns="http://www.w3.org/2000/svg">
<path d="M25 47.5859C24.9453 47.3958 24.8685 47.2279 24.7695 47.082C24.6706 46.9336 24.5495 46.8086 24.4063 46.707C24.2656 46.6029 24.1042 46.5234 23.9219 46.4688C23.7422 46.4141 23.543 46.3867 23.3242 46.3867C22.9154 46.3867 22.556 46.4883 22.2461 46.6914C21.9388 46.8945 21.6992 47.1901 21.5273 47.5781C21.3555 47.9635 21.2695 48.4349 21.2695 48.9922C21.2695 49.5495 21.3542 50.0234 21.5234 50.4141C21.6927 50.8047 21.9323 51.1029 22.2422 51.3086C22.5521 51.5117 22.918 51.6133 23.3398 51.6133C23.7227 51.6133 24.0495 51.5456 24.3203 51.4102C24.5938 51.2721 24.8021 51.0781 24.9453 50.8281C25.0911 50.5781 25.1641 50.2826 25.1641 49.9414L25.5078 49.9922H23.4453V48.7187H26.793V49.7266C26.793 50.4297 26.6445 51.0339 26.3477 51.5391C26.0508 52.0417 25.6419 52.4297 25.1211 52.7031C24.6003 52.974 24.0039 53.1094 23.332 53.1094C22.582 53.1094 21.9232 52.944 21.3555 52.6133C20.7878 52.2799 20.3451 51.8073 20.0273 51.1953C19.7122 50.5807 19.5547 49.8516 19.5547 49.0078C19.5547 48.3594 19.6484 47.7812 19.8359 47.2734C20.026 46.763 20.2917 46.3307 20.6328 45.9766C20.974 45.6224 21.3711 45.3529 21.8242 45.168C22.2773 44.9831 22.7682 44.8906 23.2969 44.8906C23.75 44.8906 24.1719 44.957 24.5625 45.0898C24.9531 45.2201 25.2995 45.4049 25.6016 45.6445C25.9063 45.8841 26.1549 46.1693 26.3477 46.5C26.5404 46.8281 26.6641 47.1901 26.7188 47.5859H25ZM28.1922 53V47H29.8055V48.0469H29.868C29.9774 47.6745 30.161 47.3932 30.4188 47.2031C30.6766 47.0104 30.9735 46.9141 31.3094 46.9141C31.3927 46.9141 31.4826 46.9193 31.5789 46.9297C31.6753 46.9401 31.7599 46.9544 31.8329 46.9727V48.4492C31.7547 48.4258 31.6467 48.4049 31.5086 48.3867C31.3706 48.3685 31.2443 48.3594 31.1297 48.3594C30.8849 48.3594 30.6662 48.4128 30.4735 48.5195C30.2834 48.6237 30.1323 48.7695 30.0204 48.957C29.911 49.1445 29.8563 49.3607 29.8563 49.6055V53H28.1922ZM35.2848 53.1172C34.6781 53.1172 34.1533 52.9883 33.7106 52.7305C33.2705 52.4701 32.9307 52.1081 32.6911 51.6445C32.4515 51.1784 32.3317 50.638 32.3317 50.0234C32.3317 49.4036 32.4515 48.862 32.6911 48.3984C32.9307 47.9323 33.2705 47.5703 33.7106 47.3125C34.1533 47.0521 34.6781 46.9219 35.2848 46.9219C35.8916 46.9219 36.4151 47.0521 36.8552 47.3125C37.2979 47.5703 37.639 47.9323 37.8786 48.3984C38.1182 48.862 38.238 49.4036 38.238 50.0234C38.238 50.638 38.1182 51.1784 37.8786 51.6445C37.639 52.1081 37.2979 52.4701 36.8552 52.7305C36.4151 52.9883 35.8916 53.1172 35.2848 53.1172ZM35.2927 51.8281C35.5687 51.8281 35.7992 51.75 35.9841 51.5938C36.169 51.4349 36.3083 51.2187 36.402 50.9453C36.4984 50.6719 36.5466 50.3607 36.5466 50.0117C36.5466 49.6628 36.4984 49.3516 36.402 49.0781C36.3083 48.8047 36.169 48.5885 35.9841 48.4297C35.7992 48.2708 35.5687 48.1914 35.2927 48.1914C35.014 48.1914 34.7796 48.2708 34.5895 48.4297C34.402 48.5885 34.2601 48.8047 34.1637 49.0781C34.07 49.3516 34.0231 49.6628 34.0231 50.0117C34.0231 50.3607 34.07 50.6719 34.1637 50.9453C34.2601 51.2187 34.402 51.4349 34.5895 51.5938C34.7796 51.75 35.014 51.8281 35.2927 51.8281ZM43.3277 50.4453V47H44.9917V53H43.3941V51.9102H43.3316C43.1961 52.2617 42.9709 52.5443 42.6558 52.7578C42.3433 52.9714 41.9618 53.0781 41.5112 53.0781C41.1102 53.0781 40.7573 52.987 40.4527 52.8047C40.148 52.6224 39.9097 52.3633 39.7378 52.0273C39.5685 51.6914 39.4826 51.2891 39.48 50.8203V47H41.1441V50.5234C41.1467 50.8776 41.2417 51.1576 41.4292 51.3633C41.6167 51.569 41.868 51.6719 42.1831 51.6719C42.3836 51.6719 42.5711 51.6263 42.7456 51.5352C42.9201 51.4414 43.0607 51.3034 43.1675 51.1211C43.2769 50.9388 43.3303 50.7135 43.3277 50.4453ZM46.4828 55.25V47H48.1234V48.0078H48.1976C48.2705 47.8464 48.376 47.6823 48.514 47.5156C48.6546 47.3464 48.8369 47.2057 49.0609 47.0938C49.2875 46.9792 49.5687 46.9219 49.9046 46.9219C50.3421 46.9219 50.7458 47.0365 51.1156 47.2656C51.4854 47.4922 51.781 47.8346 52.0023 48.293C52.2237 48.7487 52.3343 49.3203 52.3343 50.0078C52.3343 50.6771 52.2263 51.2422 52.0101 51.7031C51.7966 52.1615 51.5049 52.5091 51.1351 52.7461C50.7679 52.9805 50.3565 53.0977 49.9007 53.0977C49.5778 53.0977 49.3031 53.0443 49.0765 52.9375C48.8526 52.8307 48.669 52.6966 48.5257 52.5352C48.3825 52.3711 48.2731 52.2057 48.1976 52.0391H48.1468V55.25H46.4828ZM48.1117 50C48.1117 50.3568 48.1612 50.668 48.2601 50.9336C48.3591 51.1992 48.5023 51.4062 48.6898 51.5547C48.8773 51.7005 49.1052 51.7734 49.3734 51.7734C49.6442 51.7734 49.8734 51.6992 50.0609 51.5508C50.2484 51.3997 50.3903 51.1914 50.4867 50.9258C50.5856 50.6576 50.6351 50.349 50.6351 50C50.6351 49.6536 50.5869 49.349 50.4906 49.0859C50.3942 48.8229 50.2523 48.6172 50.0648 48.4687C49.8773 48.3203 49.6468 48.2461 49.3734 48.2461C49.1026 48.2461 48.8734 48.3177 48.6859 48.4609C48.501 48.6042 48.3591 48.8073 48.2601 49.0703C48.1612 49.3333 48.1117 49.6432 48.1117 50Z" fill="#DCCEE5"/>
<path d="M38.6004 23.1996C38.6004 24.1544 38.2211 25.0701 37.546 25.7452C36.8708 26.4203 35.9552 26.7996 35.0004 26.7996C34.0456 26.7996 33.1299 26.4203 32.4548 25.7452C31.7797 25.0701 31.4004 24.1544 31.4004 23.1996C31.4004 22.2448 31.7797 21.3292 32.4548 20.654C33.1299 19.9789 34.0456 19.5996 35.0004 19.5996C35.9552 19.5996 36.8708 19.9789 37.546 20.654C38.2211 21.3292 38.6004 22.2448 38.6004 23.1996Z" fill="#DCCEE5"/>
<path d="M44.6003 25.5992C44.6003 26.2357 44.3474 26.8462 43.8973 27.2963C43.4473 27.7464 42.8368 27.9992 42.2003 27.9992C41.5638 27.9992 40.9533 27.7464 40.5032 27.2963C40.0531 26.8462 39.8003 26.2357 39.8003 25.5992C39.8003 24.9627 40.0531 24.3522 40.5032 23.9022C40.9533 23.4521 41.5638 23.1992 42.2003 23.1992C42.8368 23.1992 43.4473 23.4521 43.8973 23.9022C44.3474 24.3522 44.6003 24.9627 44.6003 25.5992Z" fill="#DCCEE5"/>
<path d="M39.8002 33.9992C39.8002 32.7262 39.2945 31.5053 38.3943 30.6051C37.4941 29.7049 36.2732 29.1992 35.0002 29.1992C33.7272 29.1992 32.5063 29.7049 31.6061 30.6051C30.7059 31.5053 30.2002 32.7262 30.2002 33.9992V37.5992H39.8002V33.9992Z" fill="#DCCEE5"/>
<path d="M30.2004 25.5992C30.2004 26.2357 29.9475 26.8462 29.4974 27.2963C29.0474 27.7464 28.4369 27.9992 27.8004 27.9992C27.1639 27.9992 26.5534 27.7464 26.1033 27.2963C25.6532 26.8462 25.4004 26.2357 25.4004 25.5992C25.4004 24.9627 25.6532 24.3522 26.1033 23.9022C26.5534 23.4521 27.1639 23.1992 27.8004 23.1992C28.4369 23.1992 29.0474 23.4521 29.4974 23.9022C29.9475 24.3522 30.2004 24.9627 30.2004 25.5992Z" fill="#DCCEE5"/>
<path d="M42.2003 37.5992V33.9992C42.202 32.7791 41.8922 31.5788 41.3003 30.512C41.8323 30.3758 42.3884 30.363 42.9261 30.4745C43.4639 30.5859 43.969 30.8187 44.4031 31.1551C44.8372 31.4915 45.1887 31.9225 45.4308 32.4154C45.673 32.9083 45.7993 33.45 45.8003 33.9992V37.5992H42.2003Z" fill="#DCCEE5"/>
<path d="M28.7002 30.5128C28.1083 31.5796 27.7985 32.7799 27.8002 34V37.6H24.2002V34C24.2 33.4504 24.3256 32.9081 24.5673 32.4146C24.8091 31.9211 25.1607 31.4895 25.5951 31.1529C26.0294 30.8162 26.5351 30.5835 27.0734 30.4726C27.6116 30.3616 28.1681 30.3754 28.7002 30.5128Z" fill="#DCCEE5"/>
</svg>
