<svg width="35" height="35" viewBox="0 0 35 35" fill="none" xmlns="http://www.w3.org/2000/svg">
<circle cx="17.5" cy="17.5" r="17.5" fill="#F9F0FE"/>
<path d="M18.125 20V20.625C18.125 21.1223 17.9275 21.5992 17.5758 21.9508C17.2242 22.3025 16.7473 22.5 16.25 22.5H13.75C13.2527 22.5 12.7758 22.3025 12.4242 21.9508C12.0725 21.5992 11.875 21.1223 11.875 20.625V14.375C11.875 13.8777 12.0725 13.4008 12.4242 13.0492C12.7758 12.6975 13.2527 12.5 13.75 12.5H16.25C16.7473 12.5 17.2242 12.6975 17.5758 13.0492C17.9275 13.4008 18.125 13.8777 18.125 14.375V15M20.625 20L23.125 17.5L20.625 20ZM23.125 17.5L20.625 15L23.125 17.5ZM23.125 17.5H14.375H23.125Z" stroke="#5C2682" stroke-width="1.25" stroke-linecap="round" stroke-linejoin="round"/>
</svg>
