<svg width="35" height="35" viewBox="0 0 35 35" fill="none" xmlns="http://www.w3.org/2000/svg">
<circle cx="17.5" cy="17.5" r="17.5" fill="#F9F0FE"/>
<path d="M20.1562 10.0625C19.4096 10.0623 18.6733 10.2371 18.0064 10.5727C17.3395 10.9083 16.7604 11.3955 16.3157 11.9951C15.8709 12.5948 15.5728 13.2904 15.4452 14.026C15.3177 14.7617 15.3642 15.517 15.5811 16.2314L10.0625 21.75V24.9375H13.25L18.7686 19.4189C19.4263 19.6185 20.1192 19.674 20.8002 19.5816C21.4812 19.4892 22.1343 19.251 22.715 18.8834C23.2957 18.5158 23.7903 18.0273 24.1651 17.4512C24.5399 16.8751 24.7861 16.225 24.8869 15.5452C24.9877 14.8653 24.9408 14.1718 24.7493 13.5117C24.5578 12.8517 24.2263 12.2406 23.7774 11.7203C23.3284 11.2 22.7725 10.7825 22.1476 10.4964C21.5227 10.2103 20.8435 10.0623 20.1562 10.0625ZM20.1562 18.5625C19.7905 18.5623 19.4268 18.5082 19.0767 18.4021L18.4674 18.2172L18.0174 18.6672L16.3275 20.3571L15.5949 19.625L14.8437 20.3762L15.5763 21.1088L14.7338 21.9513L14.0012 21.2188L13.25 21.9699L13.9826 22.7025L12.8101 23.875H11.125V22.1899L16.3323 16.9826L16.7828 16.5326L16.5979 15.9232C16.3709 15.1747 16.3856 14.3736 16.6401 13.634C16.8946 12.8943 17.3758 12.2537 18.0153 11.8033C18.6549 11.3529 19.4201 11.1157 20.2023 11.1253C20.9845 11.1349 21.7437 11.3909 22.3719 11.8569C23.0002 12.3229 23.4655 12.9751 23.7017 13.7208C23.9379 14.4666 23.933 15.2677 23.6875 16.0105C23.4421 16.7532 22.9688 17.3996 22.3348 17.8578C21.7008 18.316 20.9385 18.5626 20.1562 18.5625Z" fill="#5C2682"/>
<path d="M20.6875 15.375C21.2743 15.375 21.75 14.8993 21.75 14.3125C21.75 13.7257 21.2743 13.25 20.6875 13.25C20.1007 13.25 19.625 13.7257 19.625 14.3125C19.625 14.8993 20.1007 15.375 20.6875 15.375Z" fill="#5C2682"/>
</svg>
