<svg width="70" height="68" viewBox="0 0 70 68" fill="none" xmlns="http://www.w3.org/2000/svg">
<path d="M10.6953 53V45H13.8516C14.4583 45 14.9753 45.1159 15.4023 45.3477C15.8294 45.5768 16.1549 45.8958 16.3789 46.3047C16.6055 46.7109 16.7188 47.1797 16.7188 47.7109C16.7188 48.2422 16.6042 48.7109 16.375 49.1172C16.1458 49.5234 15.8138 49.8398 15.3789 50.0664C14.9466 50.293 14.4232 50.4062 13.8086 50.4062H11.7969V49.0508H13.5352C13.8607 49.0508 14.1289 48.9948 14.3398 48.8828C14.5534 48.7682 14.7122 48.6107 14.8164 48.4102C14.9232 48.207 14.9766 47.974 14.9766 47.7109C14.9766 47.4453 14.9232 47.2135 14.8164 47.0156C14.7122 46.8151 14.5534 46.6602 14.3398 46.5508C14.1263 46.4388 13.8555 46.3828 13.5273 46.3828H12.3867V53H10.6953ZM19.4959 53.1133C19.1131 53.1133 18.772 53.0469 18.4725 52.9141C18.173 52.7786 17.936 52.5794 17.7616 52.3164C17.5897 52.0508 17.5037 51.7201 17.5037 51.3242C17.5037 50.9909 17.5649 50.7109 17.6873 50.4844C17.8097 50.2578 17.9764 50.0755 18.1873 49.9375C18.3983 49.7995 18.6379 49.6953 18.9061 49.625C19.1769 49.5547 19.4608 49.5052 19.7577 49.4766C20.1066 49.4401 20.3879 49.4062 20.6014 49.375C20.8149 49.3411 20.9699 49.2917 21.0662 49.2266C21.1626 49.1615 21.2108 49.0651 21.2108 48.9375V48.9141C21.2108 48.6667 21.1327 48.4753 20.9764 48.3398C20.8228 48.2044 20.604 48.1367 20.3202 48.1367C20.0207 48.1367 19.7824 48.2031 19.6053 48.3359C19.4282 48.4661 19.311 48.6302 19.2537 48.8281L17.7147 48.7031C17.7928 48.3385 17.9465 48.0234 18.1756 47.7578C18.4048 47.4896 18.7004 47.2839 19.0623 47.1406C19.4269 46.9948 19.8488 46.9219 20.328 46.9219C20.6613 46.9219 20.9803 46.9609 21.285 47.0391C21.5923 47.1172 21.8644 47.2383 22.1014 47.4023C22.341 47.5664 22.5298 47.7773 22.6678 48.0352C22.8058 48.2904 22.8748 48.5964 22.8748 48.9531V53H21.2967V52.168H21.2498C21.1535 52.3555 21.0246 52.5208 20.8631 52.6641C20.7017 52.8047 20.5077 52.9154 20.2811 52.9961C20.0545 53.0742 19.7928 53.1133 19.4959 53.1133ZM19.9725 51.9648C20.2173 51.9648 20.4334 51.9167 20.6209 51.8203C20.8084 51.7214 20.9556 51.5885 21.0623 51.4219C21.1691 51.2552 21.2225 51.0664 21.2225 50.8555V50.2188C21.1704 50.2526 21.0988 50.2839 21.0077 50.3125C20.9191 50.3385 20.8189 50.3633 20.7069 50.3867C20.5949 50.4076 20.4829 50.4271 20.3709 50.4453C20.259 50.4609 20.1574 50.4753 20.0662 50.4883C19.8709 50.5169 19.7004 50.5625 19.5545 50.625C19.4087 50.6875 19.2954 50.7721 19.2147 50.8789C19.134 50.9831 19.0936 51.1133 19.0936 51.2695C19.0936 51.4961 19.1756 51.6693 19.3397 51.7891C19.5064 51.9062 19.7173 51.9648 19.9725 51.9648ZM29.318 48.7109L27.7946 48.8047C27.7686 48.6745 27.7126 48.5573 27.6266 48.4531C27.5407 48.3464 27.4274 48.2617 27.2868 48.1992C27.1488 48.1341 26.9834 48.1016 26.7907 48.1016C26.5329 48.1016 26.3154 48.1562 26.1384 48.2656C25.9613 48.3724 25.8727 48.5156 25.8727 48.6953C25.8727 48.8385 25.93 48.9596 26.0446 49.0586C26.1592 49.1576 26.3558 49.237 26.6345 49.2969L27.7204 49.5156C28.3037 49.6354 28.7386 49.8281 29.0251 50.0937C29.3115 50.3594 29.4548 50.7083 29.4548 51.1406C29.4548 51.5339 29.3389 51.8789 29.1071 52.1758C28.8779 52.4727 28.5628 52.7044 28.1618 52.8711C27.7634 53.0352 27.3037 53.1172 26.7829 53.1172C25.9886 53.1172 25.3558 52.9518 24.8845 52.6211C24.4157 52.2878 24.141 51.8346 24.0602 51.2617L25.697 51.1758C25.7464 51.418 25.8662 51.6029 26.0563 51.7305C26.2464 51.8555 26.4899 51.918 26.7868 51.918C27.0785 51.918 27.3128 51.862 27.4899 51.75C27.6696 51.6354 27.7608 51.4883 27.7634 51.3086C27.7608 51.1576 27.697 51.0339 27.572 50.9375C27.447 50.8385 27.2542 50.763 26.9938 50.7109L25.9548 50.5039C25.3688 50.3867 24.9326 50.1836 24.6462 49.8945C24.3623 49.6055 24.2204 49.237 24.2204 48.7891C24.2204 48.4036 24.3246 48.0716 24.5329 47.793C24.7438 47.5143 25.0394 47.2995 25.4196 47.1484C25.8024 46.9974 26.2503 46.9219 26.7634 46.9219C27.5212 46.9219 28.1175 47.082 28.5524 47.4023C28.9899 47.7227 29.2451 48.1589 29.318 48.7109ZM35.6548 48.7109L34.1314 48.8047C34.1053 48.6745 34.0493 48.5573 33.9634 48.4531C33.8775 48.3464 33.7642 48.2617 33.6236 48.1992C33.4855 48.1341 33.3202 48.1016 33.1275 48.1016C32.8696 48.1016 32.6522 48.1562 32.4751 48.2656C32.298 48.3724 32.2095 48.5156 32.2095 48.6953C32.2095 48.8385 32.2668 48.9596 32.3814 49.0586C32.496 49.1576 32.6926 49.237 32.9712 49.2969L34.0571 49.5156C34.6405 49.6354 35.0754 49.8281 35.3618 50.0937C35.6483 50.3594 35.7915 50.7083 35.7915 51.1406C35.7915 51.5339 35.6756 51.8789 35.4439 52.1758C35.2147 52.4727 34.8996 52.7044 34.4986 52.8711C34.1001 53.0352 33.6405 53.1172 33.1196 53.1172C32.3254 53.1172 31.6926 52.9518 31.2212 52.6211C30.7525 52.2878 30.4777 51.8346 30.397 51.2617L32.0337 51.1758C32.0832 51.418 32.203 51.6029 32.3931 51.7305C32.5832 51.8555 32.8267 51.918 33.1236 51.918C33.4152 51.918 33.6496 51.862 33.8267 51.75C34.0064 51.6354 34.0975 51.4883 34.1001 51.3086C34.0975 51.1576 34.0337 51.0339 33.9087 50.9375C33.7837 50.8385 33.591 50.763 33.3306 50.7109L32.2915 50.5039C31.7056 50.3867 31.2694 50.1836 30.9829 49.8945C30.6991 49.6055 30.5571 49.237 30.5571 48.7891C30.5571 48.4036 30.6613 48.0716 30.8696 47.793C31.0806 47.5143 31.3762 47.2995 31.7564 47.1484C32.1392 46.9974 32.5871 46.9219 33.1001 46.9219C33.8579 46.9219 34.4543 47.082 34.8892 47.4023C35.3267 47.7227 35.5819 48.1589 35.6548 48.7109ZM37.0306 53V45H38.6947V48.0078H38.7455C38.8184 47.8464 38.9239 47.6823 39.0619 47.5156C39.2025 47.3464 39.3848 47.2057 39.6087 47.0938C39.8353 46.9792 40.1166 46.9219 40.4525 46.9219C40.89 46.9219 41.2936 47.0365 41.6634 47.2656C42.0332 47.4922 42.3288 47.8346 42.5502 48.293C42.7715 48.7487 42.8822 49.3203 42.8822 50.0078C42.8822 50.6771 42.7741 51.2422 42.558 51.7031C42.3444 52.1615 42.0528 52.5091 41.683 52.7461C41.3158 52.9805 40.9043 53.0977 40.4486 53.0977C40.1257 53.0977 39.8509 53.0443 39.6244 52.9375C39.4004 52.8307 39.2168 52.6966 39.0736 52.5352C38.9304 52.3711 38.821 52.2057 38.7455 52.0391H38.6712V53H37.0306ZM38.6595 50C38.6595 50.3568 38.709 50.668 38.808 50.9336C38.9069 51.1992 39.0502 51.4062 39.2377 51.5547C39.4252 51.7005 39.653 51.7734 39.9212 51.7734C40.1921 51.7734 40.4212 51.6992 40.6087 51.5508C40.7962 51.3997 40.9382 51.1914 41.0345 50.9258C41.1335 50.6576 41.183 50.349 41.183 50C41.183 49.6536 41.1348 49.349 41.0384 49.0859C40.9421 48.8229 40.8002 48.6172 40.6127 48.4687C40.4252 48.3203 40.1947 48.2461 39.9212 48.2461C39.6504 48.2461 39.4212 48.3177 39.2337 48.4609C39.0489 48.6042 38.9069 48.8073 38.808 49.0703C38.709 49.3333 38.6595 49.6432 38.6595 50ZM46.8635 53.1172C46.2567 53.1172 45.732 52.9883 45.2893 52.7305C44.8492 52.4701 44.5093 52.1081 44.2697 51.6445C44.0301 51.1784 43.9104 50.638 43.9104 50.0234C43.9104 49.4036 44.0301 48.862 44.2697 48.3984C44.5093 47.9323 44.8492 47.5703 45.2893 47.3125C45.732 47.0521 46.2567 46.9219 46.8635 46.9219C47.4702 46.9219 47.9937 47.0521 48.4338 47.3125C48.8765 47.5703 49.2176 47.9323 49.4572 48.3984C49.6968 48.862 49.8166 49.4036 49.8166 50.0234C49.8166 50.638 49.6968 51.1784 49.4572 51.6445C49.2176 52.1081 48.8765 52.4701 48.4338 52.7305C47.9937 52.9883 47.4702 53.1172 46.8635 53.1172ZM46.8713 51.8281C47.1473 51.8281 47.3778 51.75 47.5627 51.5938C47.7476 51.4349 47.8869 51.2187 47.9807 50.9453C48.077 50.6719 48.1252 50.3607 48.1252 50.0117C48.1252 49.6628 48.077 49.3516 47.9807 49.0781C47.8869 48.8047 47.7476 48.5885 47.5627 48.4297C47.3778 48.2708 47.1473 48.1914 46.8713 48.1914C46.5926 48.1914 46.3583 48.2708 46.1682 48.4297C45.9807 48.5885 45.8387 48.8047 45.7424 49.0781C45.6486 49.3516 45.6018 49.6628 45.6018 50.0117C45.6018 50.3607 45.6486 50.6719 45.7424 50.9453C45.8387 51.2187 45.9807 51.4349 46.1682 51.5938C46.3583 51.75 46.5926 51.8281 46.8713 51.8281ZM53.7696 53.1172C53.1628 53.1172 52.6381 52.9883 52.1954 52.7305C51.7552 52.4701 51.4154 52.1081 51.1758 51.6445C50.9362 51.1784 50.8164 50.638 50.8164 50.0234C50.8164 49.4036 50.9362 48.862 51.1758 48.3984C51.4154 47.9323 51.7552 47.5703 52.1954 47.3125C52.6381 47.0521 53.1628 46.9219 53.7696 46.9219C54.3763 46.9219 54.8998 47.0521 55.3399 47.3125C55.7826 47.5703 56.1237 47.9323 56.3633 48.3984C56.6029 48.862 56.7227 49.4036 56.7227 50.0234C56.7227 50.638 56.6029 51.1784 56.3633 51.6445C56.1237 52.1081 55.7826 52.4701 55.3399 52.7305C54.8998 52.9883 54.3763 53.1172 53.7696 53.1172ZM53.7774 51.8281C54.0534 51.8281 54.2839 51.75 54.4688 51.5938C54.6537 51.4349 54.793 51.2187 54.8868 50.9453C54.9831 50.6719 55.0313 50.3607 55.0313 50.0117C55.0313 49.6628 54.9831 49.3516 54.8868 49.0781C54.793 48.8047 54.6537 48.5885 54.4688 48.4297C54.2839 48.2708 54.0534 48.1914 53.7774 48.1914C53.4987 48.1914 53.2644 48.2708 53.0743 48.4297C52.8868 48.5885 52.7448 48.8047 52.6485 49.0781C52.5547 49.3516 52.5079 49.6628 52.5079 50.0117C52.5079 50.3607 52.5547 50.6719 52.6485 50.9453C52.7448 51.2187 52.8868 51.4349 53.0743 51.5938C53.2644 51.75 53.4987 51.8281 53.7774 51.8281ZM59.4725 51.2734L59.4764 49.2773H59.7186L61.6405 47H63.5507L60.9686 50.0156H60.5741L59.4725 51.2734ZM57.9647 53V45H59.6288V53H57.9647ZM61.7147 53L59.9491 50.3867L61.0585 49.2109L63.6639 53H61.7147Z" fill="#DCCEE5"/>
<path d="M34 24C34 26.21 32.21 28 30 28C27.79 28 26 26.21 26 24C26 21.79 27.79 20 30 20C32.21 20 34 21.79 34 24ZM34 30.72V36H23V34C23 31.79 26.13 30 30 30C31.5 30 32.87 30.27 34 30.72ZM47 36H36V19H47V36ZM39 27.5C39 26.837 39.2634 26.2011 39.7322 25.7322C40.2011 25.2634 40.837 25 41.5 25C42.163 25 42.7989 25.2634 43.2678 25.7322C43.7366 26.2011 44 26.837 44 27.5C44 28.163 43.7366 28.7989 43.2678 29.2678C42.7989 29.7366 42.163 30 41.5 30C40.837 30 40.2011 29.7366 39.7322 29.2678C39.2634 28.7989 39 28.163 39 27.5ZM45 23C44.4696 23 43.9609 22.7893 43.5858 22.4142C43.2107 22.0391 43 21.5304 43 21H40C40 22.11 39.11 23 38 23V32C38.5304 32 39.0391 32.2107 39.4142 32.5858C39.7893 32.9609 40 33.4696 40 34H43C43 32.9 43.9 32 45 32V23Z" fill="#DCCEE5"/>
</svg>
