<svg width="18" height="18" viewBox="0 0 18 18" fill="none" xmlns="http://www.w3.org/2000/svg">
<path d="M7.05859 11.9963L5.99809 10.9362L1.49097 15.4433L2.55147 16.5034L7.05859 11.9963Z" fill="#5C2682"/>
<path d="M10.5 13.5C7.18629 13.5 4.5 10.8137 4.5 7.5C4.5 4.18629 7.18629 1.5 10.5 1.5C13.8137 1.5 16.5 4.18629 16.5 7.5C16.5 10.8137 13.8137 13.5 10.5 13.5Z" fill="#5C2682"/>
<path d="M5.83203 13.2525L4.77191 12.192L1.51091 15.453L2.57141 16.5135L5.83203 13.2525Z" fill="#37474F"/>
<path d="M10.5 12.375C7.80761 12.375 5.625 10.1924 5.625 7.5C5.625 4.80761 7.80761 2.625 10.5 2.625C13.1924 2.625 15.375 4.80761 15.375 7.5C15.375 10.1924 13.1924 12.375 10.5 12.375Z" fill="#FAB613"/>
<path d="M7.9131 5.325C8.5506 4.575 9.4881 4.125 10.5006 4.125C11.5131 4.125 12.4506 4.575 13.0881 5.325C13.2381 5.475 13.2006 5.7375 13.0506 5.85C12.9006 6 12.6381 5.9625 12.5256 5.8125C12.0006 5.2125 11.2881 4.875 10.5006 4.875C9.7131 4.875 9.0006 5.2125 8.4756 5.8125C8.4006 5.8875 8.2881 5.9625 8.1756 5.9625C8.1006 5.9625 7.9881 5.925 7.9506 5.8875C7.8006 5.7375 7.8006 5.475 7.9131 5.325Z" fill="#BBDEFB"/>
</svg>
