<svg width="70" height="68" viewBox="0 0 70 68" fill="none" xmlns="http://www.w3.org/2000/svg">
<path d="M19.0352 47.3008C19.0039 46.9857 18.8698 46.7409 18.6328 46.5664C18.3958 46.3919 18.0742 46.3047 17.668 46.3047C17.3919 46.3047 17.1589 46.3437 16.9688 46.4219C16.7786 46.4974 16.6328 46.6029 16.5313 46.7383C16.4323 46.8737 16.3828 47.0273 16.3828 47.1992C16.3776 47.3424 16.4076 47.4674 16.4727 47.5742C16.5404 47.681 16.6328 47.7734 16.75 47.8516C16.8672 47.9271 17.0026 47.9935 17.1562 48.0508C17.3099 48.1055 17.474 48.1523 17.6484 48.1914L18.3672 48.3633C18.7161 48.4414 19.0365 48.5456 19.3281 48.6758C19.6198 48.806 19.8724 48.9661 20.0859 49.1562C20.2995 49.3464 20.4648 49.5703 20.582 49.8281C20.7018 50.0859 20.763 50.3815 20.7656 50.7148C20.763 51.2044 20.638 51.6289 20.3906 51.9883C20.1458 52.3451 19.7917 52.6224 19.3281 52.8203C18.8672 53.0156 18.3112 53.1133 17.6602 53.1133C17.0143 53.1133 16.4518 53.0143 15.9727 52.8164C15.4961 52.6185 15.1237 52.3255 14.8555 51.9375C14.5898 51.5469 14.4505 51.0638 14.4375 50.4883H16.0742C16.0924 50.7565 16.1693 50.9805 16.3047 51.1602C16.4427 51.3372 16.6263 51.4714 16.8555 51.5625C17.0872 51.651 17.349 51.6953 17.6406 51.6953C17.9271 51.6953 18.1758 51.6536 18.3867 51.5703C18.6003 51.487 18.7656 51.3711 18.8828 51.2227C19 51.0742 19.0586 50.9036 19.0586 50.7109C19.0586 50.5312 19.0052 50.3802 18.8984 50.2578C18.7943 50.1354 18.6406 50.0312 18.4375 49.9453C18.237 49.8594 17.9909 49.7812 17.6992 49.7109L16.8281 49.4922C16.1536 49.3281 15.6211 49.0716 15.2305 48.7227C14.8398 48.3737 14.6458 47.9036 14.6484 47.3125C14.6458 46.8281 14.7747 46.4049 15.0352 46.043C15.2982 45.681 15.6589 45.3984 16.1172 45.1953C16.5755 44.9922 17.0964 44.8906 17.6797 44.8906C18.2734 44.8906 18.7917 44.9922 19.2344 45.1953C19.6797 45.3984 20.026 45.681 20.2734 46.043C20.5208 46.4049 20.6484 46.8242 20.6562 47.3008H19.0352ZM24.7664 53.1172C24.1493 53.1172 23.618 52.9922 23.1727 52.7422C22.73 52.4896 22.3888 52.1328 22.1493 51.6719C21.9097 51.2083 21.7899 50.6602 21.7899 50.0273C21.7899 49.4102 21.9097 48.8685 22.1493 48.4023C22.3888 47.9362 22.7261 47.5729 23.161 47.3125C23.5985 47.0521 24.1115 46.9219 24.7 46.9219C25.0959 46.9219 25.4644 46.9857 25.8055 47.1133C26.1493 47.2383 26.4487 47.4271 26.7039 47.6797C26.9618 47.9323 27.1623 48.25 27.3055 48.6328C27.4487 49.013 27.5204 49.4583 27.5204 49.9687V50.4258H22.4539V49.3945H25.9539C25.9539 49.1549 25.9019 48.9427 25.7977 48.7578C25.6935 48.5729 25.549 48.4284 25.3641 48.3242C25.1818 48.2174 24.9696 48.1641 24.7274 48.1641C24.4748 48.1641 24.2508 48.2227 24.0555 48.3398C23.8628 48.4544 23.7118 48.6094 23.6024 48.8047C23.493 48.9974 23.437 49.2122 23.4344 49.4492V50.4297C23.4344 50.7266 23.4891 50.9831 23.5985 51.1992C23.7105 51.4154 23.868 51.582 24.0711 51.6992C24.2743 51.8164 24.5151 51.875 24.7938 51.875C24.9787 51.875 25.148 51.849 25.3016 51.7969C25.4552 51.7448 25.5868 51.6667 25.6961 51.5625C25.8055 51.4583 25.8888 51.3307 25.9461 51.1797L27.4852 51.2812C27.4071 51.651 27.2469 51.974 27.0047 52.25C26.7651 52.5234 26.4552 52.737 26.075 52.8906C25.6974 53.0417 25.2612 53.1172 24.7664 53.1172ZM31.9577 47V48.25H28.3444V47H31.9577ZM29.1647 45.5625H30.8288V51.1562C30.8288 51.3099 30.8522 51.4297 30.8991 51.5156C30.946 51.599 31.0111 51.6576 31.0944 51.6914C31.1804 51.7253 31.2793 51.7422 31.3913 51.7422C31.4694 51.7422 31.5475 51.7357 31.6257 51.7227C31.7038 51.707 31.7637 51.6953 31.8054 51.6875L32.0671 52.9258C31.9837 52.9518 31.8665 52.9818 31.7155 53.0156C31.5645 53.0521 31.3809 53.0742 31.1647 53.082C30.7637 53.0977 30.4121 53.0443 30.11 52.9219C29.8106 52.7995 29.5775 52.6094 29.4108 52.3516C29.2442 52.0937 29.1621 51.7682 29.1647 51.375V45.5625ZM36.3931 47V48.25H32.7798V47H36.3931ZM33.6001 45.5625H35.2642V51.1562C35.2642 51.3099 35.2876 51.4297 35.3345 51.5156C35.3814 51.599 35.4465 51.6576 35.5298 51.6914C35.6157 51.7253 35.7147 51.7422 35.8267 51.7422C35.9048 51.7422 35.9829 51.7357 36.0611 51.7227C36.1392 51.707 36.1991 51.6953 36.2407 51.6875L36.5025 52.9258C36.4191 52.9518 36.3019 52.9818 36.1509 53.0156C35.9999 53.0521 35.8163 53.0742 35.6001 53.082C35.1991 53.0977 34.8475 53.0443 34.5454 52.9219C34.246 52.7995 34.0129 52.6094 33.8462 52.3516C33.6795 52.0937 33.5975 51.7682 33.6001 51.375V45.5625ZM37.6371 53V47H39.3011V53H37.6371ZM38.473 46.2266C38.2256 46.2266 38.0134 46.1445 37.8363 45.9805C37.6618 45.8138 37.5746 45.6146 37.5746 45.3828C37.5746 45.1536 37.6618 44.957 37.8363 44.793C38.0134 44.6263 38.2256 44.543 38.473 44.543C38.7204 44.543 38.9313 44.6263 39.1058 44.793C39.2829 44.957 39.3714 45.1536 39.3714 45.3828C39.3714 45.6146 39.2829 45.8138 39.1058 45.9805C38.9313 46.1445 38.7204 46.2266 38.473 46.2266ZM42.4582 49.5313V53H40.7941V47H42.3801V48.0586H42.4504C42.5832 47.7096 42.8059 47.4336 43.1184 47.2305C43.4309 47.0247 43.8098 46.9219 44.2551 46.9219C44.6717 46.9219 45.035 47.013 45.3449 47.1953C45.6548 47.3776 45.8957 47.638 46.0676 47.9766C46.2395 48.3125 46.3254 48.7135 46.3254 49.1797V53H44.6613V49.4766C44.6639 49.1094 44.5702 48.8229 44.3801 48.6172C44.19 48.4089 43.9283 48.3047 43.5949 48.3047C43.371 48.3047 43.173 48.3529 43.0012 48.4492C42.8319 48.5456 42.6991 48.6862 42.6027 48.8711C42.509 49.0534 42.4608 49.2734 42.4582 49.5313ZM50.5 55.375C49.961 55.375 49.4987 55.3008 49.1133 55.1523C48.7305 55.0065 48.4258 54.8073 48.1993 54.5547C47.9727 54.3021 47.8256 54.0182 47.7579 53.7031L49.2969 53.4961C49.3438 53.6159 49.418 53.7279 49.5196 53.832C49.6211 53.9362 49.7552 54.0195 49.9219 54.082C50.0912 54.1471 50.2969 54.1797 50.5391 54.1797C50.9011 54.1797 51.1993 54.0911 51.4336 53.9141C51.6706 53.7396 51.7891 53.4466 51.7891 53.0352V51.9375H51.7188C51.6459 52.1042 51.5365 52.2617 51.3907 52.4102C51.2448 52.5586 51.0573 52.6797 50.8282 52.7734C50.599 52.8672 50.3256 52.9141 50.0079 52.9141C49.5573 52.9141 49.1472 52.8099 48.7774 52.6016C48.4102 52.3906 48.1172 52.069 47.8985 51.6367C47.6823 51.2018 47.5743 50.6523 47.5743 49.9883C47.5743 49.3086 47.6849 48.7409 47.9063 48.2852C48.1276 47.8294 48.4219 47.4883 48.7891 47.2617C49.1589 47.0352 49.5638 46.9219 50.0039 46.9219C50.3399 46.9219 50.6211 46.9792 50.8477 47.0938C51.0743 47.2057 51.2565 47.3464 51.3946 47.5156C51.5352 47.6823 51.6433 47.8464 51.7188 48.0078H51.7813V47H53.4336V53.0586C53.4336 53.569 53.3086 53.9961 53.0586 54.3398C52.8086 54.6836 52.4623 54.9414 52.0196 55.1133C51.5795 55.2878 51.073 55.375 50.5 55.375ZM50.5352 51.6641C50.8034 51.6641 51.03 51.5977 51.2149 51.4648C51.4024 51.3294 51.5456 51.1367 51.6446 50.8867C51.7461 50.6341 51.7969 50.332 51.7969 49.9805C51.7969 49.6289 51.7474 49.3242 51.6485 49.0664C51.5495 48.806 51.4063 48.6042 51.2188 48.4609C51.0313 48.3177 50.8034 48.2461 50.5352 48.2461C50.2618 48.2461 50.0313 48.3203 49.8438 48.4687C49.6563 48.6146 49.5144 48.8177 49.418 49.0781C49.3217 49.3385 49.2735 49.6393 49.2735 49.9805C49.2735 50.3268 49.3217 50.6263 49.418 50.8789C49.517 51.1289 49.6589 51.3229 49.8438 51.4609C50.0313 51.5964 50.2618 51.6641 50.5352 51.6641ZM59.91 48.7109L58.3866 48.8047C58.3606 48.6745 58.3046 48.5573 58.2186 48.4531C58.1327 48.3464 58.0194 48.2617 57.8788 48.1992C57.7408 48.1341 57.5754 48.1016 57.3827 48.1016C57.1249 48.1016 56.9074 48.1562 56.7304 48.2656C56.5533 48.3724 56.4647 48.5156 56.4647 48.6953C56.4647 48.8385 56.522 48.9596 56.6366 49.0586C56.7512 49.1576 56.9478 49.237 57.2264 49.2969L58.3124 49.5156C58.8957 49.6354 59.3306 49.8281 59.6171 50.0937C59.9035 50.3594 60.0468 50.7083 60.0468 51.1406C60.0468 51.5339 59.9309 51.8789 59.6991 52.1758C59.4699 52.4727 59.1548 52.7044 58.7538 52.8711C58.3554 53.0352 57.8957 53.1172 57.3749 53.1172C56.5806 53.1172 55.9478 52.9518 55.4764 52.6211C55.0077 52.2878 54.733 51.8346 54.6522 51.2617L56.2889 51.1758C56.3384 51.418 56.4582 51.6029 56.6483 51.7305C56.8384 51.8555 57.0819 51.918 57.3788 51.918C57.6705 51.918 57.9048 51.862 58.0819 51.75C58.2616 51.6354 58.3527 51.4883 58.3554 51.3086C58.3527 51.1576 58.2889 51.0339 58.1639 50.9375C58.0389 50.8385 57.8462 50.763 57.5858 50.7109L56.5468 50.5039C55.9608 50.3867 55.5246 50.1836 55.2382 49.8945C54.9543 49.6055 54.8124 49.237 54.8124 48.7891C54.8124 48.4036 54.9165 48.0716 55.1249 47.793C55.3358 47.5143 55.6314 47.2995 56.0116 47.1484C56.3944 46.9974 56.8423 46.9219 57.3554 46.9219C58.1132 46.9219 58.7095 47.082 59.1444 47.4023C59.5819 47.7227 59.8371 48.1589 59.91 48.7109Z" fill="#5C2682"/>
<path d="M36.8199 38H33.1799C32.9518 38 32.7306 37.9221 32.5529 37.7792C32.3752 37.6362 32.2517 37.4368 32.2029 37.214L31.7959 35.33C31.2529 35.0921 30.7381 34.7946 30.2609 34.443L28.4239 35.028C28.2064 35.0973 27.9718 35.0902 27.759 35.0078C27.5462 34.9254 27.3679 34.7727 27.2539 34.575L25.4299 31.424C25.317 31.2261 25.2747 30.9958 25.3097 30.7708C25.3448 30.5457 25.4552 30.3392 25.6229 30.185L27.0479 28.885C26.9831 28.2961 26.9831 27.7019 27.0479 27.113L25.6229 25.816C25.455 25.6618 25.3444 25.4551 25.3093 25.2298C25.2743 25.0045 25.3168 24.774 25.4299 24.576L27.2499 21.423C27.3639 21.2253 27.5422 21.0726 27.755 20.9902C27.9678 20.9078 28.2024 20.9007 28.4199 20.97L30.2569 21.555C30.5009 21.375 30.7549 21.207 31.0169 21.055C31.2699 20.913 31.5299 20.784 31.7959 20.669L32.2039 18.787C32.2525 18.5642 32.3757 18.3647 32.5532 18.2215C32.7307 18.0784 32.9518 18.0002 33.1799 18H36.8199C37.0479 18.0002 37.269 18.0784 37.4465 18.2215C37.6241 18.3647 37.7473 18.5642 37.7959 18.787L38.2079 20.67C38.4879 20.794 38.7619 20.933 39.0269 21.088C39.2739 21.231 39.5129 21.388 39.7429 21.557L41.5809 20.972C41.7982 20.9029 42.0326 20.9102 42.2452 20.9926C42.4578 21.075 42.6359 21.2275 42.7499 21.425L44.5699 24.578C44.8019 24.985 44.7219 25.5 44.3769 25.817L42.9519 27.117C43.0167 27.7059 43.0167 28.3001 42.9519 28.889L44.3769 30.189C44.7219 30.507 44.8019 31.021 44.5699 31.428L42.7499 34.581C42.6358 34.7787 42.4576 34.9314 42.2448 35.0138C42.0319 35.0962 41.7973 35.1033 41.5799 35.034L39.7429 34.449C39.266 34.8003 38.7515 35.0975 38.2089 35.335L37.7959 37.214C37.7471 37.4366 37.6238 37.6359 37.4463 37.7788C37.2688 37.9218 37.0478 37.9998 36.8199 38ZM34.9959 24C33.935 24 32.9176 24.4214 32.1675 25.1716C31.4173 25.9217 30.9959 26.9391 30.9959 28C30.9959 29.0609 31.4173 30.0783 32.1675 30.8284C32.9176 31.5786 33.935 32 34.9959 32C36.0568 32 37.0742 31.5786 37.8243 30.8284C38.5745 30.0783 38.9959 29.0609 38.9959 28C38.9959 26.9391 38.5745 25.9217 37.8243 25.1716C37.0742 24.4214 36.0568 24 34.9959 24Z" fill="#5C2682"/>
</svg>
