<svg width="79" height="79" viewBox="0 0 79 79" fill="none" xmlns="http://www.w3.org/2000/svg">
<rect x="1.61224" y="1.61224" width="75.7755" height="75.7755" rx="4.83673" stroke="#BE9CF8" stroke-width="3.22449" stroke-linecap="round" stroke-dasharray="58 58"/>
<g clip-path="url(#clip0_1878_7053)">
<path d="M53.4731 48.3248C48.0993 46.3672 46.3814 44.7147 46.3814 41.1764C46.3814 39.0531 48.1422 37.6769 48.7424 35.8571C49.3427 34.0373 49.6899 31.8827 49.9785 30.3154C50.2671 28.7481 50.3818 28.1419 50.5387 26.472C50.7306 24.3879 49.3354 19.0075 41.8753 19.0075C34.4174 19.0075 33.0177 24.3879 33.2139 26.472C33.3709 28.1419 33.4862 28.7482 33.7742 30.3154C34.0622 31.8827 34.4061 34.0372 35.0059 35.8571C35.6057 37.6771 37.369 39.0531 37.369 41.1764C37.369 44.7147 35.6511 46.3672 30.2773 48.3248C24.884 50.2869 21.3828 52.2217 21.3828 53.5886V59.9925H62.3678V53.5886C62.3678 52.2239 58.8644 50.2891 53.4731 48.3248Z" fill="#BE9CF8"/>
</g>
<defs>
<clipPath id="clip0_1878_7053">
<rect width="40.985" height="40.985" fill="white" transform="translate(21.3828 19.0075)"/>
</clipPath>
</defs>
</svg>
