<svg width="4" height="16" viewBox="0 0 4 16" fill="none" xmlns="http://www.w3.org/2000/svg">
<path d="M0.240234 7.99919C0.240234 8.23042 0.285778 8.45938 0.374267 8.67301C0.462755 8.88664 0.592455 9.08075 0.755961 9.24426C0.919466 9.40776 1.11357 9.53746 1.3272 9.62595C1.54083 9.71444 1.7698 9.75999 2.00103 9.75999C2.23227 9.75999 2.46123 9.71444 2.67486 9.62595C2.88849 9.53746 3.0826 9.40776 3.24611 9.24426C3.40961 9.08075 3.53931 8.88664 3.6278 8.67301C3.71629 8.45938 3.76183 8.23042 3.76183 7.99918C3.76173 7.53219 3.57611 7.08437 3.24582 6.75423C2.91554 6.42409 2.46763 6.23868 2.00063 6.23879C1.53364 6.23889 1.08582 6.42451 0.755677 6.7548C0.425538 7.08508 0.240128 7.53299 0.240234 7.99999L0.240234 7.99919ZM0.240234 13.5992C0.240234 13.8304 0.285779 14.0594 0.374267 14.273C0.462756 14.4866 0.592455 14.6808 0.755961 14.8443C0.919466 15.0078 1.11357 15.1375 1.3272 15.226C1.54083 15.3144 1.7698 15.36 2.00103 15.36C2.23227 15.36 2.46123 15.3144 2.67486 15.226C2.88849 15.1375 3.0826 15.0078 3.24611 14.8443C3.40961 14.6808 3.53931 14.4866 3.6278 14.273C3.71629 14.0594 3.76183 13.8304 3.76183 13.5992C3.76173 13.1322 3.57611 12.6844 3.24582 12.3542C2.91554 12.0241 2.46763 11.8387 2.00063 11.8388C1.53364 11.8389 1.08582 12.0245 0.755678 12.3548C0.425539 12.6851 0.240128 13.133 0.240234 13.6L0.240234 13.5992ZM0.240234 2.39919C0.240234 2.63042 0.285778 2.85938 0.374267 3.07301C0.462755 3.28664 0.592455 3.48075 0.75596 3.64426C0.919466 3.80776 1.11357 3.93746 1.3272 4.02595C1.54083 4.11444 1.7698 4.15999 2.00103 4.15999C2.23227 4.15999 2.46123 4.11444 2.67486 4.02595C2.88849 3.93746 3.0826 3.80776 3.24611 3.64426C3.40961 3.48075 3.53931 3.28664 3.6278 3.07301C3.71629 2.85938 3.76183 2.63042 3.76183 2.39919C3.76173 1.93219 3.57611 1.48437 3.24582 1.15423C2.91554 0.824089 2.46763 0.638678 2.00063 0.638784C1.53364 0.63889 1.08582 0.824505 0.755677 1.15479C0.425538 1.48508 0.240128 1.93299 0.240234 2.39998L0.240234 2.39919Z" fill="#5C2682"/>
</svg>
