<svg width="38" height="38" viewBox="0 0 38 38" fill="none" xmlns="http://www.w3.org/2000/svg">
<path fill-rule="evenodd" clip-rule="evenodd" d="M19 0C15.8656 0.00982897 12.838 1.14032 10.4643 3.18725C8.645 4.75475 7.32687 6.79725 6.98725 8.84688C3.00675 9.72563 0 13.1931 0 17.3802C0 22.2442 4.0565 26.125 8.97987 26.125H17.8125V13.5541L12.7157 18.6532C12.4928 18.8762 12.1903 19.0015 11.875 19.0015C11.5597 19.0015 11.2572 18.8762 11.0343 18.6532C10.8113 18.4303 10.686 18.1278 10.686 17.8125C10.686 17.4972 10.8113 17.1947 11.0343 16.9718L18.1593 9.84675C18.2696 9.73616 18.4006 9.64842 18.5449 9.58856C18.6891 9.52869 18.8438 9.49788 19 9.49788C19.1562 9.49788 19.3109 9.52869 19.4551 9.58856C19.5994 9.64842 19.7304 9.73616 19.8407 9.84675L26.9657 16.9718C27.1887 17.1947 27.314 17.4972 27.314 17.8125C27.314 18.1278 27.1887 18.4303 26.9657 18.6532C26.7428 18.8762 26.4403 19.0015 26.125 19.0015C25.8097 19.0015 25.5072 18.8762 25.2843 18.6532L20.1875 13.5541V26.125H30.134C34.4422 26.125 38 22.7288 38 18.4609C38 14.5754 35.0503 11.4095 31.2693 10.8751C30.6921 4.74763 25.3888 0 19 0ZM17.8125 34.4375V26.125H20.1875V34.4375C20.1875 34.7524 20.0624 35.0545 19.8397 35.2772C19.617 35.4999 19.3149 35.625 19 35.625C18.6851 35.625 18.383 35.4999 18.1603 35.2772C17.9376 35.0545 17.8125 34.7524 17.8125 34.4375Z" fill="#BE9CF8"/>
</svg>
