<svg width="15" height="15" viewBox="0 0 15 15" fill="none" xmlns="http://www.w3.org/2000/svg">
<path d="M7.5 14.0625C5.75952 14.0625 4.09032 13.3711 2.85961 12.1404C1.6289 10.9097 0.9375 9.24048 0.9375 7.5C0.9375 5.75952 1.6289 4.09032 2.85961 2.85961C4.09032 1.6289 5.75952 0.9375 7.5 0.9375C9.24048 0.9375 10.9097 1.6289 12.1404 2.85961C13.3711 4.09032 14.0625 5.75952 14.0625 7.5C14.0625 9.24048 13.3711 10.9097 12.1404 12.1404C10.9097 13.3711 9.24048 14.0625 7.5 14.0625ZM7.5 15C9.48912 15 11.3968 14.2098 12.8033 12.8033C14.2098 11.3968 15 9.48912 15 7.5C15 5.51088 14.2098 3.60322 12.8033 2.1967C11.3968 0.790176 9.48912 0 7.5 0C5.51088 0 3.60322 0.790176 2.1967 2.1967C0.790176 3.60322 0 5.51088 0 7.5C0 9.48912 0.790176 11.3968 2.1967 12.8033C3.60322 14.2098 5.51088 15 7.5 15Z" fill="#FAB613"/>
<path d="M11.5597 8.90625C11.642 9.04877 11.6853 9.21043 11.6853 9.375C11.6853 9.53957 11.642 9.70123 11.5597 9.84375C11.1484 10.5566 10.5566 11.1485 9.84379 11.5599C9.13101 11.9714 8.32243 12.1878 7.49943 12.1875C6.67658 12.1877 5.8682 11.9711 5.1556 11.5597C4.443 11.1483 3.85131 10.5565 3.44005 9.84375C3.35781 9.7013 3.3145 9.53972 3.31445 9.37524C3.31441 9.21076 3.35764 9.04916 3.43981 8.90667C3.52198 8.76418 3.64019 8.64581 3.78258 8.56346C3.92496 8.48111 4.08651 8.43767 4.25099 8.4375H10.7479C10.9124 8.4375 11.0741 8.48082 11.2166 8.56311C11.3591 8.64539 11.4775 8.76374 11.5597 8.90625ZM6.56193 6.09375C6.56193 6.87 6.14193 6.09375 5.62443 6.09375C5.10693 6.09375 4.68693 6.87 4.68693 6.09375C4.68693 5.3175 5.10693 4.6875 5.62443 4.6875C6.14193 4.6875 6.56193 5.3175 6.56193 6.09375ZM10.3119 6.09375C10.3119 6.87 9.89193 6.09375 9.37443 6.09375C8.85693 6.09375 8.43693 6.87 8.43693 6.09375C8.43693 5.3175 8.85693 4.6875 9.37443 4.6875C9.89193 4.6875 10.3119 5.3175 10.3119 6.09375Z" fill="#FAB613"/>
</svg>
