<svg width="20" height="20" viewBox="0 0 20 20" fill="none" xmlns="http://www.w3.org/2000/svg">
<path d="M2.22172 17.778C2.68559 18.2426 3.23669 18.6109 3.84334 18.8618C4.44999 19.1127 5.10023 19.2412 5.75672 19.24C6.41335 19.2412 7.06374 19.1126 7.67054 18.8617C8.27735 18.6108 8.82863 18.2425 9.29272 17.778L12.1207 14.949L10.7067 13.535L7.87872 16.364C7.31519 16.925 6.55239 17.24 5.75722 17.24C4.96205 17.24 4.19925 16.925 3.63572 16.364C3.07422 15.8008 2.75892 15.0379 2.75892 14.2425C2.75892 13.4472 3.07422 12.6843 3.63572 12.121L6.46472 9.29302L5.05072 7.87902L2.22172 10.707C1.28552 11.6455 0.759766 12.9169 0.759766 14.2425C0.759766 15.5681 1.28552 16.8396 2.22172 17.778ZM17.7777 9.29302C18.7134 8.35431 19.2388 7.08294 19.2388 5.75752C19.2388 4.43211 18.7134 3.16074 17.7777 2.22202C16.8393 1.28583 15.5678 0.760071 14.2422 0.760071C12.9166 0.760071 11.6452 1.28583 10.7067 2.22202L7.87872 5.05102L9.29272 6.46502L12.1207 3.63602C12.6842 3.07501 13.447 2.76005 14.2422 2.76005C15.0374 2.76005 15.8002 3.07501 16.3637 3.63602C16.9252 4.19929 17.2405 4.96219 17.2405 5.75752C17.2405 6.55286 16.9252 7.31575 16.3637 7.87902L13.5347 10.707L14.9487 12.121L17.7777 9.29302Z" fill="#C4A7D8"/>
</svg>
