<svg width="11" height="19" viewBox="0 0 11 19" fill="none" xmlns="http://www.w3.org/2000/svg">
<path d="M2.21564 5.48536V2.96792C2.21564 1.35146 3.64929 0 5.47393 0C7.27251 0 8.73223 1.35146 8.73223 2.96792V5.48536H2.21564ZM11 5.64435V10.7057C9.93128 13.6736 6.77725 14.1241 6.77725 14.1241V17.4895H10.2441V19H0.703791V17.4895H4.19668V14.1241C4.19668 14.1241 1.06872 13.6736 0 10.7057V5.64435L1.27725 5.03487V9.64575C1.27725 9.64575 1.66825 12.7462 5.47393 12.7462C9.27962 12.7462 9.72275 9.64575 9.72275 9.64575V5.03487L11 5.64435ZM8.73223 6.35983V8.63877C8.73223 10.2552 7.27251 11.6067 5.47393 11.6067C3.64929 11.6067 2.21564 10.2552 2.21564 8.63877V6.35983H8.73223Z" fill="white"/>
</svg>
