<svg width="90" height="90" viewBox="0 0 90 90" fill="none" xmlns="http://www.w3.org/2000/svg">
<g clip-path="url(#clip0_11069_549)">
<path d="M75.9375 65.9531C75.9375 82.9688 62.1562 82.9688 45 82.9688C27.8438 82.9688 14.0625 82.9688 14.0625 65.9531C14.0625 48.9375 27.9844 21.0938 45 21.0938C62.0156 21.0938 75.9375 48.7969 75.9375 65.9531Z" fill="#DBB471"/>
<path opacity="0.5" d="M75.9375 65.9531C75.9375 60.1875 74.3906 53.1563 71.5781 46.4062C72.1406 50.7656 71.0156 58.5 57.6562 61.4531C38.6719 65.5313 48.5156 70.875 41.0625 71.5781C34.7344 72.1406 17.8594 69.6094 14.4844 60.0469C14.2031 62.1563 13.9219 64.125 13.9219 66.0938C14.0625 82.9688 27.9844 82.9688 45 82.9688C62.0156 82.9688 75.9375 82.9688 75.9375 65.9531Z" fill="#89664C"/>
<path d="M47.8125 77.3438H44.5781V82.9688L57.6562 90L87.1875 80.8594V75.9375L76.3594 69.6094L47.8125 77.3438Z" fill="#699635"/>
<path d="M45 74.1094C45 74.1094 48.375 79.5938 57.9375 84.375C57.9375 84.375 72.8438 83.6719 87.1875 74.1094C87.1875 74.1094 78.8906 70.0312 76.5 64.6875C76.5 64.6875 70.875 72.5625 45 74.1094Z" fill="#83BF4F"/>
<path d="M38.6719 77.2031L41.7656 77.0625L42.1875 82.2656L29.9531 90L0.5625 83.6719L0.140625 79.0312L10.125 72.1406L38.6719 77.2031Z" fill="#699635"/>
<path d="M41.0625 73.9687C41.0625 73.9687 38.1094 79.4531 29.25 84.6563C29.25 84.6563 14.7656 85.0781 0 77.3438C0 77.3438 7.875 72.8438 9.70313 67.5C9.70313 67.5 15.8906 74.5312 41.0625 73.9687Z" fill="#83BF4F"/>
<path d="M34.0313 75.5156C34.0313 75.5156 33.6094 76.6406 35.5781 76.7813L30.375 81.1406C30.375 81.1406 27.2812 80.8594 26.5781 82.9688C26.5781 82.9688 13.9219 81.5625 5.76562 77.9063C5.76562 77.9063 7.45312 76.6406 5.34375 75.7969C5.34375 75.7969 7.73438 74.1094 8.29688 72.5625C8.29688 72.5625 10.5469 72.8438 11.25 71.1563C11.5312 71.0156 19.9688 76.0781 34.0313 75.5156V75.5156Z" stroke="#699635" stroke-miterlimit="10"/>
<path d="M12.375 77.4844C13.8506 77.4844 15.0469 76.6659 15.0469 75.6562C15.0469 74.6466 13.8506 73.8281 12.375 73.8281C10.8994 73.8281 9.70312 74.6466 9.70312 75.6562C9.70312 76.6659 10.8994 77.4844 12.375 77.4844Z" fill="#699635"/>
<path d="M26.7188 73.4063C26.7188 73.4063 23.4844 77.625 16.4531 83.3906L16.875 87.1875L11.9531 86.0625L11.6719 81.9844C11.6719 81.9844 18.8437 75.375 20.3906 72.1406C20.25 72.1406 22.7812 72.9844 26.7188 73.4063Z" fill="#F9F3D9"/>
<path d="M59.2031 72.4219C59.2031 72.4219 60.4688 75.7969 70.0313 81.9844V86.0625L75.5156 84.375V80.1562C75.5156 80.1562 68.9063 75.5156 64.9688 70.875L59.2031 72.4219Z" fill="#F9F3D9"/>
<path d="M51.1875 67.9219L48.0938 67.7813L47.8125 73.5469L60.3281 81.5625L89.7188 73.5469L89.8594 68.4844L79.5938 61.3125L51.1875 67.9219Z" fill="#699635"/>
<path d="M48.6562 64.4063C48.6562 64.4063 51.75 70.3125 60.8906 75.6563C60.8906 75.6563 75.5156 75.6563 90 66.6563C90 66.6563 81.9844 62.0156 80.0156 56.25C80.0156 56.25 73.9688 64.125 48.6562 64.4063Z" fill="#83BF4F"/>
<path d="M54.9844 65.9531C54.9844 65.9531 55.6875 67.0781 53.4375 67.5L59.3438 72.1406C59.3438 72.1406 62.7188 71.2969 63.8438 73.2656C63.8438 73.2656 77.9063 70.7344 84.375 67.3594C84.375 67.3594 82.2656 66.375 84.375 65.1094C84.375 65.1094 81.8437 63 80.8594 61.5938C80.8594 61.5938 78.4688 62.2969 77.2031 60.6094C77.2031 60.75 72.1406 65.25 54.9844 65.9531V65.9531Z" stroke="#699635" stroke-miterlimit="10"/>
<path d="M65.8125 69.4687C65.25 70.1718 63.4219 70.4531 61.875 70.0312C60.3282 69.6093 59.625 68.625 60.1875 67.9218C60.75 67.2187 62.5782 66.9375 64.125 67.3594C65.6719 67.7812 66.375 68.625 65.8125 69.4687Z" fill="#699635"/>
<path d="M63 63.2812C63 63.2812 66.375 67.7812 73.5469 73.8281L73.4063 78.0469L78.3281 76.6406L78.4688 72.1406C78.4688 72.1406 71.1563 65.1094 69.3281 61.7344C69.4688 61.7344 67.0781 62.7187 63 63.2812Z" fill="#F9F3D9"/>
<path d="M64.6875 2.8125C64.6875 11.3906 53.5781 25.3125 45 25.3125C36.4219 25.3125 25.3125 12.7969 25.3125 4.21875C25.3125 -4.35938 26.5781 4.21875 35.1562 4.21875C36.4219 4.21875 42.3281 0 45 0C46.8281 0 52.0312 4.21875 54.8438 4.21875C62.2969 4.21875 64.6875 -3.65625 64.6875 2.8125Z" fill="#DBB471"/>
<path d="M42.4686 18.7031C41.6249 19.2656 37.5468 18.8438 36.2811 19.8281C34.5936 21.0938 36.9843 24.0469 35.2968 25.875C31.9218 29.25 29.2499 33.0469 30.0936 35.1563C31.4999 38.8125 34.1718 28.4063 36.5624 32.3438C38.953 36.2813 38.5311 29.6719 42.1874 33.0469C45.8436 36.4219 42.7499 27 46.2655 31.0781C49.7811 35.1563 49.9218 39.7969 52.453 39.7969C55.4061 39.7969 49.3593 28.6875 53.2968 31.3594C57.2343 34.0313 61.5936 33.0469 57.6561 28.9688C56.3905 27.7031 54.703 25.4531 52.7343 23.4844C52.0311 22.7813 52.5936 19.125 51.8905 18.5625C51.0468 17.8594 48.9374 20.1094 48.0936 19.6875C46.4061 18.8438 46.9686 20.3906 44.4374 20.8125C42.7499 21.375 44.1561 17.5781 42.4686 18.7031Z" fill="#89664C"/>
<path d="M26.2969 27C31.7812 21.7969 41.7656 24.75 47.6719 27.2813C53.4375 29.8125 56.9531 21.7969 53.2969 17.7188C51.1875 15.3281 47.8125 18.1406 46.5469 19.8281C45.1406 21.5156 44.0156 23.3438 42.4687 25.0313C40.2187 27.5625 34.7344 25.4531 36.4219 21.9375C38.25 18.2813 45.9844 22.5 48.5156 23.2031C53.4375 24.6094 58.6406 25.1719 63.5625 23.3438C65.25 22.7813 64.5469 19.9688 62.8594 20.6719C57.375 22.6406 51.8906 21.375 46.6875 19.6875C44.0156 18.8438 39.7969 16.5938 36.9844 17.8594C28.9687 21.6563 36.4219 32.4844 43.1719 28.2656C44.7187 27.2813 45.7031 25.7344 46.8281 24.3281C47.5312 23.4844 51.0469 18.1406 51.8906 20.8125C52.3125 22.2188 51.8906 24.75 50.3437 25.1719C49.3594 25.5938 47.3906 24.1875 46.4062 23.9063C44.5781 23.2031 42.75 22.6406 40.7812 22.2188C35.5781 21.0938 28.5469 21.375 24.4687 25.1719C23.0625 26.2969 25.0312 28.2656 26.2969 27Z" fill="#E8E8E8"/>
<path d="M63 0.703125C61.5938 1.82812 59.0625 4.21875 54.8438 4.21875C52.0312 4.21875 46.8281 0 45 0C42.3281 0 36.4219 4.21875 35.1562 4.21875C30.5156 4.21875 27.9844 1.82812 26.7188 0.84375C26.7188 0.84375 28.2656 7.17188 33.0469 10.4062C36.5625 12.6562 36.1406 9.98438 37.9688 7.45313C39.7969 4.92188 41.0625 3.65625 44.2969 9.98438C45.9844 13.5 49.2187 0.421875 51.75 4.64062C56.3906 12.375 58.0781 8.15625 63 0.703125Z" fill="#89664C"/>
<path d="M73.6875 73.6875L73.5469 77.9063L78.4688 76.5L78.6094 72C78.6094 72.1406 75.6563 73.2656 73.6875 73.6875Z" fill="#DBB471"/>
<path d="M70.0312 82.125V86.2032L75.5156 84.5156V80.2969C75.375 80.1563 73.9688 81 70.0312 82.125Z" fill="#DBB471"/>
<path d="M16.4534 83.25L16.8752 87.1875L11.9534 86.0625L11.6721 81.9844C11.5315 81.9844 13.5002 82.6875 16.4534 83.25Z" fill="#DBB471"/>
</g>
<defs>
<clipPath id="clip0_11069_549">
<rect width="90" height="90" fill="white"/>
</clipPath>
</defs>
</svg>
