<svg width="302" height="32" viewBox="0 0 302 32" fill="none" xmlns="http://www.w3.org/2000/svg">
<rect x="130.4" y="0.4" width="48.2416" height="30.6247" rx="2.04781" fill="white" stroke="#EEEEEE" stroke-width="0.8"/>
<path fill-rule="evenodd" clip-rule="evenodd" d="M169.436 13.1338C170.564 13.1338 171.185 13.6557 171.185 14.6414C171.241 15.3952 170.733 16.033 170.057 16.149L171.579 18.2944H170.395L169.098 16.207H168.985V18.2944H168.026V13.1338H169.436ZM168.985 15.5112H169.267C169.887 15.5112 170.169 15.2213 170.169 14.6995C170.169 14.2356 169.887 13.9457 169.267 13.9457H168.985V15.5112ZM164.698 18.2944H167.406V17.4246H165.657V16.033H167.349V15.1632H165.657V14.0036H167.406V13.1338H164.698V18.2944ZM161.878 16.6128L160.58 13.1338H159.565L161.652 18.4103H162.16L164.247 13.1338H163.231L161.878 16.6128ZM150.427 15.7431C150.427 17.1927 151.556 18.4103 152.966 18.4103C153.417 18.4103 153.812 18.2944 154.207 18.1204V16.9607C153.925 17.3086 153.53 17.5406 153.078 17.5406C152.176 17.5406 151.443 16.8448 151.443 15.917V15.8011C151.386 14.8733 152.12 14.0615 153.022 14.0036C153.473 14.0036 153.925 14.2355 154.207 14.5834V13.4237C153.868 13.1918 153.417 13.1338 153.022 13.1338C151.556 13.0178 150.427 14.2355 150.427 15.7431ZM148.679 15.1052C148.115 14.8733 147.945 14.7573 147.945 14.4674C148.002 14.1195 148.284 13.8296 148.622 13.8876C148.904 13.8876 149.186 14.0615 149.412 14.2935L149.92 13.5977C149.525 13.2498 149.017 13.0178 148.51 13.0178C147.72 12.9598 147.043 13.5977 146.987 14.4094V14.4674C146.987 15.1632 147.269 15.5691 148.171 15.859C148.397 15.917 148.622 16.033 148.848 16.149C149.017 16.2649 149.13 16.4389 149.13 16.6708C149.13 17.0767 148.792 17.4246 148.453 17.4246H148.397C147.945 17.4246 147.551 17.1347 147.381 16.7288L146.761 17.3666C147.099 18.0044 147.776 18.3523 148.453 18.3523C149.356 18.4103 150.089 17.7145 150.145 16.7868V16.6128C150.089 15.917 149.807 15.5691 148.679 15.1052ZM145.407 18.2944H146.366V13.1338H145.407V18.2944ZM140.951 13.1338H142.361H142.643C143.997 13.1918 145.069 14.3515 145.012 15.7431C145.012 16.4969 144.674 17.1927 144.11 17.7145C143.602 18.1204 142.982 18.3524 142.361 18.2944H140.951V13.1338ZM142.192 17.4246C142.643 17.4826 143.151 17.3087 143.489 17.0188C143.828 16.6709 143.997 16.207 143.997 15.6851C143.997 15.2213 143.828 14.7574 143.489 14.4095C143.151 14.1196 142.643 13.9456 142.192 14.0036H141.91V17.4246H142.192Z" fill="black"/>
<path fill-rule="evenodd" clip-rule="evenodd" d="M157.083 13.0142C155.673 13.0142 154.489 14.1738 154.489 15.6814C154.489 17.131 155.617 18.3487 157.083 18.4067C158.55 18.4646 159.678 17.247 159.735 15.7394C159.678 14.2318 158.55 13.0142 157.083 13.0142V13.0142Z" fill="#FD6020"/>
<rect x="0.4" y="0.4" width="48.2416" height="30.6247" rx="2.04781" fill="white" stroke="#FAB613" stroke-width="0.8"/>
<path fill-rule="evenodd" clip-rule="evenodd" d="M16.8642 21.0002H14.2132L12.2254 13.1933C12.131 12.8342 11.9307 12.5167 11.636 12.3671C10.9005 11.991 10.0901 11.6918 9.20605 11.5408V11.2403H13.4765C14.0659 11.2403 14.5079 11.6918 14.5816 12.2161L15.613 17.8475L18.2627 11.2403H20.8399L16.8642 21.0002ZM22.3134 21.0002H19.8098L21.8714 11.2403H24.375L22.3134 21.0002ZM27.614 13.944C27.6877 13.4184 28.1297 13.1178 28.6454 13.1178C29.4558 13.0423 30.3386 13.1933 31.0753 13.568L31.5174 11.4666C30.7806 11.1661 29.9702 11.0151 29.2348 11.0151C26.8049 11.0151 25.0367 12.367 25.0367 14.2433C25.0367 15.6707 26.2892 16.4201 27.1732 16.8716C28.1297 17.3218 28.4981 17.6224 28.4244 18.0726C28.4244 18.7479 27.6877 19.0485 26.9522 19.0485C26.0681 19.0485 25.1841 18.8234 24.375 18.4473L23.9329 20.55C24.817 20.9247 25.7734 21.0757 26.6575 21.0757C29.3821 21.1498 31.0753 19.7992 31.0753 17.772C31.0753 15.2192 27.614 15.0695 27.614 13.944ZM39.8373 21.0002L37.8494 11.2403H35.7142C35.2721 11.2403 34.8301 11.5408 34.6827 11.991L31.0017 21.0002H33.5789L34.0933 19.5742H37.26L37.5547 21.0002H39.8373ZM36.0825 13.8686L36.8179 17.547H34.7564L36.0825 13.8686Z" fill="#172B85"/>
<rect x="65.4" y="0.4" width="48.2416" height="30.6247" rx="2.04781" fill="white" stroke="#EEEEEE" stroke-width="0.8"/>
<path fill-rule="evenodd" clip-rule="evenodd" d="M84.74 21.956V22.7841V23.6122H84.3775V23.4111C84.2625 23.5602 84.0881 23.6538 83.8509 23.6538C83.3834 23.6538 83.0169 23.2901 83.0169 22.7841C83.0169 22.2784 83.3834 21.9144 83.8509 21.9144C84.0881 21.9144 84.2625 22.008 84.3775 22.1571V21.956H84.74ZM83.896 22.2538C83.5822 22.2538 83.3902 22.493 83.3902 22.7841C83.3902 23.0752 83.5822 23.3143 83.896 23.3143C84.1959 23.3143 84.3983 23.0855 84.3983 22.7841C84.3983 22.4827 84.1959 22.2538 83.896 22.2538ZM96.99 22.7841C96.99 22.493 97.1821 22.2538 97.4959 22.2538C97.7961 22.2538 97.9981 22.4827 97.9981 22.7841C97.9981 23.0855 97.7961 23.3143 97.4959 23.3143C97.1821 23.3143 96.99 23.0752 96.99 22.7841ZM98.3403 21.2909V22.7841V23.6122H97.9774V23.4111C97.8624 23.5602 97.6879 23.6538 97.4508 23.6538C96.9833 23.6538 96.6168 23.2901 96.6168 22.7841C96.6168 22.2784 96.9833 21.9144 97.4508 21.9144C97.6879 21.9144 97.8624 22.008 97.9774 22.1571V21.2909H98.3403ZM89.2398 22.2368C89.4733 22.2368 89.6234 22.3824 89.6617 22.6385H88.7966C88.8353 22.3994 88.9815 22.2368 89.2398 22.2368ZM88.4166 22.7841C88.4166 22.2677 88.7583 21.9144 89.247 21.9144C89.7141 21.9144 90.0351 22.2677 90.0387 22.7841C90.0387 22.8325 90.0351 22.8777 90.0315 22.9225H88.7935C88.8457 23.2207 89.0585 23.3282 89.2921 23.3282C89.4594 23.3282 89.6374 23.2655 89.7772 23.1549L89.9548 23.4218C89.7524 23.5915 89.5224 23.6538 89.2713 23.6538C88.7723 23.6538 88.4166 23.3108 88.4166 22.7841ZM93.6242 22.7841C93.6242 22.493 93.8162 22.2538 94.13 22.2538C94.4298 22.2538 94.6322 22.4827 94.6322 22.7841C94.6322 23.0855 94.4298 23.3143 94.13 23.3143C93.8162 23.3143 93.6242 23.0752 93.6242 22.7841ZM94.974 21.956V22.7841V23.6122H94.6115V23.4111C94.4961 23.5602 94.322 23.6538 94.0849 23.6538C93.6174 23.6538 93.2509 23.2901 93.2509 22.7841C93.2509 22.2784 93.6174 21.9144 94.0849 21.9144C94.322 21.9144 94.4961 22.008 94.6115 22.1571V21.956H94.974ZM91.5769 22.7841C91.5769 23.2866 91.929 23.6538 92.4664 23.6538C92.7175 23.6538 92.8848 23.5983 93.066 23.4563L92.8919 23.1652C92.7558 23.2624 92.6129 23.3143 92.4556 23.3143C92.1661 23.3108 91.9534 23.1029 91.9534 22.7841C91.9534 22.4652 92.1661 22.2574 92.4556 22.2539C92.6129 22.2539 92.7558 22.3058 92.8919 22.403L93.066 22.1119C92.8848 21.9699 92.7175 21.9144 92.4664 21.9144C91.929 21.9144 91.5769 22.2816 91.5769 22.7841ZM95.8111 22.1571C95.9053 22.0115 96.0414 21.9144 96.2506 21.9144C96.3241 21.9144 96.4287 21.9282 96.5089 21.9596L96.3972 22.2991C96.3205 22.2677 96.2439 22.2574 96.1704 22.2574C95.9333 22.2574 95.8147 22.4097 95.8147 22.6837V23.6122H95.4518V21.956H95.8111V22.1571ZM86.533 22.0877C86.3585 21.9735 86.1182 21.9144 85.8531 21.9144C85.4307 21.9144 85.1588 22.1154 85.1588 22.4446C85.1588 22.7147 85.3612 22.8813 85.7341 22.9332L85.9054 22.9574C86.1042 22.9852 86.198 23.0371 86.198 23.1307C86.198 23.2588 86.0655 23.3318 85.8179 23.3318C85.5668 23.3318 85.3856 23.2521 85.2634 23.1585L85.0925 23.4389C85.2914 23.5844 85.5425 23.6538 85.8143 23.6538C86.2958 23.6538 86.5749 23.4285 86.5749 23.1133C86.5749 22.8222 86.3553 22.6699 85.9924 22.6179L85.8215 22.5933C85.6646 22.5727 85.5389 22.5418 85.5389 22.4307C85.5389 22.3094 85.6575 22.2368 85.8563 22.2368C86.0691 22.2368 86.2751 22.3165 86.3761 22.3788L86.533 22.0877ZM90.7713 22.1571C90.8651 22.0115 91.0012 21.9144 91.2104 21.9144C91.2839 21.9144 91.3885 21.9282 91.4687 21.9596L91.3569 22.2991C91.2803 22.2677 91.2036 22.2574 91.1302 22.2574C90.893 22.2574 90.7744 22.4097 90.7744 22.6837V23.6122H90.4119V21.956H90.7713V22.1571ZM88.1167 21.956H87.5238V21.4535H87.1573V21.956H86.8192V22.2852H87.1573V23.0407C87.1573 23.425 87.3074 23.6538 87.7362 23.6538C87.8935 23.6538 88.0748 23.6054 88.1897 23.5257L88.0851 23.2172C87.9769 23.2794 87.8584 23.3108 87.7642 23.3108C87.5829 23.3108 87.5238 23.1997 87.5238 23.0335V22.2852H88.1167V21.956ZM82.6964 22.5727V23.6122H82.3299V22.6905C82.3299 22.4097 82.2113 22.2538 81.9638 22.2538C81.723 22.2538 81.5557 22.4065 81.5557 22.6941V23.6122H81.1893V22.6905C81.1893 22.4097 81.0675 22.2538 80.8268 22.2538C80.5788 22.2538 80.4183 22.4065 80.4183 22.6941V23.6122H80.0522V21.956H80.4151V22.1602C80.5513 21.9663 80.7253 21.9144 80.9034 21.9144C81.1581 21.9144 81.3394 22.0254 81.4543 22.209C81.608 21.9766 81.8276 21.9108 82.0404 21.9144C82.4452 21.9179 82.6964 22.1813 82.6964 22.5727Z" fill="#231F20"/>
<path d="M91.9068 19.1419H86.4126V9.3335H91.9068V19.1419Z" fill="#FF5F00"/>
<path d="M86.761 14.2377C86.761 12.248 87.6988 10.4756 89.1592 9.33348C88.0913 8.49827 86.7435 7.99976 85.2787 7.99976C81.811 7.99976 79 10.7925 79 14.2377C79 17.6828 81.811 20.4756 85.2787 20.4756C86.7435 20.4756 88.0913 19.9771 89.1592 19.1419C87.6988 17.9997 86.761 16.2273 86.761 14.2377Z" fill="#EB001B"/>
<path d="M99.3188 14.2377C99.3188 17.6828 96.5078 20.4756 93.0401 20.4756C91.5753 20.4756 90.2275 19.9771 89.1592 19.1419C90.62 17.9997 91.5578 16.2273 91.5578 14.2377C91.5578 12.248 90.62 10.4756 89.1592 9.33348C90.2275 8.49827 91.5753 7.99976 93.0401 7.99976C96.5078 7.99976 99.3188 10.7925 99.3188 14.2377Z" fill="#F79E1B"/>
<rect x="191.4" y="0.4" width="47.5788" height="30.2" rx="2.05" fill="white" stroke="#EEEEEE" stroke-width="0.8"/>
<path d="M218.358 19.9402H211.977V8.54883H218.358V19.9402Z" fill="#6C6BBD"/>
<path d="M212.382 14.2446C212.382 11.9338 213.471 9.87539 215.167 8.54888C213.927 7.57887 212.361 6.9999 210.66 6.9999C206.633 6.9999 203.368 10.2434 203.368 14.2446C203.368 18.2458 206.633 21.4893 210.66 21.4893C212.361 21.4893 213.927 20.9103 215.167 19.9403C213.471 18.6138 212.382 16.5554 212.382 14.2446Z" fill="#EB001B"/>
<path d="M226.966 14.2446C226.966 18.2458 223.702 21.4893 219.674 21.4893C217.973 21.4893 216.408 20.9103 215.167 19.9403C216.864 18.6138 217.953 16.5554 217.953 14.2446C217.953 11.9338 216.864 9.87539 215.167 8.54888C216.408 7.57887 217.973 6.9999 219.674 6.9999C223.702 6.9999 226.966 10.2434 226.966 14.2446Z" fill="#0099DF"/>
<path d="M220.517 23.1591C220.602 23.1591 220.723 23.1752 220.817 23.2116L220.687 23.6058C220.598 23.5694 220.509 23.5575 220.423 23.5575C220.148 23.5575 220.01 23.7343 220.01 24.0521V25.1309H219.589V23.2074H220.006V23.4409C220.116 23.2719 220.274 23.1591 220.517 23.1591Z" fill="#231F20"/>
<path d="M218.96 23.5897H218.271V24.4588C218.271 24.6518 218.34 24.7808 218.551 24.7808C218.66 24.7808 218.798 24.7444 218.923 24.6721L219.044 25.03C218.911 25.1225 218.7 25.1792 218.518 25.1792C218.02 25.1792 217.846 24.9134 217.846 24.4667V23.5897H217.453V23.2074H217.846V22.6238H218.271V23.2074H218.96V23.5897Z" fill="#231F20"/>
<path fill-rule="evenodd" clip-rule="evenodd" d="M214.09 23.1587C214.633 23.1587 215.006 23.5691 215.01 24.1688C215.01 24.2245 215.006 24.2762 215.002 24.3283L215.002 24.3295H213.564C213.625 24.6754 213.872 24.8002 214.143 24.8002C214.338 24.8002 214.544 24.7279 214.706 24.599L214.913 24.9089C214.678 25.1061 214.411 25.1784 214.119 25.1784C213.54 25.1784 213.126 24.78 213.126 24.1688C213.126 23.5691 213.523 23.1587 214.09 23.1587ZM214.083 23.5328C213.783 23.5328 213.613 23.7221 213.568 23.9998H214.573C214.528 23.7018 214.354 23.5328 214.083 23.5328Z" fill="#231F20"/>
<path d="M216.861 23.6984C216.744 23.6256 216.505 23.533 216.258 23.533C216.027 23.533 215.889 23.6178 215.889 23.7587C215.889 23.8872 216.035 23.9236 216.217 23.9476L216.416 23.9757C216.837 24.0365 217.092 24.2133 217.092 24.5514C217.092 24.9176 216.768 25.1792 216.209 25.1792C215.893 25.1792 215.602 25.0986 215.371 24.9296L215.569 24.6035C215.711 24.7122 215.922 24.8047 216.214 24.8047C216.501 24.8047 216.655 24.7204 216.655 24.5712C216.655 24.463 216.546 24.4022 216.315 24.3704L216.116 24.3423C215.683 24.2815 215.448 24.0885 215.448 23.7748C215.448 23.3926 215.764 23.159 216.254 23.159C216.562 23.159 216.841 23.2277 217.044 23.3603L216.861 23.6984Z" fill="#231F20"/>
<path fill-rule="evenodd" clip-rule="evenodd" d="M222.474 23.2365C222.346 23.1845 222.207 23.1587 222.056 23.1587C221.906 23.1587 221.767 23.1845 221.639 23.2365C221.511 23.2881 221.401 23.3595 221.308 23.4502C221.216 23.541 221.143 23.6483 221.09 23.7717C221.037 23.8956 221.011 24.0301 221.011 24.1752C221.011 24.3203 221.037 24.4548 221.09 24.5787C221.143 24.7021 221.216 24.8099 221.308 24.9007C221.401 24.9914 221.511 25.0623 221.639 25.1144C221.767 25.166 221.906 25.1918 222.056 25.1918C222.207 25.1918 222.346 25.166 222.474 25.1144C222.602 25.0623 222.712 24.9914 222.806 24.9007C222.899 24.8099 222.972 24.7021 223.025 24.5787C223.078 24.4548 223.104 24.3203 223.104 24.1752C223.104 24.0301 223.078 23.8956 223.025 23.7717C222.972 23.6483 222.899 23.541 222.806 23.4502C222.712 23.3595 222.602 23.2881 222.474 23.2365ZM221.815 23.6013C221.889 23.5713 221.97 23.5561 222.056 23.5561C222.143 23.5561 222.224 23.5713 222.298 23.6013C222.372 23.6317 222.437 23.6741 222.492 23.7284C222.547 23.7828 222.589 23.8482 222.621 23.9242C222.652 24.0002 222.667 24.084 222.667 24.1752C222.667 24.2668 222.652 24.3502 222.621 24.4262C222.589 24.5022 222.547 24.5676 222.492 24.622C222.437 24.6763 222.372 24.7187 222.298 24.7491C222.224 24.7795 222.143 24.7942 222.056 24.7942C221.97 24.7942 221.889 24.7795 221.815 24.7491C221.741 24.7187 221.676 24.6763 221.622 24.622C221.568 24.5676 221.525 24.5022 221.494 24.4262C221.463 24.3502 221.447 24.2668 221.447 24.1752C221.447 24.084 221.463 24.0002 221.494 23.9242C221.525 23.8482 221.568 23.7828 221.622 23.7284C221.676 23.6741 221.741 23.6317 221.815 23.6013Z" fill="#231F20"/>
<path fill-rule="evenodd" clip-rule="evenodd" d="M212.675 23.2071V24.1688V25.1305H212.254V24.897C212.12 25.0702 211.917 25.1789 211.642 25.1789C211.099 25.1789 210.674 24.756 210.674 24.1688C210.674 23.5811 211.099 23.1587 211.642 23.1587C211.917 23.1587 212.12 23.2674 212.254 23.4406V23.2071H212.675ZM211.694 23.553C211.33 23.553 211.107 23.8307 211.107 24.1688C211.107 24.5069 211.33 24.7842 211.694 24.7842C212.043 24.7842 212.278 24.5189 212.278 24.1688C212.278 23.8187 212.043 23.553 211.694 23.553Z" fill="#231F20"/>
<path d="M210.301 25.1309V23.9236C210.301 23.469 210.009 23.1632 209.54 23.1591C209.292 23.1549 209.037 23.2314 208.859 23.5013C208.725 23.288 208.514 23.1591 208.219 23.1591C208.012 23.1591 207.81 23.2194 207.651 23.4446V23.2074H207.23V25.1309H207.656V24.0646C207.656 23.7307 207.842 23.5533 208.13 23.5533C208.409 23.5533 208.551 23.7343 208.551 24.0604V25.1309H208.976V24.0646C208.976 23.7307 209.171 23.5533 209.45 23.5533C209.738 23.5533 209.876 23.7343 209.876 24.0604V25.1309H210.301V25.1309Z" fill="#231F20"/>
<rect x="254.5" y="0.5" width="47" height="30" rx="1.95" fill="white" stroke="#EEEEEE"/>
<path fill-rule="evenodd" clip-rule="evenodd" d="M266.604 12H264.268C264.108 12 263.972 12.1154 263.947 12.2722L263.002 18.2227C262.984 18.3402 263.075 18.4459 263.195 18.4459H264.31C264.47 18.4459 264.606 18.3307 264.631 18.1736L264.886 16.5686C264.911 16.4114 265.047 16.2961 265.206 16.2961H265.946C267.485 16.2961 268.373 15.5563 268.605 14.0906C268.71 13.4492 268.609 12.9454 268.307 12.5925C267.975 12.205 267.386 12 266.604 12ZM266.874 14.1734C266.746 15.006 266.105 15.006 265.486 15.006H265.134L265.381 13.4509C265.396 13.3569 265.478 13.2877 265.573 13.2877H265.735C266.157 13.2877 266.555 13.2877 266.76 13.5266C266.883 13.6691 266.92 13.8808 266.874 14.1734Z" fill="#28356A"/>
<path fill-rule="evenodd" clip-rule="evenodd" d="M273.647 14.1016H272.529C272.433 14.1016 272.351 14.1708 272.336 14.2648L272.287 14.5756L272.208 14.463C271.966 14.1138 271.426 13.9971 270.887 13.9971C269.651 13.9971 268.595 14.9272 268.389 16.2318C268.283 16.8826 268.434 17.5049 268.806 17.9389C269.147 18.3379 269.635 18.5042 270.215 18.5042C271.211 18.5042 271.764 17.868 271.764 17.868L271.714 18.1768C271.695 18.2948 271.787 18.4007 271.906 18.4007H272.913C273.074 18.4007 273.209 18.2853 273.234 18.1282L273.839 14.3249C273.858 14.2078 273.767 14.1016 273.647 14.1016ZM272.088 16.2644C271.98 16.8992 271.473 17.3254 270.826 17.3254C270.501 17.3254 270.241 17.2219 270.074 17.0258C269.909 16.8311 269.846 16.5538 269.899 16.245C270 15.6157 270.515 15.1755 271.153 15.1755C271.47 15.1755 271.729 15.2804 271.899 15.4781C272.069 15.678 272.137 15.957 272.088 16.2644Z" fill="#28356A"/>
<path fill-rule="evenodd" clip-rule="evenodd" d="M279.519 14.1968H278.395C278.288 14.1968 278.187 14.2497 278.126 14.3383L276.576 16.6069L275.919 14.4268C275.877 14.2904 275.751 14.1968 275.607 14.1968H274.502C274.368 14.1968 274.275 14.3271 274.318 14.4526L275.556 18.0622L274.392 19.6947C274.3 19.8233 274.392 20 274.551 20H275.673C275.78 20 275.88 19.9484 275.94 19.8617L279.679 14.5004C279.769 14.3722 279.677 14.1968 279.519 14.1968Z" fill="#28356A"/>
<path fill-rule="evenodd" clip-rule="evenodd" d="M283.267 12H280.931C280.771 12 280.635 12.1154 280.61 12.2722L279.666 18.2227C279.647 18.3402 279.738 18.4459 279.858 18.4459H281.057C281.168 18.4459 281.263 18.3653 281.281 18.2553L281.549 16.5686C281.573 16.4114 281.71 16.2961 281.869 16.2961H282.608C284.148 16.2961 285.035 15.5563 285.268 14.0906C285.373 13.4492 285.272 12.9454 284.969 12.5925C284.638 12.205 284.049 12 283.267 12ZM283.537 14.1734C283.409 15.006 282.769 15.006 282.149 15.006H281.797L282.045 13.4509C282.059 13.3569 282.141 13.2877 282.237 13.2877H282.398C282.82 13.2877 283.218 13.2877 283.424 13.5266C283.546 13.6691 283.584 13.8808 283.537 14.1734Z" fill="#298FC2"/>
<path fill-rule="evenodd" clip-rule="evenodd" d="M290.308 14.1016H289.19C289.094 14.1016 289.013 14.1708 288.998 14.2648L288.949 14.5756L288.87 14.463C288.628 14.1138 288.088 13.9971 287.549 13.9971C286.313 13.9971 285.258 14.9272 285.052 16.2318C284.945 16.8826 285.097 17.5049 285.468 17.9389C285.81 18.3379 286.297 18.5042 286.877 18.5042C287.873 18.5042 288.426 17.868 288.426 17.868L288.376 18.1768C288.357 18.2948 288.449 18.4007 288.569 18.4007H289.576C289.735 18.4007 289.871 18.2853 289.896 18.1282L290.501 14.3249C290.52 14.2078 290.428 14.1016 290.308 14.1016ZM288.749 16.2644C288.642 16.8992 288.134 17.3254 287.487 17.3254C287.163 17.3254 286.902 17.2219 286.736 17.0258C286.57 16.8311 286.508 16.5538 286.56 16.245C286.661 15.6157 287.177 15.1755 287.814 15.1755C288.131 15.1755 288.39 15.2804 288.56 15.4781C288.731 15.678 288.798 15.957 288.749 16.2644Z" fill="#298FC2"/>
<path fill-rule="evenodd" clip-rule="evenodd" d="M291.534 12.1636L290.575 18.223C290.556 18.3404 290.648 18.4462 290.767 18.4462H291.731C291.891 18.4462 292.027 18.3309 292.052 18.1738L292.997 12.2236C293.016 12.1062 292.925 12 292.805 12H291.726C291.631 12.0003 291.549 12.0696 291.534 12.1636Z" fill="#298FC2"/>
</svg>
