<svg width="50" height="36" viewBox="0 0 50 36" fill="none" xmlns="http://www.w3.org/2000/svg">
<path d="M24.8686 0.853638C20.5626 0.853638 17.072 4.92905 17.072 9.95633C17.072 13.4429 18.751 16.471 21.2165 17.9999L18.3574 19.325L10.7491 22.8536C10.0141 23.2212 9.64729 23.8444 9.64729 24.7264V33.1057C9.70775 34.1533 10.3363 35.1297 11.3555 35.1462H38.423C39.5865 35.0451 40.175 34.1079 40.1865 33.1057V24.7264C40.1865 23.8444 39.8197 23.2212 39.0847 22.8536L31.7519 19.325L28.7045 17.8812C31.0688 16.3179 32.6653 13.3552 32.6653 9.95637C32.6653 4.92905 29.1746 0.853638 24.8686 0.853638ZM12.2926 4.05463C10.4396 4.12501 8.971 4.92684 7.85525 6.20446C6.62108 7.74271 6.01942 9.56904 6.00779 11.3859C6.08358 14.0724 7.28567 16.6158 9.42567 17.9461L0.881792 21.9165C0.29375 22.137 0 22.6514 0 23.46V30.1849C0.0459167 31.0768 0.509 31.8263 1.37729 31.8392H7.05579V24.7264C7.14975 22.8248 8.04275 21.2877 9.64729 20.5376L15.3243 17.8369C15.7653 17.5797 16.188 17.2299 16.5923 16.7889C14.2516 13.1774 13.9266 8.85183 15.4351 5.04726C14.454 4.4468 13.3513 4.06092 12.2926 4.05463ZM37.6504 4.05463C36.4386 4.08001 35.3187 4.52626 34.3988 5.15646C35.8661 8.9955 35.4614 13.3238 33.2953 16.6781C33.7731 17.2294 34.2705 17.6522 34.785 17.9462L40.2419 20.5376C41.9043 21.4494 42.7615 23.0001 42.778 24.7265V31.8393H48.6211C49.5821 31.7563 49.9917 30.9898 50 30.1849V23.46C50 22.725 49.7063 22.2106 49.1182 21.9165L40.6836 17.8907C42.871 16.2779 43.9694 13.8607 43.9906 11.3859C43.9325 9.42704 43.3341 7.60821 42.1432 6.20446C40.8988 4.85451 39.3553 4.06892 37.6504 4.05463Z" fill="#C4A7D8"/>
</svg>
