<svg width="16" height="14" viewBox="0 0 16 14" fill="none" xmlns="http://www.w3.org/2000/svg">
<path d="M1.33333 2.99998H0V6.33331H0.00666667L0 12.3333C0 13.0666 0.6 13.6666 1.33333 13.6666H13.3333V12.3333H1.33333V2.99998ZM4.66667 8.99998H14L11.6667 5.99998L10 8.00665L7.66667 4.99998L4.66667 8.99998ZM14.6667 1.66665H9.33333L8 0.333313H4C3.26667 0.333313 2.67333 0.933313 2.67333 1.66665L2.66667 9.66665C2.66667 10.4 3.26667 11 4 11H14.6667C15.4 11 16 10.4 16 9.66665V2.99998C16 2.26665 15.4 1.66665 14.6667 1.66665ZM14.6667 9.66665H4V1.66665H7.44667L8.38667 2.60665L8.78 2.99998H14.6667V9.66665Z" fill="#5C2682"/>
</svg>
