<svg width="16" height="18" viewBox="0 0 16 18" fill="none" xmlns="http://www.w3.org/2000/svg">
<path d="M13.1562 12.2656C12.5439 12.2656 11.9789 12.4805 11.5363 12.8393L7.08477 9.61875C7.1593 9.20962 7.1593 8.79038 7.08477 8.38125L11.5363 5.16074C11.9789 5.51953 12.5439 5.73438 13.1562 5.73438C14.5785 5.73438 15.7344 4.57852 15.7344 3.15625C15.7344 1.73398 14.5785 0.578125 13.1562 0.578125C11.734 0.578125 10.5781 1.73398 10.5781 3.15625C10.5781 3.40547 10.6125 3.64394 10.6791 3.87168L6.45098 6.9332C5.82363 6.10176 4.82676 5.5625 3.70312 5.5625C1.80391 5.5625 0.265625 7.10078 0.265625 9C0.265625 10.8992 1.80391 12.4375 3.70312 12.4375C4.82676 12.4375 5.82363 11.8982 6.45098 11.0668L10.6791 14.1283C10.6125 14.3561 10.5781 14.5967 10.5781 14.8438C10.5781 16.266 11.734 17.4219 13.1562 17.4219C14.5785 17.4219 15.7344 16.266 15.7344 14.8438C15.7344 13.4215 14.5785 12.2656 13.1562 12.2656ZM13.1562 2.03906C13.7729 2.03906 14.2734 2.53965 14.2734 3.15625C14.2734 3.77285 13.7729 4.27344 13.1562 4.27344C12.5396 4.27344 12.0391 3.77285 12.0391 3.15625C12.0391 2.53965 12.5396 2.03906 13.1562 2.03906ZM3.70312 10.8906C2.66113 10.8906 1.8125 10.042 1.8125 9C1.8125 7.95801 2.66113 7.10938 3.70312 7.10938C4.74512 7.10938 5.59375 7.95801 5.59375 9C5.59375 10.042 4.74512 10.8906 3.70312 10.8906ZM13.1562 15.9609C12.5396 15.9609 12.0391 15.4604 12.0391 14.8438C12.0391 14.2271 12.5396 13.7266 13.1562 13.7266C13.7729 13.7266 14.2734 14.2271 14.2734 14.8438C14.2734 15.4604 13.7729 15.9609 13.1562 15.9609Z" fill="white"/>
</svg>
