<svg width="14" height="16" viewBox="0 0 14 16" fill="none" xmlns="http://www.w3.org/2000/svg">
<path d="M9.92329 10.2922C10.3487 10.0637 10.8356 9.93359 11.3541 9.93359H11.3559C11.4086 9.93359 11.4332 9.87031 11.3946 9.83516C10.8553 9.35119 10.2393 8.96031 9.57172 8.67852C9.56469 8.675 9.55766 8.67324 9.55063 8.66973C10.6422 7.87695 11.3524 6.58848 11.3524 5.13477C11.3524 2.72656 9.40473 0.775391 7.0018 0.775391C4.59887 0.775391 2.65297 2.72656 2.65297 5.13477C2.65297 6.58848 3.36313 7.87695 4.45649 8.66973C4.44946 8.67324 4.44243 8.675 4.4354 8.67852C3.64965 9.01074 2.94477 9.48711 2.33833 10.0953C1.73538 10.6972 1.25536 11.4106 0.925044 12.1959C0.600047 12.9649 0.42465 13.7888 0.408247 14.6234C0.407778 14.6422 0.411069 14.6609 0.417925 14.6783C0.424782 14.6958 0.435066 14.7117 0.448171 14.7252C0.461276 14.7386 0.476938 14.7493 0.494233 14.7565C0.511527 14.7638 0.530105 14.7676 0.548872 14.7676H1.6018C1.67739 14.7676 1.74067 14.7061 1.74243 14.6305C1.77758 13.2734 2.32075 12.0025 3.28227 11.0393C4.27543 10.0426 5.59731 9.49414 7.00356 9.49414C8.00024 9.49414 8.95649 9.77012 9.7809 10.2869C9.80208 10.3002 9.82639 10.3077 9.85139 10.3086C9.87638 10.3096 9.90118 10.3039 9.92329 10.2922ZM7.00356 8.1582C6.19848 8.1582 5.44086 7.84355 4.86958 7.27227C4.58849 6.99191 4.36566 6.65871 4.21391 6.29186C4.06216 5.92501 3.9845 5.53176 3.9854 5.13477C3.9854 4.32793 4.30004 3.56855 4.86958 2.99727C5.43911 2.42598 6.19672 2.11133 7.00356 2.11133C7.8104 2.11133 8.56625 2.42598 9.13754 2.99727C9.41863 3.27762 9.64146 3.61082 9.79321 3.97767C9.94496 4.34452 10.0226 4.73777 10.0217 5.13477C10.0217 5.9416 9.70708 6.70098 9.13754 7.27227C8.56625 7.84355 7.80864 8.1582 7.00356 8.1582ZM13.4688 12.3418H11.9922V10.8652C11.9922 10.7879 11.929 10.7246 11.8516 10.7246H10.8672C10.7899 10.7246 10.7266 10.7879 10.7266 10.8652V12.3418H9.25004C9.1727 12.3418 9.10942 12.4051 9.10942 12.4824V13.4668C9.10942 13.5441 9.1727 13.6074 9.25004 13.6074H10.7266V15.084C10.7266 15.1613 10.7899 15.2246 10.8672 15.2246H11.8516C11.929 15.2246 11.9922 15.1613 11.9922 15.084V13.6074H13.4688C13.5461 13.6074 13.6094 13.5441 13.6094 13.4668V12.4824C13.6094 12.4051 13.5461 12.3418 13.4688 12.3418Z" fill="white"/>
</svg>
