<svg width="38" height="38" viewBox="0 0 38 38" fill="none" xmlns="http://www.w3.org/2000/svg">
<path d="M33.1081 30.7206C34.993 28.4527 36.304 25.7643 36.9301 22.8826C37.5562 20.0009 37.4791 17.0108 36.7052 14.1653C35.9313 11.3197 34.4835 8.7024 32.4842 6.53473C30.4848 4.36707 27.9928 2.71284 25.219 1.71196C22.4451 0.71109 19.471 0.393025 16.5482 0.784675C13.6254 1.17633 10.84 2.26617 8.42744 3.96201C6.01494 5.65785 4.04636 7.9098 2.68824 10.5274C1.33012 13.1449 0.622424 16.0511 0.625007 19C0.625998 23.2868 2.13667 27.4364 4.89194 30.7206L4.86569 30.7429C4.95757 30.8532 5.06257 30.9477 5.15707 31.0566C5.2752 31.1918 5.40251 31.3191 5.52457 31.4503C5.89207 31.8493 6.27007 32.2326 6.66645 32.5922C6.7872 32.7025 6.91188 32.8048 7.03394 32.9098C7.45394 33.2721 7.88576 33.616 8.33332 33.9362C8.39107 33.9756 8.44357 34.0268 8.50132 34.0675V34.0517C11.5753 36.2149 15.2425 37.3759 19.0013 37.3759C22.7602 37.3759 26.4273 36.2149 29.5013 34.0517V34.0675C29.5591 34.0268 29.6103 33.9756 29.6693 33.9362C30.1156 33.6147 30.5487 33.2721 30.9687 32.9098C31.0908 32.8048 31.2154 32.7012 31.3362 32.5922C31.7326 32.2313 32.1106 31.8493 32.4781 31.4503C32.6001 31.3191 32.7261 31.1918 32.8456 31.0566C32.9388 30.9477 33.0451 30.8532 33.1369 30.7416L33.1081 30.7206ZM19 8.49997C20.1682 8.49997 21.3101 8.84637 22.2813 9.49535C23.2526 10.1443 24.0096 11.0668 24.4567 12.146C24.9037 13.2252 25.0207 14.4128 24.7928 15.5585C24.5649 16.7042 24.0024 17.7566 23.1764 18.5826C22.3504 19.4086 21.298 19.9711 20.1523 20.199C19.0066 20.4269 17.819 20.3099 16.7398 19.8629C15.6606 19.4159 14.7381 18.6588 14.0891 17.6876C13.4402 16.7163 13.0938 15.5744 13.0938 14.4062C13.0938 12.8398 13.716 11.3375 14.8237 10.2299C15.9313 9.12224 17.4336 8.49997 19 8.49997ZM8.50919 30.7206C8.53196 28.9972 9.23231 27.3521 10.4587 26.1412C11.6851 24.9303 13.339 24.2509 15.0625 24.25H22.9375C24.661 24.2509 26.3149 24.9303 27.5413 26.1412C28.7677 27.3521 29.4681 28.9972 29.4908 30.7206C26.6123 33.3145 22.8748 34.7501 19 34.7501C15.1252 34.7501 11.3877 33.3145 8.50919 30.7206Z" fill="#FBF4FF"/>
</svg>
