<svg width="25" height="25" viewBox="0 0 25 25" fill="none" xmlns="http://www.w3.org/2000/svg">
<path d="M6.25 20.8335V5.2085H16.6667C17.8125 5.2085 18.75 6.146 18.75 7.29183V20.8335C18.75 21.9793 17.8125 22.9168 16.6667 22.9168H8.33333C7.1875 22.9168 6.25 21.9793 6.25 20.8335Z" fill="#546E7A"/>
<path d="M16.6667 6.771H8.33333C8.02083 6.771 7.8125 6.97933 7.8125 7.29183V11.4585C7.8125 11.771 8.02083 11.9793 8.33333 11.9793H16.6667C16.9792 11.9793 17.1875 11.771 17.1875 11.4585V7.29183C17.1875 6.97933 16.9792 6.771 16.6667 6.771Z" fill="#4FC3F7"/>
<path d="M9.896 15.625H8.85433C8.54183 15.625 8.3335 15.4167 8.3335 15.1042V14.5833C8.3335 14.2708 8.54183 14.0625 8.85433 14.0625H9.896C10.2085 14.0625 10.4168 14.2708 10.4168 14.5833V15.1042C10.4168 15.4167 10.2085 15.625 9.896 15.625ZM13.021 15.625H11.9793C11.6668 15.625 11.4585 15.4167 11.4585 15.1042V14.5833C11.4585 14.2708 11.6668 14.0625 11.9793 14.0625H13.021C13.3335 14.0625 13.5418 14.2708 13.5418 14.5833V15.1042C13.5418 15.4167 13.3335 15.625 13.021 15.625ZM16.146 15.625H15.1043C14.7918 15.625 14.5835 15.4167 14.5835 15.1042V14.5833C14.5835 14.2708 14.7918 14.0625 15.1043 14.0625H16.146C16.4585 14.0625 16.6668 14.2708 16.6668 14.5833V15.1042C16.6668 15.4167 16.4585 15.625 16.146 15.625ZM9.896 18.2292H8.85433C8.54183 18.2292 8.3335 18.0208 8.3335 17.7083V17.1875C8.3335 16.875 8.54183 16.6667 8.85433 16.6667H9.896C10.2085 16.6667 10.4168 16.875 10.4168 17.1875V17.7083C10.4168 18.0208 10.2085 18.2292 9.896 18.2292ZM13.021 18.2292H11.9793C11.6668 18.2292 11.4585 18.0208 11.4585 17.7083V17.1875C11.4585 16.875 11.6668 16.6667 11.9793 16.6667H13.021C13.3335 16.6667 13.5418 16.875 13.5418 17.1875V17.7083C13.5418 18.0208 13.3335 18.2292 13.021 18.2292ZM16.146 18.2292H15.1043C14.7918 18.2292 14.5835 18.0208 14.5835 17.7083V17.1875C14.5835 16.875 14.7918 16.6667 15.1043 16.6667H16.146C16.4585 16.6667 16.6668 16.875 16.6668 17.1875V17.7083C16.6668 18.0208 16.4585 18.2292 16.146 18.2292ZM9.896 20.8333H8.85433C8.54183 20.8333 8.3335 20.625 8.3335 20.3125V19.7917C8.3335 19.4792 8.54183 19.2708 8.85433 19.2708H9.896C10.2085 19.2708 10.4168 19.4792 10.4168 19.7917V20.3125C10.4168 20.625 10.2085 20.8333 9.896 20.8333ZM13.021 20.8333H11.9793C11.6668 20.8333 11.4585 20.625 11.4585 20.3125V19.7917C11.4585 19.4792 11.6668 19.2708 11.9793 19.2708H13.021C13.3335 19.2708 13.5418 19.4792 13.5418 19.7917V20.3125C13.5418 20.625 13.3335 20.8333 13.021 20.8333ZM16.146 20.8333H15.1043C14.7918 20.8333 14.5835 20.625 14.5835 20.3125V19.7917C14.5835 19.4792 14.7918 19.2708 15.1043 19.2708H16.146C16.4585 19.2708 16.6668 19.4792 16.6668 19.7917V20.3125C16.6668 20.625 16.4585 20.8333 16.146 20.8333Z" fill="#B3E5FC"/>
<path d="M8.33333 5.20817H6.25V2.08317C6.25 1.51025 6.71875 1.0415 7.29167 1.0415C7.86458 1.0415 8.33333 1.51025 8.33333 2.08317V5.20817Z" fill="#37474F"/>
</svg>
