<svg width="16" height="16" viewBox="0 0 16 16" fill="none" xmlns="http://www.w3.org/2000/svg">
<path d="M7.99972 9.47564C8.15296 9.47564 8.29992 9.41477 8.40827 9.30642C8.51663 9.19806 8.5775 9.0511 8.5775 8.89786V6.22231C8.5775 6.06907 8.51663 5.92211 8.40827 5.81376C8.29992 5.7054 8.15296 5.64453 7.99972 5.64453C7.84648 5.64453 7.69952 5.7054 7.59117 5.81376C7.48282 5.92211 7.42194 6.06907 7.42194 6.22231V8.88898C7.42076 8.9656 7.43484 9.04168 7.46335 9.11281C7.49185 9.18394 7.53423 9.24869 7.588 9.30328C7.64177 9.35788 7.70586 9.40124 7.77654 9.43083C7.84723 9.46042 7.92309 9.47565 7.99972 9.47564Z" fill="#FF7878"/>
<path d="M7.97721 11.4535C8.3454 11.4535 8.64388 11.155 8.64388 10.7868C8.64388 10.4186 8.3454 10.1201 7.97721 10.1201C7.60902 10.1201 7.31055 10.4186 7.31055 10.7868C7.31055 11.155 7.60902 11.4535 7.97721 11.4535Z" fill="#FF7878"/>
<path d="M13.4797 11.3512L9.15076 3.37782C9.03615 3.16725 8.86689 2.99147 8.66079 2.869C8.4547 2.74652 8.21939 2.68188 7.97965 2.68188C7.73991 2.68188 7.5046 2.74652 7.29851 2.869C7.09241 2.99147 6.92315 3.16725 6.80854 3.37782L2.47521 11.3512C2.36179 11.5547 2.30371 11.7845 2.30675 12.0175C2.3098 12.2505 2.37388 12.4787 2.49258 12.6792C2.61129 12.8798 2.78049 13.0457 2.98331 13.1605C3.18614 13.2753 3.4155 13.3349 3.64854 13.3334H12.3063C12.5374 13.3336 12.7647 13.2737 12.9657 13.1596C13.1667 13.0455 13.3346 12.8812 13.4529 12.6826C13.5712 12.4841 13.6359 12.2582 13.6406 12.0271C13.6453 11.796 13.5898 11.5677 13.4797 11.3645V11.3512ZM12.6885 12.2134C12.6492 12.2797 12.5933 12.3347 12.5263 12.3729C12.4592 12.4111 12.3834 12.4311 12.3063 12.4312H3.64854C3.57128 12.4314 3.49531 12.4114 3.42811 12.3733C3.3609 12.3352 3.30479 12.2803 3.26531 12.2139C3.22583 12.1475 3.20433 12.0719 3.20295 11.9947C3.20157 11.9174 3.22035 11.8411 3.25743 11.7734L7.58632 3.80004C7.6244 3.72949 7.68086 3.67055 7.74971 3.62947C7.81857 3.58839 7.89725 3.5667 7.97743 3.5667C8.05761 3.5667 8.13629 3.58839 8.20514 3.62947C8.274 3.67055 8.33046 3.72949 8.36854 3.80004L12.6974 11.7734C12.7343 11.8412 12.7528 11.9174 12.7513 11.9946C12.7497 12.0717 12.7281 12.1471 12.6885 12.2134Z" fill="#FF7878"/>
</svg>
