<svg width="31" height="11" viewBox="0 0 31 11" fill="none" xmlns="http://www.w3.org/2000/svg">
<path fill-rule="evenodd" clip-rule="evenodd" d="M7.86417 10.0002H5.21324L3.22536 2.19328C3.131 1.83417 2.93066 1.51668 2.63597 1.36705C1.90053 0.991017 1.09013 0.691752 0.206055 0.540818V0.240251H4.47651C5.06589 0.240251 5.50793 0.691752 5.5816 1.21612L6.61302 6.84751L9.26267 0.240251H11.8399L7.86417 10.0002ZM13.3134 10.0002H10.8098L12.8713 0.240251H15.3749L13.3134 10.0002ZM18.6139 2.94403C18.6876 2.41837 19.1296 2.1178 19.6453 2.1178C20.4557 2.04233 21.3385 2.19327 22.0752 2.568L22.5173 0.466637C21.7805 0.166071 20.9701 0.0151367 20.2347 0.0151367C17.8048 0.0151367 16.0366 1.36704 16.0366 3.2433C16.0366 4.67067 17.2891 5.42013 18.1732 5.87163C19.1296 6.32183 19.498 6.6224 19.4243 7.0726C19.4243 7.7479 18.6876 8.04846 17.9521 8.04846C17.0681 8.04846 16.184 7.82336 15.3749 7.44733L14.9328 9.54999C15.8169 9.92473 16.7734 10.0757 17.6574 10.0757C20.3821 10.1498 22.0752 8.79923 22.0752 6.77203C22.0752 4.21917 18.6139 4.06953 18.6139 2.94403V2.94403ZM30.8373 10.0002L28.8494 0.240251H26.7142C26.2721 0.240251 25.8301 0.540818 25.6827 0.991017L22.0017 10.0002H24.5789L25.0933 8.57414H28.26L28.5547 10.0002H30.8373ZM27.0824 2.86861L27.8179 6.54697H25.7563L27.0824 2.86861Z" fill="#172B85"/>
</svg>
